<?xml version="1.0" encoding="UTF-8" standalone="no"?><svg xmlns="http://www.w3.org/2000/svg" xmlns:xlink="http://www.w3.org/1999/xlink" clip-rule="evenodd" stroke-miterlimit="4.00" viewBox="0 0 66 464"><desc>SVG generated by Keynote</desc><defs></defs><g transform="matrix(1.00, 0.00, -0.00, -1.00, 0.0, 464.0)"><g><clipPath id="clip-73"><path d="M 0.4 396.1 L 65.6 396.1 L 65.6 463.8 L 0.4 463.8 Z M 0.4 396.1 "></path></clipPath><g clip-path="url(#clip-73)"><image xlink:href="../../9DD55818-20E3-4E73-8922-43037A55DAA2/assets/B6E328274EA7399255348C83C28ED7FB.png" width="54.00" height="56.00" transform="matrix(1.22, 0.00, -0.00, -1.21, 0.0, 464.0)"></image></g></g><g><clipPath id="clip-74"><path d="M 3.7 0.4 L 62.3 0.4 L 62.3 391.4 L 3.7 391.4 Z M 3.7 0.4 "></path></clipPath><g clip-path="url(#clip-74)"><image xlink:href="../../9DD55818-20E3-4E73-8922-43037A55DAA2/assets/FBC1640B48D0F695DDCF25D36944EE84.png" width="57.00" height="389.00" transform="matrix(0.99, 0.00, -0.00, -1.00, 4.7, 390.4)" opacity="0.65"></image><path d="M 28.5 385.4 L 37.5 385.4 C 42.9 385.4 45.6 385.4 48.6 384.5 C 51.7 383.3 54.3 380.8 55.4 377.6 C 56.3 374.7 56.3 372.0 56.3 366.5 L 56.3 25.3 C 56.3 19.9 56.3 17.1 55.4 14.2 C 54.3 11.0 51.7 8.5 48.6 7.3 C 45.6 6.4 42.9 6.4 37.4 6.4 L 28.5 6.4 C 23.1 6.4 20.4 6.4 17.4 7.3 C 14.3 8.5 11.7 11.0 10.6 14.2 C 9.7 17.1 9.7 19.9 9.7 25.4 L 9.7 366.6 C 9.7 372.0 9.7 374.7 10.6 377.6 C 11.7 380.8 14.3 383.3 17.4 384.5 C 20.4 385.4 23.1 385.4 28.6 385.4 Z M 28.5 385.4 " fill="#763E9B"></path></g></g><g><clipPath id="clip-75"><path d="M 20.2 45.2 L 45.8 45.2 L 45.8 70.4 L 20.2 70.4 Z M 20.2 45.2 "></path></clipPath><g clip-path="url(#clip-75)"><image xlink:href="../../041DAA2E-BB94-4FA9-ADDE-BC286078BCA4/assets/66BBACC5A45C6D10993B93C204E505A0.png" width="53.00" height="52.00" transform="matrix(0.49, 0.00, -0.00, -0.48, 20.0, 70.0)"></image></g></g></g></svg>