<?xml version="1.0" encoding="UTF-8" standalone="no"?><svg xmlns="http://www.w3.org/2000/svg" xmlns:xlink="http://www.w3.org/1999/xlink" clip-rule="evenodd" stroke-miterlimit="4.00" viewBox="0 0 1024 768"><desc>SVG generated by Keynote</desc><defs></defs><g transform="matrix(1.00, 0.00, -0.00, -1.00, 0.0, 768.0)"><path d="M 0.0 768.0 L 1024.0 768.0 L 1024.0 0.0 L 0.0 0.0 Z M 0.0 768.0 " fill="#FEFFFF"></path><text xml:space="preserve" font-family="Helvetica-Light" font-size="50.0" fill="#000000" transform="matrix(1.00, 0.00, -0.00, -1.00, 142.0, 669.0)">W</text><text xml:space="preserve" font-family="Helvetica-Light" font-size="50.0" fill="#000000" transform="matrix(1.00, 0.00, -0.00, -1.00, 186.4, 669.0)">h</text><text xml:space="preserve" font-family="Helvetica-Light" font-size="50.0" fill="#000000" transform="matrix(1.00, 0.00, -0.00, -1.00, 214.2, 669.0)">o</text><text xml:space="preserve" font-family="Helvetica-Light" font-size="50.0" fill="#000000" transform="matrix(1.00, 0.00, -0.00, -1.00, 242.1, 669.0)"> </text><text xml:space="preserve" font-family="Helvetica-Light" font-size="50.0" fill="#000000" transform="matrix(1.00, 0.00, -0.00, -1.00, 255.9, 669.0)">a</text><text xml:space="preserve" font-family="Helvetica-Light" font-size="50.0" fill="#000000" transform="matrix(1.00, 0.00, -0.00, -1.00, 283.8, 669.0)">r</text><text xml:space="preserve" font-family="Helvetica-Light" font-size="50.0" fill="#000000" transform="matrix(1.00, 0.00, -0.00, -1.00, 299.5, 669.0)">e</text><text xml:space="preserve" font-family="Helvetica-Light" font-size="50.0" fill="#000000" transform="matrix(1.00, 0.00, -0.00, -1.00, 327.3, 669.0)"> </text><text xml:space="preserve" font-family="Helvetica-Light" font-size="50.0" fill="#000000" transform="matrix(1.00, 0.00, -0.00, -1.00, 341.2, 669.0)">a</text><text xml:space="preserve" font-family="Helvetica-Light" font-size="50.0" fill="#000000" transform="matrix(1.00, 0.00, -0.00, -1.00, 369.0, 669.0)">l</text><text xml:space="preserve" font-family="Helvetica-Light" font-size="50.0" fill="#000000" transform="matrix(1.00, 0.00, -0.00, -1.00, 380.1, 669.0)">l</text><text xml:space="preserve" font-family="Helvetica-Light" font-size="50.0" fill="#000000" transform="matrix(1.00, 0.00, -0.00, -1.00, 391.2, 669.0)"> </text><text xml:space="preserve" font-family="Helvetica-Light" font-size="50.0" fill="#000000" transform="matrix(1.00, 0.00, -0.00, -1.00, 405.1, 669.0)">d</text><text xml:space="preserve" font-family="Helvetica-Light" font-size="50.0" fill="#000000" transform="matrix(1.00, 0.00, -0.00, -1.00, 435.7, 669.0)">o</text><text xml:space="preserve" font-family="Helvetica-Light" font-size="50.0" fill="#000000" transform="matrix(1.00, 0.00, -0.00, -1.00, 463.5, 669.0)">i</text><text xml:space="preserve" font-family="Helvetica-Light" font-size="50.0" fill="#000000" transform="matrix(1.00, 0.00, -0.00, -1.00, 474.6, 669.0)">n</text><text xml:space="preserve" font-family="Helvetica-Light" font-size="50.0" fill="#000000" transform="matrix(1.00, 0.00, -0.00, -1.00, 502.4, 669.0)">g</text><text xml:space="preserve" font-family="Helvetica-Light" font-size="50.0" fill="#000000" transform="matrix(1.00, 0.00, -0.00, -1.00, 532.9, 669.0)"> </text><text xml:space="preserve" font-family="Helvetica-Light" font-size="50.0" fill="#000000" transform="matrix(1.00, 0.00, -0.00, -1.00, 546.8, 669.0)">M</text><text xml:space="preserve" font-family="Helvetica-Light" font-size="50.0" fill="#000000" transform="matrix(1.00, 0.00, -0.00, -1.00, 588.5, 669.0)">i</text><text xml:space="preserve" font-family="Helvetica-Light" font-size="50.0" fill="#000000" transform="matrix(1.00, 0.00, -0.00, -1.00, 599.6, 669.0)">c</text><text xml:space="preserve" font-family="Helvetica-Light" font-size="50.0" fill="#000000" transform="matrix(1.00, 0.00, -0.00, -1.00, 627.4, 669.0)">r</text><text xml:space="preserve" font-family="Helvetica-Light" font-size="50.0" fill="#000000" transform="matrix(1.00, 0.00, -0.00, -1.00, 643.1, 669.0)">o</text><text xml:space="preserve" font-family="Helvetica-Light" font-size="50.0" fill="#000000" transform="matrix(1.00, 0.00, -0.00, -1.00, 670.9, 669.0)">s</text><text xml:space="preserve" font-family="Helvetica-Light" font-size="50.0" fill="#000000" transform="matrix(1.00, 0.00, -0.00, -1.00, 695.9, 669.0)">e</text><text xml:space="preserve" font-family="Helvetica-Light" font-size="50.0" fill="#000000" transform="matrix(1.00, 0.00, -0.00, -1.00, 723.7, 669.0)">r</text><text xml:space="preserve" font-family="Helvetica-Light" font-size="50.0" fill="#000000" transform="matrix(1.00, 0.00, -0.00, -1.00, 740.4, 669.0)">v</text><text xml:space="preserve" font-family="Helvetica-Light" font-size="50.0" fill="#000000" transform="matrix(1.00, 0.00, -0.00, -1.00, 765.4, 669.0)">i</text><text xml:space="preserve" font-family="Helvetica-Light" font-size="50.0" fill="#000000" transform="matrix(1.00, 0.00, -0.00, -1.00, 776.5, 669.0)">c</text><text xml:space="preserve" font-family="Helvetica-Light" font-size="50.0" fill="#000000" transform="matrix(1.00, 0.00, -0.00, -1.00, 804.2, 669.0)">e</text><text xml:space="preserve" font-family="Helvetica-Light" font-size="50.0" fill="#000000" transform="matrix(1.00, 0.00, -0.00, -1.00, 832.0, 669.0)">s</text><text xml:space="preserve" font-family="Helvetica-Light" font-size="50.0" fill="#000000" transform="matrix(1.00, 0.00, -0.00, -1.00, 857.0, 669.0)">?</text><image xlink:href="../../E2869D15-1E12-4F3A-B355-0C2D4BB7E167/assets/02DE42000CC15434482AFDCD6D681B0B.png" width="217.00" height="77.00" transform="matrix(1.00, 0.00, -0.00, -1.00, 169.0, 583.0)"></image><image xlink:href="../../E2869D15-1E12-4F3A-B355-0C2D4BB7E167/assets/8A20F9A2050CF0D9F1C4B20D964FCED7.png" width="180.00" height="100.00" transform="matrix(0.99, 0.00, -0.00, -1.00, 374.0, 480.0)"></image><image xlink:href="../../E2869D15-1E12-4F3A-B355-0C2D4BB7E167/assets/D914BC1C249B7651ABE6017A84E05227.png" width="131.00" height="131.00" transform="matrix(1.00, 0.00, -0.00, -0.99, 74.0, 435.0)"></image><image xlink:href="../../E2869D15-1E12-4F3A-B355-0C2D4BB7E167/assets/E46CD8C67888BF732C356B7CDAE395FB.png" width="340.00" height="58.00" transform="matrix(1.00, 0.00, -0.00, -1.00, 611.0, 130.0)"></image><image xlink:href="../../E2869D15-1E12-4F3A-B355-0C2D4BB7E167/assets/0A1FD3E93BD91D6C363AA0519FCAA7E6.png" width="185.00" height="61.00" transform="matrix(1.00, 0.00, -0.00, -1.00, 746.0, 277.0)"></image><image xlink:href="../../E2869D15-1E12-4F3A-B355-0C2D4BB7E167/assets/283FF4C973E6A327BA44D313F1B62CB9.jpeg" width="193.00" height="77.00" transform="matrix(0.99, 0.00, -0.00, -1.00, 743.0, 440.0)"></image><image xlink:href="../../E2869D15-1E12-4F3A-B355-0C2D4BB7E167/assets/815D6A84CFADBA498DDB74FBACBACB1A.jpeg" width="153.00" height="86.00" transform="matrix(1.00, 0.00, -0.00, -1.00, 518.0, 627.0)"></image><image xlink:href="../../E2869D15-1E12-4F3A-B355-0C2D4BB7E167/assets/C9EABD7FD1ED02A8CDAA7BDC82A4ADD5.png" width="340.00" height="95.00" transform="matrix(1.00, 0.00, -0.00, -1.01, 186.0, 134.0)"></image><image xlink:href="../../E2869D15-1E12-4F3A-B355-0C2D4BB7E167/assets/D8324F13632F92D04F41733B4D94CD97.png" width="201.00" height="77.00" transform="matrix(1.00, 0.00, -0.00, -1.00, 355.0, 315.0)"></image><image xlink:href="../../E2869D15-1E12-4F3A-B355-0C2D4BB7E167/assets/6C1B8C3C99DDC3F4C12B1E743D3D9D92.png" width="172.00" height="68.00" transform="matrix(0.99, 0.00, -0.00, -1.00, 99.0, 253.0)"></image></g></svg>