<?xml version="1.0" encoding="UTF-8" standalone="no"?><svg xmlns="http://www.w3.org/2000/svg" xmlns:xlink="http://www.w3.org/1999/xlink" clip-rule="evenodd" stroke-miterlimit="4.00" viewBox="0 0 1024 768"><desc>SVG generated by Keynote</desc><defs></defs><g transform="matrix(1.00, 0.00, -0.00, -1.00, 0.0, 768.0)"><path d="M 0.0 768.0 L 1024.0 768.0 L 1024.0 0.0 L 0.0 0.0 Z M 0.0 768.0 " fill="#FEFFFF"></path><g><clipPath id="clip-153"><path d="M 103.8 280.6 L 226.2 280.6 L 226.2 349.4 L 103.8 349.4 Z M 103.8 280.6 "></path></clipPath><g clip-path="url(#clip-153)"><image xlink:href="../../64430E65-70BA-43D4-8DCC-0C76D445A3BC/assets/E632323D473A10E6026AB85E6BA235AE.jpeg" width="123.00" height="69.00" transform="matrix(0.99, 0.00, -0.00, -0.99, 104.0, 349.0)"></image></g></g><g><clipPath id="clip-154"><path d="M 561.7 508.4 L 684.0 508.4 L 684.0 577.2 L 561.7 577.2 Z M 561.7 508.4 "></path></clipPath><g clip-path="url(#clip-154)"><image xlink:href="../../64430E65-70BA-43D4-8DCC-0C76D445A3BC/assets/E632323D473A10E6026AB85E6BA235AE.jpeg" width="123.00" height="69.00" transform="matrix(0.99, 0.00, -0.00, -1.00, 562.0, 577.0)"></image></g></g><text xml:space="preserve" font-family="Helvetica-Light" font-size="15.0" fill="#000000" transform="matrix(1.00, 0.00, -0.00, -1.00, 14.0, 31.0)">C</text><text xml:space="preserve" font-family="Helvetica-Light" font-size="15.0" fill="#000000" transform="matrix(1.00, 0.00, -0.00, -1.00, 24.8, 31.0)">h</text><text xml:space="preserve" font-family="Helvetica-Light" font-size="15.0" fill="#000000" transform="matrix(1.00, 0.00, -0.00, -1.00, 33.2, 31.0)">a</text><text xml:space="preserve" font-family="Helvetica-Light" font-size="15.0" fill="#000000" transform="matrix(1.00, 0.00, -0.00, -1.00, 41.5, 31.0)">r</text><text xml:space="preserve" font-family="Helvetica-Light" font-size="15.0" fill="#000000" transform="matrix(1.00, 0.00, -0.00, -1.00, 46.5, 31.0)">a</text><text xml:space="preserve" font-family="Helvetica-Light" font-size="15.0" fill="#000000" transform="matrix(1.00, 0.00, -0.00, -1.00, 54.8, 31.0)">c</text><text xml:space="preserve" font-family="Helvetica-Light" font-size="15.0" fill="#000000" transform="matrix(1.00, 0.00, -0.00, -1.00, 63.2, 31.0)">t</text><text xml:space="preserve" font-family="Helvetica-Light" font-size="15.0" fill="#000000" transform="matrix(1.00, 0.00, -0.00, -1.00, 67.4, 31.0)">e</text><text xml:space="preserve" font-family="Helvetica-Light" font-size="15.0" fill="#000000" transform="matrix(1.00, 0.00, -0.00, -1.00, 75.7, 31.0)">r</text><text xml:space="preserve" font-family="Helvetica-Light" font-size="15.0" fill="#000000" transform="matrix(1.00, 0.00, -0.00, -1.00, 80.7, 31.0)">i</text><text xml:space="preserve" font-family="Helvetica-Light" font-size="15.0" fill="#000000" transform="matrix(1.00, 0.00, -0.00, -1.00, 84.0, 31.0)">s</text><text xml:space="preserve" font-family="Helvetica-Light" font-size="15.0" fill="#000000" transform="matrix(1.00, 0.00, -0.00, -1.00, 91.5, 31.0)">t</text><text xml:space="preserve" font-family="Helvetica-Light" font-size="15.0" fill="#000000" transform="matrix(1.00, 0.00, -0.00, -1.00, 95.7, 31.0)">i</text><text xml:space="preserve" font-family="Helvetica-Light" font-size="15.0" fill="#000000" transform="matrix(1.00, 0.00, -0.00, -1.00, 99.0, 31.0)">c</text><text xml:space="preserve" font-family="Helvetica-Light" font-size="15.0" fill="#000000" transform="matrix(1.00, 0.00, -0.00, -1.00, 107.4, 31.0)">s</text><text xml:space="preserve" font-family="Helvetica-Light" font-size="15.0" fill="#000000" transform="matrix(1.00, 0.00, -0.00, -1.00, 114.9, 31.0)"> </text><text xml:space="preserve" font-family="Helvetica-Light" font-size="15.0" fill="#000000" transform="matrix(1.00, 0.00, -0.00, -1.00, 119.0, 31.0)">o</text><text xml:space="preserve" font-family="Helvetica-Light" font-size="15.0" fill="#000000" transform="matrix(1.00, 0.00, -0.00, -1.00, 127.4, 31.0)">f</text><text xml:space="preserve" font-family="Helvetica-Light" font-size="15.0" fill="#000000" transform="matrix(1.00, 0.00, -0.00, -1.00, 131.5, 31.0)"> </text><text xml:space="preserve" font-family="Helvetica-Light" font-size="15.0" fill="#000000" transform="matrix(1.00, 0.00, -0.00, -1.00, 135.7, 31.0)">a</text><text xml:space="preserve" font-family="Helvetica-Light" font-size="15.0" fill="#000000" transform="matrix(1.00, 0.00, -0.00, -1.00, 144.1, 31.0)"> </text><text xml:space="preserve" font-family="Helvetica-Light" font-size="15.0" fill="#000000" transform="matrix(1.00, 0.00, -0.00, -1.00, 148.2, 31.0)">M</text><text xml:space="preserve" font-family="Helvetica-Light" font-size="15.0" fill="#000000" transform="matrix(1.00, 0.00, -0.00, -1.00, 160.7, 31.0)">i</text><text xml:space="preserve" font-family="Helvetica-Light" font-size="15.0" fill="#000000" transform="matrix(1.00, 0.00, -0.00, -1.00, 164.0, 31.0)">c</text><text xml:space="preserve" font-family="Helvetica-Light" font-size="15.0" fill="#000000" transform="matrix(1.00, 0.00, -0.00, -1.00, 172.4, 31.0)">r</text><text xml:space="preserve" font-family="Helvetica-Light" font-size="15.0" fill="#000000" transform="matrix(1.00, 0.00, -0.00, -1.00, 177.1, 31.0)">o</text><text xml:space="preserve" font-family="Helvetica-Light" font-size="15.0" fill="#000000" transform="matrix(1.00, 0.00, -0.00, -1.00, 185.5, 31.0)">s</text><text xml:space="preserve" font-family="Helvetica-Light" font-size="15.0" fill="#000000" transform="matrix(1.00, 0.00, -0.00, -1.00, 193.0, 31.0)">e</text><text xml:space="preserve" font-family="Helvetica-Light" font-size="15.0" fill="#000000" transform="matrix(1.00, 0.00, -0.00, -1.00, 201.3, 31.0)">r</text><text xml:space="preserve" font-family="Helvetica-Light" font-size="15.0" fill="#000000" transform="matrix(1.00, 0.00, -0.00, -1.00, 206.3, 31.0)">v</text><text xml:space="preserve" font-family="Helvetica-Light" font-size="15.0" fill="#000000" transform="matrix(1.00, 0.00, -0.00, -1.00, 213.8, 31.0)">i</text><text xml:space="preserve" font-family="Helvetica-Light" font-size="15.0" fill="#000000" transform="matrix(1.00, 0.00, -0.00, -1.00, 217.1, 31.0)">c</text><text xml:space="preserve" font-family="Helvetica-Light" font-size="15.0" fill="#000000" transform="matrix(1.00, 0.00, -0.00, -1.00, 225.5, 31.0)">e</text><text xml:space="preserve" font-family="Helvetica-Light" font-size="15.0" fill="#000000" transform="matrix(1.00, 0.00, -0.00, -1.00, 233.8, 31.0)"> </text><g><clipPath id="clip-155"><path d="M 408.7 471.0 L 531.0 471.0 L 531.0 612.0 L 408.7 612.0 Z M 408.7 471.0 "></path></clipPath><g clip-path="url(#clip-155)"><path d="M 68.3 0.0 L 127.5 34.2 L 127.5 102.5 L 68.3 136.6 L 9.2 102.5 L 9.2 34.2 Z M 68.3 0.0 " fill="none" stroke="#85878C" stroke-width="2.00" transform="matrix(1.00, 0.00, 0.00, -1.00, 401.5, 609.8)"></path></g></g><g><clipPath id="clip-156"><path d="M 429.3 542.7 L 510.4 542.7 L 510.4 576.7 L 429.3 576.7 Z M 429.3 542.7 "></path></clipPath><g clip-path="url(#clip-156)"><text xml:space="preserve" font-family="Helvetica-Light" font-size="20.0" fill="#000000" transform="matrix(1.00, 0.00, -0.00, -1.00, 435.0, 552.0)">C</text><text xml:space="preserve" font-family="Helvetica-Light" font-size="20.0" fill="#000000" transform="matrix(1.00, 0.00, -0.00, -1.00, 449.4, 552.0)">a</text><text xml:space="preserve" font-family="Helvetica-Light" font-size="20.0" fill="#000000" transform="matrix(1.00, 0.00, -0.00, -1.00, 460.6, 552.0)">t</text><text xml:space="preserve" font-family="Helvetica-Light" font-size="20.0" fill="#000000" transform="matrix(1.00, 0.00, -0.00, -1.00, 466.1, 552.0)">a</text><text xml:space="preserve" font-family="Helvetica-Light" font-size="20.0" fill="#000000" transform="matrix(1.00, 0.00, -0.00, -1.00, 477.2, 552.0)">l</text><text xml:space="preserve" font-family="Helvetica-Light" font-size="20.0" fill="#000000" transform="matrix(1.00, 0.00, -0.00, -1.00, 481.7, 552.0)">o</text><text xml:space="preserve" font-family="Helvetica-Light" font-size="20.0" fill="#000000" transform="matrix(1.00, 0.00, -0.00, -1.00, 492.8, 552.0)">g</text></g></g><g><clipPath id="clip-157"><path d="M 179.8 165.2 L 304.1 165.2 L 304.1 308.4 L 179.8 308.4 Z M 179.8 165.2 "></path></clipPath><g clip-path="url(#clip-157)"><path d="M 69.5 0.0 L 129.6 34.7 L 129.6 104.2 L 69.5 138.9 L 9.3 104.2 L 9.3 34.7 Z M 69.5 0.0 " fill="none" stroke="#85878C" stroke-width="2.00" transform="matrix(1.00, 0.00, 0.00, -1.00, 172.5, 306.3)"></path></g></g><g><clipPath id="clip-158"><path d="M 202.5 236.3 L 281.4 236.3 L 281.4 276.7 L 202.5 276.7 Z M 202.5 236.3 "></path></clipPath><g clip-path="url(#clip-158)"><text xml:space="preserve" font-family="Helvetica-Light" font-size="20.0" fill="#000000" transform="matrix(1.00, 0.00, -0.00, -1.00, 216.0, 249.0)">O</text><text xml:space="preserve" font-family="Helvetica-Light" font-size="20.0" fill="#000000" transform="matrix(1.00, 0.00, -0.00, -1.00, 231.6, 249.0)">r</text><text xml:space="preserve" font-family="Helvetica-Light" font-size="20.0" fill="#000000" transform="matrix(1.00, 0.00, -0.00, -1.00, 237.9, 249.0)">d</text><text xml:space="preserve" font-family="Helvetica-Light" font-size="20.0" fill="#000000" transform="matrix(1.00, 0.00, -0.00, -1.00, 250.1, 249.0)">e</text><text xml:space="preserve" font-family="Helvetica-Light" font-size="20.0" fill="#000000" transform="matrix(1.00, 0.00, -0.00, -1.00, 261.2, 249.0)">r</text></g></g><path d="M 0.0 0.0 L 241.9 0.0 L 243.4 0.0 " fill="none" stroke="#000000" stroke-width="3.00" stroke-linecap="round" stroke-dasharray="0.0, 9.0" transform="matrix(0.60, 0.80, 0.80, -0.60, 274.7, 293.9)"></path><path d="M 425.7 483.0 L 428.4 497.5 L 415.2 490.9 Z M 425.7 483.0 " fill="#000000"></path><path d="M 0.0 0.0 L 355.7 0.0 L 357.2 0.0 " fill="none" stroke="#000000" stroke-width="3.00" stroke-linecap="round" stroke-dasharray="0.0, 9.0" transform="matrix(-0.98, -0.22, -0.22, 0.98, 672.3, 312.3)"></path><path d="M 323.8 241.1 L 312.3 231.7 L 326.6 228.2 Z M 323.8 241.1 " fill="#000000"></path><g opacity="0.47"><g><clipPath id="clip-159"><path d="M 0.0 165.0 L 95.0 165.0 L 95.0 309.0 L 0.0 309.0 Z M 0.0 165.0 "></path></clipPath><g clip-path="url(#clip-159)"><path d="M 69.5 0.0 L 129.6 34.7 L 129.6 104.2 L 69.5 138.9 L 9.3 104.2 L 9.3 34.7 Z M 69.5 0.0 " fill="none" stroke="#85878C" stroke-width="2.00" stroke-dasharray="12.0, 12.0" transform="matrix(1.00, 0.00, 0.00, -1.00, -37.6, 306.3)"></path></g></g></g><g opacity="0.47"><g><clipPath id="clip-160"><path d="M 0.0 469.0 L 118.0 469.0 L 118.0 614.0 L 0.0 614.0 Z M 0.0 469.0 "></path></clipPath><g clip-path="url(#clip-160)"><path d="M 69.5 0.0 L 129.6 34.7 L 129.6 104.2 L 69.5 138.9 L 9.3 104.2 L 9.3 34.7 Z M 69.5 0.0 " fill="none" stroke="#85878C" stroke-width="2.00" stroke-dasharray="12.0, 12.0" transform="matrix(1.00, 0.00, 0.00, -1.00, -14.0, 611.0)"></path></g></g></g><g opacity="0.47"><g><clipPath id="clip-161"><path d="M 527.0 0.0 L 652.0 0.0 L 652.0 109.0 L 527.0 109.0 Z M 527.0 0.0 "></path></clipPath><g clip-path="url(#clip-161)"><path d="M 69.5 0.0 L 129.6 34.7 L 129.6 104.2 L 69.5 138.9 L 9.3 104.2 L 9.3 34.7 Z M 69.5 0.0 " fill="none" stroke="#85878C" stroke-width="2.00" stroke-dasharray="12.0, 12.0" transform="matrix(1.00, 0.00, 0.00, -1.00, 520.3, 105.9)"></path></g></g></g><g opacity="0.47"><g><clipPath id="clip-162"><path d="M 922.0 394.0 L 1024.0 394.0 L 1024.0 539.0 L 922.0 539.0 Z M 922.0 394.0 "></path></clipPath><g clip-path="url(#clip-162)"><path d="M 69.5 0.0 L 129.6 34.7 L 129.6 104.2 L 69.5 138.9 L 9.3 104.2 L 9.3 34.7 Z M 69.5 0.0 " fill="none" stroke="#85878C" stroke-width="2.00" stroke-dasharray="12.0, 12.0" transform="matrix(1.00, 0.00, 0.00, -1.00, 914.9, 536.1)"></path></g></g></g><g opacity="0.47"><g><clipPath id="clip-163"><path d="M 922.0 0.0 L 1024.0 0.0 L 1024.0 121.0 L 922.0 121.0 Z M 922.0 0.0 "></path></clipPath><g clip-path="url(#clip-163)"><path d="M 69.5 0.0 L 129.6 34.7 L 129.6 104.2 L 69.5 138.9 L 9.3 104.2 L 9.3 34.7 Z M 69.5 0.0 " fill="none" stroke="#85878C" stroke-width="2.00" stroke-dasharray="12.0, 12.0" transform="matrix(1.00, 0.00, 0.00, -1.00, 914.9, 118.7)"></path></g></g></g><text xml:space="preserve" font-family="Helvetica-Light" font-size="40.0" fill="#000000" transform="matrix(1.00, 0.00, -0.00, -1.00, 272.0, 676.0)">D</text><text xml:space="preserve" font-family="Helvetica-Light" font-size="40.0" fill="#000000" transform="matrix(1.00, 0.00, -0.00, -1.00, 300.9, 676.0)">e</text><text xml:space="preserve" font-family="Helvetica-Light" font-size="40.0" fill="#000000" transform="matrix(1.00, 0.00, -0.00, -1.00, 323.1, 676.0)">c</text><text xml:space="preserve" font-family="Helvetica-Light" font-size="40.0" fill="#000000" transform="matrix(1.00, 0.00, -0.00, -1.00, 345.4, 676.0)">e</text><text xml:space="preserve" font-family="Helvetica-Light" font-size="40.0" fill="#000000" transform="matrix(1.00, 0.00, -0.00, -1.00, 367.6, 676.0)">n</text><text xml:space="preserve" font-family="Helvetica-Light" font-size="40.0" fill="#000000" transform="matrix(1.00, 0.00, -0.00, -1.00, 389.8, 676.0)">t</text><text xml:space="preserve" font-family="Helvetica-Light" font-size="40.0" fill="#000000" transform="matrix(1.00, 0.00, -0.00, -1.00, 401.0, 676.0)">r</text><text xml:space="preserve" font-family="Helvetica-Light" font-size="40.0" fill="#000000" transform="matrix(1.00, 0.00, -0.00, -1.00, 414.3, 676.0)">a</text><text xml:space="preserve" font-family="Helvetica-Light" font-size="40.0" fill="#000000" transform="matrix(1.00, 0.00, -0.00, -1.00, 436.5, 676.0)">l</text><text xml:space="preserve" font-family="Helvetica-Light" font-size="40.0" fill="#000000" transform="matrix(1.00, 0.00, -0.00, -1.00, 445.4, 676.0)">i</text><text xml:space="preserve" font-family="Helvetica-Light" font-size="40.0" fill="#000000" transform="matrix(1.00, 0.00, -0.00, -1.00, 454.3, 676.0)">z</text><text xml:space="preserve" font-family="Helvetica-Light" font-size="40.0" fill="#000000" transform="matrix(1.00, 0.00, -0.00, -1.00, 474.3, 676.0)">e</text><text xml:space="preserve" font-family="Helvetica-Light" font-size="40.0" fill="#000000" transform="matrix(1.00, 0.00, -0.00, -1.00, 496.5, 676.0)">d</text><text xml:space="preserve" font-family="Helvetica-Light" font-size="40.0" fill="#000000" transform="matrix(1.00, 0.00, -0.00, -1.00, 521.0, 676.0)"> </text><text xml:space="preserve" font-family="Helvetica-Light" font-size="40.0" fill="#000000" transform="matrix(1.00, 0.00, -0.00, -1.00, 532.1, 676.0)">G</text><text xml:space="preserve" font-family="Helvetica-Light" font-size="40.0" fill="#000000" transform="matrix(1.00, 0.00, -0.00, -1.00, 563.2, 676.0)">o</text><text xml:space="preserve" font-family="Helvetica-Light" font-size="40.0" fill="#000000" transform="matrix(1.00, 0.00, -0.00, -1.00, 585.4, 676.0)">v</text><text xml:space="preserve" font-family="Helvetica-Light" font-size="40.0" fill="#000000" transform="matrix(1.00, 0.00, -0.00, -1.00, 605.4, 676.0)">e</text><text xml:space="preserve" font-family="Helvetica-Light" font-size="40.0" fill="#000000" transform="matrix(1.00, 0.00, -0.00, -1.00, 627.7, 676.0)">r</text><text xml:space="preserve" font-family="Helvetica-Light" font-size="40.0" fill="#000000" transform="matrix(1.00, 0.00, -0.00, -1.00, 641.7, 676.0)">n</text><text xml:space="preserve" font-family="Helvetica-Light" font-size="40.0" fill="#000000" transform="matrix(1.00, 0.00, -0.00, -1.00, 664.0, 676.0)">a</text><text xml:space="preserve" font-family="Helvetica-Light" font-size="40.0" fill="#000000" transform="matrix(1.00, 0.00, -0.00, -1.00, 686.2, 676.0)">n</text><text xml:space="preserve" font-family="Helvetica-Light" font-size="40.0" fill="#000000" transform="matrix(1.00, 0.00, -0.00, -1.00, 708.4, 676.0)">c</text><text xml:space="preserve" font-family="Helvetica-Light" font-size="40.0" fill="#000000" transform="matrix(1.00, 0.00, -0.00, -1.00, 730.7, 676.0)">e</text><g><clipPath id="clip-164"><path d="M 674.7 250.9 L 813.7 250.9 L 813.7 411.0 L 674.7 411.0 Z M 674.7 250.9 "></path></clipPath><g clip-path="url(#clip-164)"><path d="M 77.9 0.0 L 145.4 39.0 L 145.4 116.9 L 77.9 155.8 L 10.4 116.9 L 10.4 39.0 Z M 77.9 0.0 " fill="none" stroke="#85878C" stroke-width="2.00" transform="matrix(1.00, 0.00, 0.00, -1.00, 666.3, 408.8)"></path></g></g><g><clipPath id="clip-165"><path d="M 674.9 328.0 L 828.1 328.0 L 828.1 373.3 L 674.9 373.3 Z M 674.9 328.0 "></path></clipPath><g clip-path="url(#clip-165)"><text xml:space="preserve" font-family="Helvetica-Light" font-size="20.0" fill="#000000" transform="matrix(1.00, 0.00, -0.00, -1.00, 681.0, 343.0)">C</text><text xml:space="preserve" font-family="Helvetica-Light" font-size="20.0" fill="#000000" transform="matrix(1.00, 0.00, -0.00, -1.00, 695.4, 343.0)">o</text><text xml:space="preserve" font-family="Helvetica-Light" font-size="20.0" fill="#000000" transform="matrix(1.00, 0.00, -0.00, -1.00, 706.6, 343.0)">m</text><text xml:space="preserve" font-family="Helvetica-Light" font-size="20.0" fill="#000000" transform="matrix(1.00, 0.00, -0.00, -1.00, 723.2, 343.0)">m</text><text xml:space="preserve" font-family="Helvetica-Light" font-size="20.0" fill="#000000" transform="matrix(1.00, 0.00, -0.00, -1.00, 739.9, 343.0)">u</text><text xml:space="preserve" font-family="Helvetica-Light" font-size="20.0" fill="#000000" transform="matrix(1.00, 0.00, -0.00, -1.00, 751.0, 343.0)">n</text><text xml:space="preserve" font-family="Helvetica-Light" font-size="20.0" fill="#000000" transform="matrix(1.00, 0.00, -0.00, -1.00, 762.1, 343.0)">i</text><text xml:space="preserve" font-family="Helvetica-Light" font-size="20.0" fill="#000000" transform="matrix(1.00, 0.00, -0.00, -1.00, 766.6, 343.0)">c</text><text xml:space="preserve" font-family="Helvetica-Light" font-size="20.0" fill="#000000" transform="matrix(1.00, 0.00, -0.00, -1.00, 777.7, 343.0)">a</text><text xml:space="preserve" font-family="Helvetica-Light" font-size="20.0" fill="#000000" transform="matrix(1.00, 0.00, -0.00, -1.00, 788.8, 343.0)">t</text><text xml:space="preserve" font-family="Helvetica-Light" font-size="20.0" fill="#000000" transform="matrix(1.00, 0.00, -0.00, -1.00, 794.4, 343.0)">i</text><text xml:space="preserve" font-family="Helvetica-Light" font-size="20.0" fill="#000000" transform="matrix(1.00, 0.00, -0.00, -1.00, 798.8, 343.0)">o</text><text xml:space="preserve" font-family="Helvetica-Light" font-size="20.0" fill="#000000" transform="matrix(1.00, 0.00, -0.00, -1.00, 809.9, 343.0)">n</text></g></g><image xlink:href="../../64430E65-70BA-43D4-8DCC-0C76D445A3BC/assets/C3A01863F1DA83F31C141953711BB2FF.png" width="91.00" height="45.00" transform="matrix(0.99, 0.00, -0.00, -1.02, 828.0, 338.0)"></image><image xlink:href="../../64430E65-70BA-43D4-8DCC-0C76D445A3BC/assets/E632323D473A10E6026AB85E6BA235AE.jpeg" width="123.00" height="69.00" transform="matrix(0.99, 0.00, -0.00, -1.00, 552.0, 587.0)"></image><image xlink:href="../../9DD55818-20E3-4E73-8922-43037A55DAA2/assets/B6E328274EA7399255348C83C28ED7FB.png" width="54.00" height="56.00" transform="matrix(1.20, 0.00, -0.00, -1.21, 814.0, 304.0)"></image></g></svg>