<?xml version="1.0" encoding="UTF-8" standalone="no"?><svg xmlns="http://www.w3.org/2000/svg" xmlns:xlink="http://www.w3.org/1999/xlink" clip-rule="evenodd" stroke-miterlimit="4.00" viewBox="0 0 1024 768"><desc>SVG generated by Keynote</desc><defs></defs><g transform="matrix(1.00, 0.00, -0.00, -1.00, 0.0, 768.0)"><path d="M 0.0 768.0 L 1024.0 768.0 L 1024.0 0.0 L 0.0 0.0 Z M 0.0 768.0 " fill="#FEFFFF"></path><image xlink:href="B008E1CE1E71BE1912B04FB8D678D09C.png" width="88.00" height="91.00" transform="matrix(1.70, 0.00, -0.00, -1.69, 437.0, 436.0)"></image><text xml:space="preserve" font-family="Helvetica-Light" font-size="50.0" fill="#000000" transform="matrix(1.00, 0.00, -0.00, -1.00, 303.0, 548.0)">T</text><text xml:space="preserve" font-family="Helvetica-Light" font-size="50.0" fill="#000000" transform="matrix(1.00, 0.00, -0.00, -1.00, 326.6, 548.0)">y</text><text xml:space="preserve" font-family="Helvetica-Light" font-size="50.0" fill="#000000" transform="matrix(1.00, 0.00, -0.00, -1.00, 351.6, 548.0)">p</text><text xml:space="preserve" font-family="Helvetica-Light" font-size="50.0" fill="#000000" transform="matrix(1.00, 0.00, -0.00, -1.00, 382.1, 548.0)">i</text><text xml:space="preserve" font-family="Helvetica-Light" font-size="50.0" fill="#000000" transform="matrix(1.00, 0.00, -0.00, -1.00, 393.2, 548.0)">c</text><text xml:space="preserve" font-family="Helvetica-Light" font-size="50.0" fill="#000000" transform="matrix(1.00, 0.00, -0.00, -1.00, 421.1, 548.0)">a</text><text xml:space="preserve" font-family="Helvetica-Light" font-size="50.0" fill="#000000" transform="matrix(1.00, 0.00, -0.00, -1.00, 448.9, 548.0)">l</text><text xml:space="preserve" font-family="Helvetica-Light" font-size="50.0" fill="#000000" transform="matrix(1.00, 0.00, -0.00, -1.00, 459.9, 548.0)"> </text><text xml:space="preserve" font-family="Helvetica-Light" font-size="50.0" fill="#000000" transform="matrix(1.00, 0.00, -0.00, -1.00, 473.9, 548.0)">a</text><text xml:space="preserve" font-family="Helvetica-Light" font-size="50.0" fill="#000000" transform="matrix(1.00, 0.00, -0.00, -1.00, 501.6, 548.0)">p</text><text xml:space="preserve" font-family="Helvetica-Light" font-size="50.0" fill="#000000" transform="matrix(1.00, 0.00, -0.00, -1.00, 532.2, 548.0)">p</text><text xml:space="preserve" font-family="Helvetica-Light" font-size="50.0" fill="#000000" transform="matrix(1.00, 0.00, -0.00, -1.00, 562.8, 548.0)">l</text><text xml:space="preserve" font-family="Helvetica-Light" font-size="50.0" fill="#000000" transform="matrix(1.00, 0.00, -0.00, -1.00, 573.9, 548.0)">i</text><text xml:space="preserve" font-family="Helvetica-Light" font-size="50.0" fill="#000000" transform="matrix(1.00, 0.00, -0.00, -1.00, 585.0, 548.0)">c</text><text xml:space="preserve" font-family="Helvetica-Light" font-size="50.0" fill="#000000" transform="matrix(1.00, 0.00, -0.00, -1.00, 612.8, 548.0)">a</text><text xml:space="preserve" font-family="Helvetica-Light" font-size="50.0" fill="#000000" transform="matrix(1.00, 0.00, -0.00, -1.00, 640.6, 548.0)">t</text><text xml:space="preserve" font-family="Helvetica-Light" font-size="50.0" fill="#000000" transform="matrix(1.00, 0.00, -0.00, -1.00, 654.5, 548.0)">i</text><text xml:space="preserve" font-family="Helvetica-Light" font-size="50.0" fill="#000000" transform="matrix(1.00, 0.00, -0.00, -1.00, 665.6, 548.0)">o</text><text xml:space="preserve" font-family="Helvetica-Light" font-size="50.0" fill="#000000" transform="matrix(1.00, 0.00, -0.00, -1.00, 693.4, 548.0)">n</text><text xml:space="preserve" font-family="Helvetica-Light" font-size="15.0" fill="#000000" transform="matrix(1.00, 0.00, -0.00, -1.00, 16.0, 36.0)">W</text><text xml:space="preserve" font-family="Helvetica-Light" font-size="15.0" fill="#000000" transform="matrix(1.00, 0.00, -0.00, -1.00, 29.3, 36.0)">h</text><text xml:space="preserve" font-family="Helvetica-Light" font-size="15.0" fill="#000000" transform="matrix(1.00, 0.00, -0.00, -1.00, 37.7, 36.0)">a</text><text xml:space="preserve" font-family="Helvetica-Light" font-size="15.0" fill="#000000" transform="matrix(1.00, 0.00, -0.00, -1.00, 46.0, 36.0)">t</text><text xml:space="preserve" font-family="Helvetica-Light" font-size="15.0" fill="#000000" transform="matrix(1.00, 0.00, -0.00, -1.00, 50.2, 36.0)"> </text><text xml:space="preserve" font-family="Helvetica-Light" font-size="15.0" fill="#000000" transform="matrix(1.00, 0.00, -0.00, -1.00, 54.4, 36.0)">a</text><text xml:space="preserve" font-family="Helvetica-Light" font-size="15.0" fill="#000000" transform="matrix(1.00, 0.00, -0.00, -1.00, 62.7, 36.0)">r</text><text xml:space="preserve" font-family="Helvetica-Light" font-size="15.0" fill="#000000" transform="matrix(1.00, 0.00, -0.00, -1.00, 67.4, 36.0)">e</text><text xml:space="preserve" font-family="Helvetica-Light" font-size="15.0" fill="#000000" transform="matrix(1.00, 0.00, -0.00, -1.00, 75.8, 36.0)"> </text><text xml:space="preserve" font-family="Helvetica-Light" font-size="15.0" fill="#000000" transform="matrix(1.00, 0.00, -0.00, -1.00, 79.9, 36.0)">M</text><text xml:space="preserve" font-family="Helvetica-Light" font-size="15.0" fill="#000000" transform="matrix(1.00, 0.00, -0.00, -1.00, 92.4, 36.0)">i</text><text xml:space="preserve" font-family="Helvetica-Light" font-size="15.0" fill="#000000" transform="matrix(1.00, 0.00, -0.00, -1.00, 95.8, 36.0)">c</text><text xml:space="preserve" font-family="Helvetica-Light" font-size="15.0" fill="#000000" transform="matrix(1.00, 0.00, -0.00, -1.00, 104.1, 36.0)">r</text><text xml:space="preserve" font-family="Helvetica-Light" font-size="15.0" fill="#000000" transform="matrix(1.00, 0.00, -0.00, -1.00, 108.8, 36.0)">o</text><text xml:space="preserve" font-family="Helvetica-Light" font-size="15.0" fill="#000000" transform="matrix(1.00, 0.00, -0.00, -1.00, 117.2, 36.0)">s</text><text xml:space="preserve" font-family="Helvetica-Light" font-size="15.0" fill="#000000" transform="matrix(1.00, 0.00, -0.00, -1.00, 124.7, 36.0)">e</text><text xml:space="preserve" font-family="Helvetica-Light" font-size="15.0" fill="#000000" transform="matrix(1.00, 0.00, -0.00, -1.00, 133.0, 36.0)">r</text><text xml:space="preserve" font-family="Helvetica-Light" font-size="15.0" fill="#000000" transform="matrix(1.00, 0.00, -0.00, -1.00, 138.0, 36.0)">v</text><text xml:space="preserve" font-family="Helvetica-Light" font-size="15.0" fill="#000000" transform="matrix(1.00, 0.00, -0.00, -1.00, 145.5, 36.0)">i</text><text xml:space="preserve" font-family="Helvetica-Light" font-size="15.0" fill="#000000" transform="matrix(1.00, 0.00, -0.00, -1.00, 148.8, 36.0)">c</text><text xml:space="preserve" font-family="Helvetica-Light" font-size="15.0" fill="#000000" transform="matrix(1.00, 0.00, -0.00, -1.00, 157.2, 36.0)">e</text><text xml:space="preserve" font-family="Helvetica-Light" font-size="15.0" fill="#000000" transform="matrix(1.00, 0.00, -0.00, -1.00, 165.5, 36.0)">s</text><text xml:space="preserve" font-family="Helvetica-Light" font-size="15.0" fill="#000000" transform="matrix(1.00, 0.00, -0.00, -1.00, 173.0, 36.0)">?</text></g></svg>