<?xml version="1.0" encoding="UTF-8" standalone="no"?><svg xmlns="http://www.w3.org/2000/svg" xmlns:xlink="http://www.w3.org/1999/xlink" clip-rule="evenodd" stroke-miterlimit="4.00" viewBox="0 0 1024 768"><desc>SVG generated by Keynote</desc><defs></defs><g transform="matrix(1.00, 0.00, -0.00, -1.00, 0.0, 768.0)"><path d="M 0.0 768.0 L 1024.0 768.0 L 1024.0 0.0 L 0.0 0.0 Z M 0.0 768.0 " fill="#FEFFFF"></path><image xlink:href="66BBACC5A45C6D10993B93C204E505A0.png" width="53.00" height="52.00" transform="matrix(1.62, 0.00, -0.00, -1.62, 548.0, 527.0)"></image><image xlink:href="56B4AFD4E04128EC6F87A8B6E51276CF.png" width="55.00" height="55.00" transform="matrix(1.56, 0.00, -0.00, -1.56, 359.0, 427.0)"></image><image xlink:href="5AB61A7CF66A738C2C4E5E7F9EF367AE.png" width="53.00" height="54.00" transform="matrix(1.62, 0.00, -0.00, -1.61, 548.0, 336.0)"></image><text xml:space="preserve" font-family="Helvetica-Light" font-size="50.0" fill="#000000" transform="matrix(1.00, 0.00, -0.00, -1.00, 357.0, 629.0)">M</text><text xml:space="preserve" font-family="Helvetica-Light" font-size="50.0" fill="#000000" transform="matrix(1.00, 0.00, -0.00, -1.00, 398.6, 629.0)">i</text><text xml:space="preserve" font-family="Helvetica-Light" font-size="50.0" fill="#000000" transform="matrix(1.00, 0.00, -0.00, -1.00, 409.8, 629.0)">c</text><text xml:space="preserve" font-family="Helvetica-Light" font-size="50.0" fill="#000000" transform="matrix(1.00, 0.00, -0.00, -1.00, 437.6, 629.0)">r</text><text xml:space="preserve" font-family="Helvetica-Light" font-size="50.0" fill="#000000" transform="matrix(1.00, 0.00, -0.00, -1.00, 453.3, 629.0)">o</text><text xml:space="preserve" font-family="Helvetica-Light" font-size="50.0" fill="#000000" transform="matrix(1.00, 0.00, -0.00, -1.00, 481.1, 629.0)">s</text><text xml:space="preserve" font-family="Helvetica-Light" font-size="50.0" fill="#000000" transform="matrix(1.00, 0.00, -0.00, -1.00, 506.1, 629.0)">e</text><text xml:space="preserve" font-family="Helvetica-Light" font-size="50.0" fill="#000000" transform="matrix(1.00, 0.00, -0.00, -1.00, 533.9, 629.0)">r</text><text xml:space="preserve" font-family="Helvetica-Light" font-size="50.0" fill="#000000" transform="matrix(1.00, 0.00, -0.00, -1.00, 550.6, 629.0)">v</text><text xml:space="preserve" font-family="Helvetica-Light" font-size="50.0" fill="#000000" transform="matrix(1.00, 0.00, -0.00, -1.00, 575.6, 629.0)">i</text><text xml:space="preserve" font-family="Helvetica-Light" font-size="50.0" fill="#000000" transform="matrix(1.00, 0.00, -0.00, -1.00, 586.7, 629.0)">c</text><text xml:space="preserve" font-family="Helvetica-Light" font-size="50.0" fill="#000000" transform="matrix(1.00, 0.00, -0.00, -1.00, 614.5, 629.0)">e</text><text xml:space="preserve" font-family="Helvetica-Light" font-size="50.0" fill="#000000" transform="matrix(1.00, 0.00, -0.00, -1.00, 642.2, 629.0)">s</text><text xml:space="preserve" font-family="HelveticaNeue" font-size="27.0" fill="#000000" transform="matrix(1.00, 0.00, -0.00, -1.00, 546.0, 125.0)">*</text><text xml:space="preserve" font-family="HelveticaNeue" font-size="27.0" fill="#000000" transform="matrix(1.00, 0.00, -0.00, -1.00, 555.5, 125.0)"> </text><text xml:space="preserve" font-family="HelveticaNeue" font-size="27.0" fill="#000000" transform="matrix(1.00, 0.00, -0.00, -1.00, 563.0, 125.0)">E</text><text xml:space="preserve" font-family="HelveticaNeue" font-size="27.0" fill="#000000" transform="matrix(1.00, 0.00, -0.00, -1.00, 579.5, 125.0)">a</text><text xml:space="preserve" font-family="HelveticaNeue" font-size="27.0" fill="#000000" transform="matrix(1.00, 0.00, -0.00, -1.00, 594.0, 125.0)">c</text><text xml:space="preserve" font-family="HelveticaNeue" font-size="27.0" fill="#000000" transform="matrix(1.00, 0.00, -0.00, -1.00, 608.5, 125.0)">h</text><text xml:space="preserve" font-family="HelveticaNeue" font-size="27.0" fill="#000000" transform="matrix(1.00, 0.00, -0.00, -1.00, 623.5, 125.0)"> </text><text xml:space="preserve" font-family="HelveticaNeue" font-size="27.0" fill="#000000" transform="matrix(1.00, 0.00, -0.00, -1.00, 631.0, 125.0)">e</text><text xml:space="preserve" font-family="HelveticaNeue" font-size="27.0" fill="#000000" transform="matrix(1.00, 0.00, -0.00, -1.00, 645.5, 125.0)">l</text><text xml:space="preserve" font-family="HelveticaNeue" font-size="27.0" fill="#000000" transform="matrix(1.00, 0.00, -0.00, -1.00, 651.5, 125.0)">e</text><text xml:space="preserve" font-family="HelveticaNeue" font-size="27.0" fill="#000000" transform="matrix(1.00, 0.00, -0.00, -1.00, 666.0, 125.0)">m</text><text xml:space="preserve" font-family="HelveticaNeue" font-size="27.0" fill="#000000" transform="matrix(1.00, 0.00, -0.00, -1.00, 689.0, 125.0)">e</text><text xml:space="preserve" font-family="HelveticaNeue" font-size="27.0" fill="#000000" transform="matrix(1.00, 0.00, -0.00, -1.00, 703.5, 125.0)">n</text><text xml:space="preserve" font-family="HelveticaNeue" font-size="27.0" fill="#000000" transform="matrix(1.00, 0.00, -0.00, -1.00, 718.6, 125.0)">t</text><text xml:space="preserve" font-family="HelveticaNeue" font-size="27.0" fill="#000000" transform="matrix(1.00, 0.00, -0.00, -1.00, 727.1, 125.0)"> </text><text xml:space="preserve" font-family="HelveticaNeue" font-size="27.0" fill="#000000" transform="matrix(1.00, 0.00, -0.00, -1.00, 734.6, 125.0)">a</text><text xml:space="preserve" font-family="HelveticaNeue" font-size="27.0" fill="#000000" transform="matrix(1.00, 0.00, -0.00, -1.00, 749.1, 125.0)">s</text><text xml:space="preserve" font-family="HelveticaNeue" font-size="27.0" fill="#000000" transform="matrix(1.00, 0.00, -0.00, -1.00, 762.6, 125.0)"> </text><text xml:space="preserve" font-family="HelveticaNeue" font-size="27.0" fill="#000000" transform="matrix(1.00, 0.00, -0.00, -1.00, 770.1, 125.0)">i</text><text xml:space="preserve" font-family="HelveticaNeue" font-size="27.0" fill="#000000" transform="matrix(1.00, 0.00, -0.00, -1.00, 776.1, 125.0)">t</text><text xml:space="preserve" font-family="HelveticaNeue" font-size="27.0" fill="#000000" transform="matrix(1.00, 0.00, -0.00, -1.00, 784.6, 125.0)">s</text><text xml:space="preserve" font-family="HelveticaNeue" font-size="27.0" fill="#000000" transform="matrix(1.00, 0.00, -0.00, -1.00, 798.1, 125.0)"> </text><text xml:space="preserve" font-family="HelveticaNeue" font-size="27.0" fill="#000000" transform="matrix(1.00, 0.00, -0.00, -1.00, 805.6, 125.0)">o</text><text xml:space="preserve" font-family="HelveticaNeue" font-size="27.0" fill="#000000" transform="matrix(1.00, 0.00, -0.00, -1.00, 821.1, 125.0)">w</text><text xml:space="preserve" font-family="HelveticaNeue" font-size="27.0" fill="#000000" transform="matrix(1.00, 0.00, -0.00, -1.00, 841.5, 125.0)">n</text><text xml:space="preserve" font-family="HelveticaNeue" font-size="27.0" fill="#000000" transform="matrix(1.00, 0.00, -0.00, -1.00, 856.6, 125.0)"> </text><text xml:space="preserve" font-family="HelveticaNeue" font-size="27.0" fill="#000000" transform="matrix(1.00, 0.00, -0.00, -1.00, 864.1, 125.0)">s</text><text xml:space="preserve" font-family="HelveticaNeue" font-size="27.0" fill="#000000" transform="matrix(1.00, 0.00, -0.00, -1.00, 877.6, 125.0)">e</text><text xml:space="preserve" font-family="HelveticaNeue" font-size="27.0" fill="#000000" transform="matrix(1.00, 0.00, -0.00, -1.00, 892.1, 125.0)">r</text><text xml:space="preserve" font-family="HelveticaNeue" font-size="27.0" fill="#000000" transform="matrix(1.00, 0.00, -0.00, -1.00, 901.0, 125.0)">v</text><text xml:space="preserve" font-family="HelveticaNeue" font-size="27.0" fill="#000000" transform="matrix(1.00, 0.00, -0.00, -1.00, 914.5, 125.0)">i</text><text xml:space="preserve" font-family="HelveticaNeue" font-size="27.0" fill="#000000" transform="matrix(1.00, 0.00, -0.00, -1.00, 920.5, 125.0)">c</text><text xml:space="preserve" font-family="HelveticaNeue" font-size="27.0" fill="#000000" transform="matrix(1.00, 0.00, -0.00, -1.00, 935.0, 125.0)">e</text><text xml:space="preserve" font-family="Helvetica-Light" font-size="15.0" fill="#000000" transform="matrix(1.00, 0.00, -0.00, -1.00, 16.0, 35.0)">W</text><text xml:space="preserve" font-family="Helvetica-Light" font-size="15.0" fill="#000000" transform="matrix(1.00, 0.00, -0.00, -1.00, 29.3, 35.0)">h</text><text xml:space="preserve" font-family="Helvetica-Light" font-size="15.0" fill="#000000" transform="matrix(1.00, 0.00, -0.00, -1.00, 37.7, 35.0)">a</text><text xml:space="preserve" font-family="Helvetica-Light" font-size="15.0" fill="#000000" transform="matrix(1.00, 0.00, -0.00, -1.00, 46.0, 35.0)">t</text><text xml:space="preserve" font-family="Helvetica-Light" font-size="15.0" fill="#000000" transform="matrix(1.00, 0.00, -0.00, -1.00, 50.2, 35.0)"> </text><text xml:space="preserve" font-family="Helvetica-Light" font-size="15.0" fill="#000000" transform="matrix(1.00, 0.00, -0.00, -1.00, 54.4, 35.0)">a</text><text xml:space="preserve" font-family="Helvetica-Light" font-size="15.0" fill="#000000" transform="matrix(1.00, 0.00, -0.00, -1.00, 62.7, 35.0)">r</text><text xml:space="preserve" font-family="Helvetica-Light" font-size="15.0" fill="#000000" transform="matrix(1.00, 0.00, -0.00, -1.00, 67.4, 35.0)">e</text><text xml:space="preserve" font-family="Helvetica-Light" font-size="15.0" fill="#000000" transform="matrix(1.00, 0.00, -0.00, -1.00, 75.8, 35.0)"> </text><text xml:space="preserve" font-family="Helvetica-Light" font-size="15.0" fill="#000000" transform="matrix(1.00, 0.00, -0.00, -1.00, 79.9, 35.0)">M</text><text xml:space="preserve" font-family="Helvetica-Light" font-size="15.0" fill="#000000" transform="matrix(1.00, 0.00, -0.00, -1.00, 92.4, 35.0)">i</text><text xml:space="preserve" font-family="Helvetica-Light" font-size="15.0" fill="#000000" transform="matrix(1.00, 0.00, -0.00, -1.00, 95.8, 35.0)">c</text><text xml:space="preserve" font-family="Helvetica-Light" font-size="15.0" fill="#000000" transform="matrix(1.00, 0.00, -0.00, -1.00, 104.1, 35.0)">r</text><text xml:space="preserve" font-family="Helvetica-Light" font-size="15.0" fill="#000000" transform="matrix(1.00, 0.00, -0.00, -1.00, 108.8, 35.0)">o</text><text xml:space="preserve" font-family="Helvetica-Light" font-size="15.0" fill="#000000" transform="matrix(1.00, 0.00, -0.00, -1.00, 117.2, 35.0)">s</text><text xml:space="preserve" font-family="Helvetica-Light" font-size="15.0" fill="#000000" transform="matrix(1.00, 0.00, -0.00, -1.00, 124.7, 35.0)">e</text><text xml:space="preserve" font-family="Helvetica-Light" font-size="15.0" fill="#000000" transform="matrix(1.00, 0.00, -0.00, -1.00, 133.0, 35.0)">r</text><text xml:space="preserve" font-family="Helvetica-Light" font-size="15.0" fill="#000000" transform="matrix(1.00, 0.00, -0.00, -1.00, 138.0, 35.0)">v</text><text xml:space="preserve" font-family="Helvetica-Light" font-size="15.0" fill="#000000" transform="matrix(1.00, 0.00, -0.00, -1.00, 145.5, 35.0)">i</text><text xml:space="preserve" font-family="Helvetica-Light" font-size="15.0" fill="#000000" transform="matrix(1.00, 0.00, -0.00, -1.00, 148.8, 35.0)">c</text><text xml:space="preserve" font-family="Helvetica-Light" font-size="15.0" fill="#000000" transform="matrix(1.00, 0.00, -0.00, -1.00, 157.2, 35.0)">e</text><text xml:space="preserve" font-family="Helvetica-Light" font-size="15.0" fill="#000000" transform="matrix(1.00, 0.00, -0.00, -1.00, 165.5, 35.0)">s</text><text xml:space="preserve" font-family="Helvetica-Light" font-size="15.0" fill="#000000" transform="matrix(1.00, 0.00, -0.00, -1.00, 173.0, 35.0)">?</text></g></svg>