<?xml version="1.0" encoding="UTF-8" standalone="no"?><svg xmlns="http://www.w3.org/2000/svg" xmlns:xlink="http://www.w3.org/1999/xlink" clip-rule="evenodd" stroke-miterlimit="4.00" viewBox="0 0 407 23"><desc>SVG generated by Keynote</desc><defs></defs><g transform="matrix(1.00, 0.00, -0.00, -1.00, 0.0, 23.0)"><text xml:space="preserve" font-family="HelveticaNeue" font-size="27.0" fill="#000000" transform="matrix(1.00, 0.00, -0.00, -1.00, 1.0, 2.0)">*</text><text xml:space="preserve" font-family="HelveticaNeue" font-size="27.0" fill="#000000" transform="matrix(1.00, 0.00, -0.00, -1.00, 10.5, 2.0)"> </text><text xml:space="preserve" font-family="HelveticaNeue" font-size="27.0" fill="#000000" transform="matrix(1.00, 0.00, -0.00, -1.00, 18.0, 2.0)">E</text><text xml:space="preserve" font-family="HelveticaNeue" font-size="27.0" fill="#000000" transform="matrix(1.00, 0.00, -0.00, -1.00, 34.5, 2.0)">a</text><text xml:space="preserve" font-family="HelveticaNeue" font-size="27.0" fill="#000000" transform="matrix(1.00, 0.00, -0.00, -1.00, 49.0, 2.0)">c</text><text xml:space="preserve" font-family="HelveticaNeue" font-size="27.0" fill="#000000" transform="matrix(1.00, 0.00, -0.00, -1.00, 63.5, 2.0)">h</text><text xml:space="preserve" font-family="HelveticaNeue" font-size="27.0" fill="#000000" transform="matrix(1.00, 0.00, -0.00, -1.00, 78.5, 2.0)"> </text><text xml:space="preserve" font-family="HelveticaNeue" font-size="27.0" fill="#000000" transform="matrix(1.00, 0.00, -0.00, -1.00, 86.0, 2.0)">e</text><text xml:space="preserve" font-family="HelveticaNeue" font-size="27.0" fill="#000000" transform="matrix(1.00, 0.00, -0.00, -1.00, 100.5, 2.0)">l</text><text xml:space="preserve" font-family="HelveticaNeue" font-size="27.0" fill="#000000" transform="matrix(1.00, 0.00, -0.00, -1.00, 106.5, 2.0)">e</text><text xml:space="preserve" font-family="HelveticaNeue" font-size="27.0" fill="#000000" transform="matrix(1.00, 0.00, -0.00, -1.00, 121.0, 2.0)">m</text><text xml:space="preserve" font-family="HelveticaNeue" font-size="27.0" fill="#000000" transform="matrix(1.00, 0.00, -0.00, -1.00, 144.0, 2.0)">e</text><text xml:space="preserve" font-family="HelveticaNeue" font-size="27.0" fill="#000000" transform="matrix(1.00, 0.00, -0.00, -1.00, 158.5, 2.0)">n</text><text xml:space="preserve" font-family="HelveticaNeue" font-size="27.0" fill="#000000" transform="matrix(1.00, 0.00, -0.00, -1.00, 173.6, 2.0)">t</text><text xml:space="preserve" font-family="HelveticaNeue" font-size="27.0" fill="#000000" transform="matrix(1.00, 0.00, -0.00, -1.00, 182.1, 2.0)"> </text><text xml:space="preserve" font-family="HelveticaNeue" font-size="27.0" fill="#000000" transform="matrix(1.00, 0.00, -0.00, -1.00, 189.6, 2.0)">a</text><text xml:space="preserve" font-family="HelveticaNeue" font-size="27.0" fill="#000000" transform="matrix(1.00, 0.00, -0.00, -1.00, 204.1, 2.0)">s</text><text xml:space="preserve" font-family="HelveticaNeue" font-size="27.0" fill="#000000" transform="matrix(1.00, 0.00, -0.00, -1.00, 217.6, 2.0)"> </text><text xml:space="preserve" font-family="HelveticaNeue" font-size="27.0" fill="#000000" transform="matrix(1.00, 0.00, -0.00, -1.00, 225.1, 2.0)">i</text><text xml:space="preserve" font-family="HelveticaNeue" font-size="27.0" fill="#000000" transform="matrix(1.00, 0.00, -0.00, -1.00, 231.1, 2.0)">t</text><text xml:space="preserve" font-family="HelveticaNeue" font-size="27.0" fill="#000000" transform="matrix(1.00, 0.00, -0.00, -1.00, 239.6, 2.0)">s</text><text xml:space="preserve" font-family="HelveticaNeue" font-size="27.0" fill="#000000" transform="matrix(1.00, 0.00, -0.00, -1.00, 253.1, 2.0)"> </text><text xml:space="preserve" font-family="HelveticaNeue" font-size="27.0" fill="#000000" transform="matrix(1.00, 0.00, -0.00, -1.00, 260.6, 2.0)">o</text><text xml:space="preserve" font-family="HelveticaNeue" font-size="27.0" fill="#000000" transform="matrix(1.00, 0.00, -0.00, -1.00, 276.1, 2.0)">w</text><text xml:space="preserve" font-family="HelveticaNeue" font-size="27.0" fill="#000000" transform="matrix(1.00, 0.00, -0.00, -1.00, 296.5, 2.0)">n</text><text xml:space="preserve" font-family="HelveticaNeue" font-size="27.0" fill="#000000" transform="matrix(1.00, 0.00, -0.00, -1.00, 311.6, 2.0)"> </text><text xml:space="preserve" font-family="HelveticaNeue" font-size="27.0" fill="#000000" transform="matrix(1.00, 0.00, -0.00, -1.00, 319.1, 2.0)">s</text><text xml:space="preserve" font-family="HelveticaNeue" font-size="27.0" fill="#000000" transform="matrix(1.00, 0.00, -0.00, -1.00, 332.6, 2.0)">e</text><text xml:space="preserve" font-family="HelveticaNeue" font-size="27.0" fill="#000000" transform="matrix(1.00, 0.00, -0.00, -1.00, 347.1, 2.0)">r</text><text xml:space="preserve" font-family="HelveticaNeue" font-size="27.0" fill="#000000" transform="matrix(1.00, 0.00, -0.00, -1.00, 356.0, 2.0)">v</text><text xml:space="preserve" font-family="HelveticaNeue" font-size="27.0" fill="#000000" transform="matrix(1.00, 0.00, -0.00, -1.00, 369.5, 2.0)">i</text><text xml:space="preserve" font-family="HelveticaNeue" font-size="27.0" fill="#000000" transform="matrix(1.00, 0.00, -0.00, -1.00, 375.5, 2.0)">c</text><text xml:space="preserve" font-family="HelveticaNeue" font-size="27.0" fill="#000000" transform="matrix(1.00, 0.00, -0.00, -1.00, 390.0, 2.0)">e</text></g></svg>