<?xml version="1.0" encoding="UTF-8" standalone="no"?><svg xmlns="http://www.w3.org/2000/svg" xmlns:xlink="http://www.w3.org/1999/xlink" clip-rule="evenodd" stroke-miterlimit="4.00" viewBox="0 0 536 333"><desc>SVG generated by Keynote</desc><defs></defs><g transform="matrix(1.00, 0.00, -0.00, -1.00, 0.0, 333.0)"><g><clipPath id="clip-183"><path d="M 227.9 322.0 L 256.9 322.0 L 256.9 332.1 L 227.9 332.1 Z M 227.9 322.0 "></path></clipPath><g clip-path="url(#clip-183)"><path d="M 251.2 329.2 C 256.1 328.0 256.1 326.1 251.2 324.9 C 246.3 323.7 238.4 323.7 233.6 324.9 C 228.7 326.1 228.7 328.0 233.6 329.2 C 238.4 330.4 246.3 330.4 251.2 329.2 Z M 251.2 329.2 " fill="#FEFFFF"></path><path d="M 21.3 0.9 C 26.2 2.1 26.2 4.0 21.3 5.2 C 16.4 6.4 8.5 6.4 3.7 5.2 C -1.2 4.0 -1.2 2.1 3.7 0.9 C 8.5 -0.3 16.4 -0.3 21.3 0.9 Z M 21.3 0.9 " fill="none" stroke="#85878C" stroke-width="2.00" transform="matrix(1.00, 0.00, 0.00, -1.00, 229.9, 330.1)"></path></g></g><g><clipPath id="clip-184"><path d="M 227.6 302.1 L 257.2 302.1 L 257.2 328.2 L 227.6 328.2 Z M 227.6 302.1 "></path></clipPath><g clip-path="url(#clip-184)"><path d="M 0.0 0.4 L 0.0 19.8 L 3.4 21.6 L 7.4 22.5 L 12.0 23.1 L 16.6 22.8 L 20.9 21.8 L 25.5 19.7 L 25.5 0.0 " fill="none" stroke="#898C92" stroke-width="2.00" transform="matrix(1.00, 0.00, 0.00, -1.00, 229.6, 327.2)"></path></g></g><g><clipPath id="clip-185"><path d="M 505.9 108.6 L 534.9 108.6 L 534.9 118.7 L 505.9 118.7 Z M 505.9 108.6 "></path></clipPath><g clip-path="url(#clip-185)"><path d="M 529.2 115.8 C 534.1 114.6 534.1 112.7 529.2 111.5 C 524.4 110.3 516.5 110.3 511.6 111.5 C 506.7 112.7 506.7 114.6 511.6 115.8 C 516.5 117.0 524.4 117.0 529.2 115.8 Z M 529.2 115.8 " fill="#FEFFFF"></path><path d="M 21.3 0.9 C 26.2 2.1 26.2 4.0 21.3 5.2 C 16.4 6.4 8.5 6.4 3.7 5.2 C -1.2 4.0 -1.2 2.1 3.7 0.9 C 8.5 -0.3 16.4 -0.3 21.3 0.9 Z M 21.3 0.9 " fill="none" stroke="#85878C" stroke-width="2.00" transform="matrix(1.00, 0.00, 0.00, -1.00, 507.9, 116.7)"></path></g></g><g><clipPath id="clip-186"><path d="M 505.6 88.7 L 535.2 88.7 L 535.2 114.8 L 505.6 114.8 Z M 505.6 88.7 "></path></clipPath><g clip-path="url(#clip-186)"><path d="M 0.0 0.4 L 0.0 19.8 L 3.4 21.6 L 7.4 22.5 L 12.0 23.1 L 16.6 22.8 L 20.9 21.8 L 25.5 19.7 L 25.5 0.0 " fill="none" stroke="#898C92" stroke-width="2.00" transform="matrix(1.00, 0.00, 0.00, -1.00, 507.6, 113.8)"></path></g></g><g><clipPath id="clip-187"><path d="M 1.1 19.9 L 30.1 19.9 L 30.1 30.1 L 1.1 30.1 Z M 1.1 19.9 "></path></clipPath><g clip-path="url(#clip-187)"><path d="M 24.4 27.2 C 29.3 26.0 29.3 24.0 24.4 22.8 C 19.6 21.6 11.7 21.6 6.8 22.8 C 1.9 24.0 1.9 26.0 6.8 27.2 C 11.7 28.4 19.6 28.4 24.4 27.2 Z M 24.4 27.2 " fill="#FEFFFF"></path><path d="M 21.3 0.9 C 26.2 2.1 26.2 4.0 21.3 5.2 C 16.4 6.4 8.5 6.4 3.7 5.2 C -1.2 4.0 -1.2 2.1 3.7 0.9 C 8.5 -0.3 16.4 -0.3 21.3 0.9 Z M 21.3 0.9 " fill="none" stroke="#85878C" stroke-width="2.00" transform="matrix(1.00, 0.00, 0.00, -1.00, 3.1, 28.1)"></path></g></g><g><clipPath id="clip-188"><path d="M 0.8 0.1 L 30.4 0.1 L 30.4 26.1 L 0.8 26.1 Z M 0.8 0.1 "></path></clipPath><g clip-path="url(#clip-188)"><path d="M 0.0 0.4 L 0.0 19.8 L 3.4 21.6 L 7.4 22.5 L 12.0 23.1 L 16.6 22.8 L 20.9 21.8 L 25.5 19.7 L 25.5 0.0 " fill="none" stroke="#898C92" stroke-width="2.00" transform="matrix(1.00, 0.00, 0.00, -1.00, 2.8, 25.1)"></path></g></g></g></svg>