<?xml version="1.0" encoding="UTF-8" standalone="no"?><svg xmlns="http://www.w3.org/2000/svg" xmlns:xlink="http://www.w3.org/1999/xlink" clip-rule="evenodd" stroke-miterlimit="4.00" viewBox="0 0 255 24"><desc>SVG generated by Keynote</desc><defs></defs><g transform="matrix(1.00, 0.00, -0.00, -1.00, 0.0, 24.0)"><g><clipPath id="clip-114"><path d="M 0.0 0.8 L 255.0 0.8 L 255.0 24.0 L 0.0 24.0 Z M 0.0 0.8 "></path></clipPath><g clip-path="url(#clip-114)"><path d="M 1.3 26.1 L 253.3 26.1 L 253.3 -0.9 L 1.3 -0.9 Z M 1.3 26.1 " fill="#F7F7F8"></path></g></g><text xml:space="preserve" font-family="Monaco" font-size="20.0" fill="#CB2255" transform="matrix(1.00, 0.00, -0.00, -1.00, 1.0, 6.0)">/</text><text xml:space="preserve" font-family="Monaco" font-size="20.0" fill="#CB2255" transform="matrix(1.00, 0.00, -0.00, -1.00, 13.0, 6.0)">i</text><text xml:space="preserve" font-family="Monaco" font-size="20.0" fill="#CB2255" transform="matrix(1.00, 0.00, -0.00, -1.00, 25.0, 6.0)">t</text><text xml:space="preserve" font-family="Monaco" font-size="20.0" fill="#CB2255" transform="matrix(1.00, 0.00, -0.00, -1.00, 37.0, 6.0)">e</text><text xml:space="preserve" font-family="Monaco" font-size="20.0" fill="#CB2255" transform="matrix(1.00, 0.00, -0.00, -1.00, 49.0, 6.0)">m</text><text xml:space="preserve" font-family="Monaco" font-size="20.0" fill="#CB2255" transform="matrix(1.00, 0.00, -0.00, -1.00, 61.0, 6.0)">s</text><text xml:space="preserve" font-family="Monaco" font-size="20.0" fill="#CB2255" transform="matrix(1.00, 0.00, -0.00, -1.00, 73.0, 6.0)">/</text><text xml:space="preserve" font-family="Monaco" font-size="20.0" fill="#CB2255" transform="matrix(1.00, 0.00, -0.00, -1.00, 85.0, 6.0)">i</text><text xml:space="preserve" font-family="Monaco" font-size="20.0" fill="#CB2255" transform="matrix(1.00, 0.00, -0.00, -1.00, 97.0, 6.0)">p</text><text xml:space="preserve" font-family="Monaco" font-size="20.0" fill="#CB2255" transform="matrix(1.00, 0.00, -0.00, -1.00, 109.0, 6.0)">h</text><text xml:space="preserve" font-family="Monaco" font-size="20.0" fill="#CB2255" transform="matrix(1.00, 0.00, -0.00, -1.00, 121.0, 6.0)">o</text><text xml:space="preserve" font-family="Monaco" font-size="20.0" fill="#CB2255" transform="matrix(1.00, 0.00, -0.00, -1.00, 133.0, 6.0)">n</text><text xml:space="preserve" font-family="Monaco" font-size="20.0" fill="#CB2255" transform="matrix(1.00, 0.00, -0.00, -1.00, 145.0, 6.0)">e</text><text xml:space="preserve" font-family="Monaco" font-size="20.0" fill="#CB2255" transform="matrix(1.00, 0.00, -0.00, -1.00, 157.1, 6.0)">-</text><text xml:space="preserve" font-family="Monaco" font-size="20.0" fill="#CB2255" transform="matrix(1.00, 0.00, -0.00, -1.00, 169.1, 6.0)">6</text><text xml:space="preserve" font-family="Monaco" font-size="20.0" fill="#CB2255" transform="matrix(1.00, 0.00, -0.00, -1.00, 181.1, 6.0)">s</text><text xml:space="preserve" font-family="Monaco" font-size="20.0" fill="#CB2255" transform="matrix(1.00, 0.00, -0.00, -1.00, 193.1, 6.0)">-</text><text xml:space="preserve" font-family="Monaco" font-size="20.0" fill="#CB2255" transform="matrix(1.00, 0.00, -0.00, -1.00, 205.1, 6.0)">1</text><text xml:space="preserve" font-family="Monaco" font-size="20.0" fill="#CB2255" transform="matrix(1.00, 0.00, -0.00, -1.00, 217.1, 6.0)">6</text><text xml:space="preserve" font-family="Monaco" font-size="20.0" fill="#CB2255" transform="matrix(1.00, 0.00, -0.00, -1.00, 229.1, 6.0)">g</text><text xml:space="preserve" font-family="Monaco" font-size="20.0" fill="#CB2255" transform="matrix(1.00, 0.00, -0.00, -1.00, 241.1, 6.0)">b</text></g></svg>