<?xml version="1.0" encoding="UTF-8" standalone="no"?><svg xmlns="http://www.w3.org/2000/svg" xmlns:xlink="http://www.w3.org/1999/xlink" clip-rule="evenodd" stroke-miterlimit="4.00" viewBox="0 0 60 392"><desc>SVG generated by Keynote</desc><defs></defs><g transform="matrix(1.00, 0.00, -0.00, -1.00, 0.0, 392.0)"><image xlink:href="FBC1640B48D0F695DDCF25D36944EE84.png" width="57.00" height="389.00" transform="matrix(0.99, 0.00, -0.00, -1.00, 1.5, 390.2)" opacity="0.65"></image><path d="M 25.4 385.2 L 34.4 385.2 C 39.8 385.2 42.5 385.2 45.4 384.3 C 48.6 383.1 51.1 380.6 52.3 377.4 C 53.2 374.5 53.2 371.8 53.2 366.3 L 53.2 25.1 C 53.2 19.7 53.2 16.9 52.3 14.0 C 51.1 10.8 48.6 8.3 45.4 7.1 C 42.5 6.2 39.8 6.2 34.3 6.2 L 25.4 6.2 C 20.0 6.2 17.2 6.2 14.3 7.1 C 11.1 8.3 8.6 10.8 7.4 14.0 C 6.5 16.9 6.5 19.7 6.5 25.2 L 6.5 366.4 C 6.5 371.8 6.5 374.5 7.4 377.4 C 8.6 380.6 11.1 383.1 14.3 384.3 C 17.2 385.2 20.0 385.2 25.5 385.2 Z M 25.4 385.2 " fill="#763E9B"></path></g></svg>