<?xml version="1.0" encoding="UTF-8" standalone="no"?><svg xmlns="http://www.w3.org/2000/svg" xmlns:xlink="http://www.w3.org/1999/xlink" clip-rule="evenodd" stroke-miterlimit="4.00" viewBox="0 0 101 115"><desc>SVG generated by Keynote</desc><defs></defs><g transform="matrix(1.00, 0.00, -0.00, -1.00, 0.0, 115.0)"><g><clipPath id="clip-56"><path d="M 0.8 0.6 L 100.1 0.6 L 100.1 114.9 L 0.8 114.9 Z M 0.8 0.6 "></path></clipPath><g clip-path="url(#clip-56)"><path d="M 55.0 0.0 L 102.6 27.5 L 102.6 82.5 L 55.0 110.0 L 7.4 82.5 L 7.4 27.5 Z M 55.0 0.0 " fill="none" stroke="#85878C" stroke-width="2.00" transform="matrix(1.00, 0.00, 0.00, -1.00, -4.5, 112.8)"></path></g></g><g><clipPath id="clip-57"><path d="M 19.0 40.8 L 81.9 40.8 L 81.9 74.8 L 19.0 74.8 Z M 19.0 40.8 "></path></clipPath><g clip-path="url(#clip-57)"><text xml:space="preserve" font-family="Helvetica-Light" font-size="20.0" fill="#000000" transform="matrix(1.00, 0.00, -0.00, -1.00, 25.0, 50.0)">O</text><text xml:space="preserve" font-family="Helvetica-Light" font-size="20.0" fill="#000000" transform="matrix(1.00, 0.00, -0.00, -1.00, 40.6, 50.0)">r</text><text xml:space="preserve" font-family="Helvetica-Light" font-size="20.0" fill="#000000" transform="matrix(1.00, 0.00, -0.00, -1.00, 46.9, 50.0)">d</text><text xml:space="preserve" font-family="Helvetica-Light" font-size="20.0" fill="#000000" transform="matrix(1.00, 0.00, -0.00, -1.00, 59.1, 50.0)">e</text><text xml:space="preserve" font-family="Helvetica-Light" font-size="20.0" fill="#000000" transform="matrix(1.00, 0.00, -0.00, -1.00, 70.2, 50.0)">r</text></g></g></g></svg>