<?xml version="1.0" encoding="UTF-8" standalone="no"?><svg xmlns="http://www.w3.org/2000/svg" xmlns:xlink="http://www.w3.org/1999/xlink" clip-rule="evenodd" stroke-miterlimit="4.00" viewBox="0 0 354 41"><desc>SVG generated by Keynote</desc><defs></defs><g transform="matrix(1.00, 0.00, -0.00, -1.00, 0.0, 41.0)"><text xml:space="preserve" font-family="Helvetica-Light" font-size="40.0" fill="#000000" transform="matrix(1.00, 0.00, -0.00, -1.00, -1.0, 11.0)">E</text><text xml:space="preserve" font-family="Helvetica-Light" font-size="40.0" fill="#000000" transform="matrix(1.00, 0.00, -0.00, -1.00, 23.4, 11.0)">v</text><text xml:space="preserve" font-family="Helvetica-Light" font-size="40.0" fill="#000000" transform="matrix(1.00, 0.00, -0.00, -1.00, 43.4, 11.0)">o</text><text xml:space="preserve" font-family="Helvetica-Light" font-size="40.0" fill="#000000" transform="matrix(1.00, 0.00, -0.00, -1.00, 65.7, 11.0)">l</text><text xml:space="preserve" font-family="Helvetica-Light" font-size="40.0" fill="#000000" transform="matrix(1.00, 0.00, -0.00, -1.00, 74.6, 11.0)">u</text><text xml:space="preserve" font-family="Helvetica-Light" font-size="40.0" fill="#000000" transform="matrix(1.00, 0.00, -0.00, -1.00, 96.8, 11.0)">t</text><text xml:space="preserve" font-family="Helvetica-Light" font-size="40.0" fill="#000000" transform="matrix(1.00, 0.00, -0.00, -1.00, 107.9, 11.0)">i</text><text xml:space="preserve" font-family="Helvetica-Light" font-size="40.0" fill="#000000" transform="matrix(1.00, 0.00, -0.00, -1.00, 116.8, 11.0)">o</text><text xml:space="preserve" font-family="Helvetica-Light" font-size="40.0" fill="#000000" transform="matrix(1.00, 0.00, -0.00, -1.00, 139.0, 11.0)">n</text><text xml:space="preserve" font-family="Helvetica-Light" font-size="40.0" fill="#000000" transform="matrix(1.00, 0.00, -0.00, -1.00, 161.3, 11.0)">a</text><text xml:space="preserve" font-family="Helvetica-Light" font-size="40.0" fill="#000000" transform="matrix(1.00, 0.00, -0.00, -1.00, 183.5, 11.0)">r</text><text xml:space="preserve" font-family="Helvetica-Light" font-size="40.0" fill="#000000" transform="matrix(1.00, 0.00, -0.00, -1.00, 197.6, 11.0)">y</text><text xml:space="preserve" font-family="Helvetica-Light" font-size="40.0" fill="#000000" transform="matrix(1.00, 0.00, -0.00, -1.00, 217.6, 11.0)"> </text><text xml:space="preserve" font-family="Helvetica-Light" font-size="40.0" fill="#000000" transform="matrix(1.00, 0.00, -0.00, -1.00, 228.7, 11.0)">D</text><text xml:space="preserve" font-family="Helvetica-Light" font-size="40.0" fill="#000000" transform="matrix(1.00, 0.00, -0.00, -1.00, 257.6, 11.0)">e</text><text xml:space="preserve" font-family="Helvetica-Light" font-size="40.0" fill="#000000" transform="matrix(1.00, 0.00, -0.00, -1.00, 279.8, 11.0)">s</text><text xml:space="preserve" font-family="Helvetica-Light" font-size="40.0" fill="#000000" transform="matrix(1.00, 0.00, -0.00, -1.00, 299.8, 11.0)">i</text><text xml:space="preserve" font-family="Helvetica-Light" font-size="40.0" fill="#000000" transform="matrix(1.00, 0.00, -0.00, -1.00, 308.7, 11.0)">g</text><text xml:space="preserve" font-family="Helvetica-Light" font-size="40.0" fill="#000000" transform="matrix(1.00, 0.00, -0.00, -1.00, 333.1, 11.0)">n</text></g></svg>