<?xml version="1.0" encoding="UTF-8" standalone="no"?><svg xmlns="http://www.w3.org/2000/svg" xmlns:xlink="http://www.w3.org/1999/xlink" clip-rule="evenodd" stroke-miterlimit="4.00" viewBox="0 0 1024 768"><desc>SVG generated by Keynote</desc><defs></defs><g transform="matrix(1.00, 0.00, -0.00, -1.00, 0.0, 768.0)"><path d="M 0.0 768.0 L 1024.0 768.0 L 1024.0 0.0 L 0.0 0.0 Z M 0.0 768.0 " fill="#FEFFFF"></path><text xml:space="preserve" font-family="Helvetica-Light" font-size="40.0" fill="#000000" transform="matrix(1.00, 0.00, -0.00, -1.00, 334.0, 676.0)">E</text><text xml:space="preserve" font-family="Helvetica-Light" font-size="40.0" fill="#000000" transform="matrix(1.00, 0.00, -0.00, -1.00, 358.4, 676.0)">v</text><text xml:space="preserve" font-family="Helvetica-Light" font-size="40.0" fill="#000000" transform="matrix(1.00, 0.00, -0.00, -1.00, 378.4, 676.0)">o</text><text xml:space="preserve" font-family="Helvetica-Light" font-size="40.0" fill="#000000" transform="matrix(1.00, 0.00, -0.00, -1.00, 400.7, 676.0)">l</text><text xml:space="preserve" font-family="Helvetica-Light" font-size="40.0" fill="#000000" transform="matrix(1.00, 0.00, -0.00, -1.00, 409.6, 676.0)">u</text><text xml:space="preserve" font-family="Helvetica-Light" font-size="40.0" fill="#000000" transform="matrix(1.00, 0.00, -0.00, -1.00, 431.8, 676.0)">t</text><text xml:space="preserve" font-family="Helvetica-Light" font-size="40.0" fill="#000000" transform="matrix(1.00, 0.00, -0.00, -1.00, 442.9, 676.0)">i</text><text xml:space="preserve" font-family="Helvetica-Light" font-size="40.0" fill="#000000" transform="matrix(1.00, 0.00, -0.00, -1.00, 451.8, 676.0)">o</text><text xml:space="preserve" font-family="Helvetica-Light" font-size="40.0" fill="#000000" transform="matrix(1.00, 0.00, -0.00, -1.00, 474.0, 676.0)">n</text><text xml:space="preserve" font-family="Helvetica-Light" font-size="40.0" fill="#000000" transform="matrix(1.00, 0.00, -0.00, -1.00, 496.3, 676.0)">a</text><text xml:space="preserve" font-family="Helvetica-Light" font-size="40.0" fill="#000000" transform="matrix(1.00, 0.00, -0.00, -1.00, 518.5, 676.0)">r</text><text xml:space="preserve" font-family="Helvetica-Light" font-size="40.0" fill="#000000" transform="matrix(1.00, 0.00, -0.00, -1.00, 532.6, 676.0)">y</text><text xml:space="preserve" font-family="Helvetica-Light" font-size="40.0" fill="#000000" transform="matrix(1.00, 0.00, -0.00, -1.00, 552.6, 676.0)"> </text><text xml:space="preserve" font-family="Helvetica-Light" font-size="40.0" fill="#000000" transform="matrix(1.00, 0.00, -0.00, -1.00, 563.7, 676.0)">D</text><text xml:space="preserve" font-family="Helvetica-Light" font-size="40.0" fill="#000000" transform="matrix(1.00, 0.00, -0.00, -1.00, 592.6, 676.0)">e</text><text xml:space="preserve" font-family="Helvetica-Light" font-size="40.0" fill="#000000" transform="matrix(1.00, 0.00, -0.00, -1.00, 614.8, 676.0)">s</text><text xml:space="preserve" font-family="Helvetica-Light" font-size="40.0" fill="#000000" transform="matrix(1.00, 0.00, -0.00, -1.00, 634.8, 676.0)">i</text><text xml:space="preserve" font-family="Helvetica-Light" font-size="40.0" fill="#000000" transform="matrix(1.00, 0.00, -0.00, -1.00, 643.7, 676.0)">g</text><text xml:space="preserve" font-family="Helvetica-Light" font-size="40.0" fill="#000000" transform="matrix(1.00, 0.00, -0.00, -1.00, 668.1, 676.0)">n</text><text xml:space="preserve" font-family="Helvetica-Light" font-size="15.0" fill="#000000" transform="matrix(1.00, 0.00, -0.00, -1.00, 14.0, 31.0)">C</text><text xml:space="preserve" font-family="Helvetica-Light" font-size="15.0" fill="#000000" transform="matrix(1.00, 0.00, -0.00, -1.00, 24.8, 31.0)">h</text><text xml:space="preserve" font-family="Helvetica-Light" font-size="15.0" fill="#000000" transform="matrix(1.00, 0.00, -0.00, -1.00, 33.2, 31.0)">a</text><text xml:space="preserve" font-family="Helvetica-Light" font-size="15.0" fill="#000000" transform="matrix(1.00, 0.00, -0.00, -1.00, 41.5, 31.0)">r</text><text xml:space="preserve" font-family="Helvetica-Light" font-size="15.0" fill="#000000" transform="matrix(1.00, 0.00, -0.00, -1.00, 46.5, 31.0)">a</text><text xml:space="preserve" font-family="Helvetica-Light" font-size="15.0" fill="#000000" transform="matrix(1.00, 0.00, -0.00, -1.00, 54.8, 31.0)">c</text><text xml:space="preserve" font-family="Helvetica-Light" font-size="15.0" fill="#000000" transform="matrix(1.00, 0.00, -0.00, -1.00, 63.2, 31.0)">t</text><text xml:space="preserve" font-family="Helvetica-Light" font-size="15.0" fill="#000000" transform="matrix(1.00, 0.00, -0.00, -1.00, 67.4, 31.0)">e</text><text xml:space="preserve" font-family="Helvetica-Light" font-size="15.0" fill="#000000" transform="matrix(1.00, 0.00, -0.00, -1.00, 75.7, 31.0)">r</text><text xml:space="preserve" font-family="Helvetica-Light" font-size="15.0" fill="#000000" transform="matrix(1.00, 0.00, -0.00, -1.00, 80.7, 31.0)">i</text><text xml:space="preserve" font-family="Helvetica-Light" font-size="15.0" fill="#000000" transform="matrix(1.00, 0.00, -0.00, -1.00, 84.0, 31.0)">s</text><text xml:space="preserve" font-family="Helvetica-Light" font-size="15.0" fill="#000000" transform="matrix(1.00, 0.00, -0.00, -1.00, 91.5, 31.0)">t</text><text xml:space="preserve" font-family="Helvetica-Light" font-size="15.0" fill="#000000" transform="matrix(1.00, 0.00, -0.00, -1.00, 95.7, 31.0)">i</text><text xml:space="preserve" font-family="Helvetica-Light" font-size="15.0" fill="#000000" transform="matrix(1.00, 0.00, -0.00, -1.00, 99.0, 31.0)">c</text><text xml:space="preserve" font-family="Helvetica-Light" font-size="15.0" fill="#000000" transform="matrix(1.00, 0.00, -0.00, -1.00, 107.4, 31.0)">s</text><text xml:space="preserve" font-family="Helvetica-Light" font-size="15.0" fill="#000000" transform="matrix(1.00, 0.00, -0.00, -1.00, 114.9, 31.0)"> </text><text xml:space="preserve" font-family="Helvetica-Light" font-size="15.0" fill="#000000" transform="matrix(1.00, 0.00, -0.00, -1.00, 119.0, 31.0)">o</text><text xml:space="preserve" font-family="Helvetica-Light" font-size="15.0" fill="#000000" transform="matrix(1.00, 0.00, -0.00, -1.00, 127.4, 31.0)">f</text><text xml:space="preserve" font-family="Helvetica-Light" font-size="15.0" fill="#000000" transform="matrix(1.00, 0.00, -0.00, -1.00, 131.5, 31.0)"> </text><text xml:space="preserve" font-family="Helvetica-Light" font-size="15.0" fill="#000000" transform="matrix(1.00, 0.00, -0.00, -1.00, 135.7, 31.0)">a</text><text xml:space="preserve" font-family="Helvetica-Light" font-size="15.0" fill="#000000" transform="matrix(1.00, 0.00, -0.00, -1.00, 144.1, 31.0)"> </text><text xml:space="preserve" font-family="Helvetica-Light" font-size="15.0" fill="#000000" transform="matrix(1.00, 0.00, -0.00, -1.00, 148.2, 31.0)">M</text><text xml:space="preserve" font-family="Helvetica-Light" font-size="15.0" fill="#000000" transform="matrix(1.00, 0.00, -0.00, -1.00, 160.7, 31.0)">i</text><text xml:space="preserve" font-family="Helvetica-Light" font-size="15.0" fill="#000000" transform="matrix(1.00, 0.00, -0.00, -1.00, 164.0, 31.0)">c</text><text xml:space="preserve" font-family="Helvetica-Light" font-size="15.0" fill="#000000" transform="matrix(1.00, 0.00, -0.00, -1.00, 172.4, 31.0)">r</text><text xml:space="preserve" font-family="Helvetica-Light" font-size="15.0" fill="#000000" transform="matrix(1.00, 0.00, -0.00, -1.00, 177.1, 31.0)">o</text><text xml:space="preserve" font-family="Helvetica-Light" font-size="15.0" fill="#000000" transform="matrix(1.00, 0.00, -0.00, -1.00, 185.5, 31.0)">s</text><text xml:space="preserve" font-family="Helvetica-Light" font-size="15.0" fill="#000000" transform="matrix(1.00, 0.00, -0.00, -1.00, 193.0, 31.0)">e</text><text xml:space="preserve" font-family="Helvetica-Light" font-size="15.0" fill="#000000" transform="matrix(1.00, 0.00, -0.00, -1.00, 201.3, 31.0)">r</text><text xml:space="preserve" font-family="Helvetica-Light" font-size="15.0" fill="#000000" transform="matrix(1.00, 0.00, -0.00, -1.00, 206.3, 31.0)">v</text><text xml:space="preserve" font-family="Helvetica-Light" font-size="15.0" fill="#000000" transform="matrix(1.00, 0.00, -0.00, -1.00, 213.8, 31.0)">i</text><text xml:space="preserve" font-family="Helvetica-Light" font-size="15.0" fill="#000000" transform="matrix(1.00, 0.00, -0.00, -1.00, 217.1, 31.0)">c</text><text xml:space="preserve" font-family="Helvetica-Light" font-size="15.0" fill="#000000" transform="matrix(1.00, 0.00, -0.00, -1.00, 225.5, 31.0)">e</text><text xml:space="preserve" font-family="Helvetica-Light" font-size="15.0" fill="#000000" transform="matrix(1.00, 0.00, -0.00, -1.00, 233.8, 31.0)"> </text><text xml:space="preserve" font-family="Helvetica-Light" font-size="22.5" fill="#000000" transform="matrix(1.00, 0.00, -0.00, -1.00, 122.6, 526.5)">&gt;</text><text xml:space="preserve" font-family="Helvetica-Light" font-size="30.0" fill="#000000" transform="matrix(1.00, 0.00, -0.00, -1.00, 157.0, 523.0)">B</text><text xml:space="preserve" font-family="Helvetica-Light" font-size="30.0" fill="#000000" transform="matrix(1.00, 0.00, -0.00, -1.00, 177.0, 523.0)">u</text><text xml:space="preserve" font-family="Helvetica-Light" font-size="30.0" fill="#000000" transform="matrix(1.00, 0.00, -0.00, -1.00, 193.7, 523.0)">i</text><text xml:space="preserve" font-family="Helvetica-Light" font-size="30.0" fill="#000000" transform="matrix(1.00, 0.00, -0.00, -1.00, 200.3, 523.0)">l</text><text xml:space="preserve" font-family="Helvetica-Light" font-size="30.0" fill="#000000" transform="matrix(1.00, 0.00, -0.00, -1.00, 207.0, 523.0)">d</text><text xml:space="preserve" font-family="Helvetica-Light" font-size="30.0" fill="#000000" transform="matrix(1.00, 0.00, -0.00, -1.00, 225.3, 523.0)"> </text><text xml:space="preserve" font-family="Helvetica-Light" font-size="30.0" fill="#000000" transform="matrix(1.00, 0.00, -0.00, -1.00, 233.7, 523.0)">f</text><text xml:space="preserve" font-family="Helvetica-Light" font-size="30.0" fill="#000000" transform="matrix(1.00, 0.00, -0.00, -1.00, 242.0, 523.0)">e</text><text xml:space="preserve" font-family="Helvetica-Light" font-size="30.0" fill="#000000" transform="matrix(1.00, 0.00, -0.00, -1.00, 258.7, 523.0)">w</text><text xml:space="preserve" font-family="Helvetica-Light" font-size="30.0" fill="#000000" transform="matrix(1.00, 0.00, -0.00, -1.00, 280.4, 523.0)"> </text><text xml:space="preserve" font-family="Helvetica-Light" font-size="30.0" fill="#000000" transform="matrix(1.00, 0.00, -0.00, -1.00, 288.7, 523.0)">b</text><text xml:space="preserve" font-family="Helvetica-Light" font-size="30.0" fill="#000000" transform="matrix(1.00, 0.00, -0.00, -1.00, 307.0, 523.0)">i</text><text xml:space="preserve" font-family="Helvetica-Light" font-size="30.0" fill="#000000" transform="matrix(1.00, 0.00, -0.00, -1.00, 313.7, 523.0)">g</text><text xml:space="preserve" font-family="Helvetica-Light" font-size="30.0" fill="#000000" transform="matrix(1.00, 0.00, -0.00, -1.00, 332.0, 523.0)">g</text><text xml:space="preserve" font-family="Helvetica-Light" font-size="30.0" fill="#000000" transform="matrix(1.00, 0.00, -0.00, -1.00, 350.3, 523.0)">e</text><text xml:space="preserve" font-family="Helvetica-Light" font-size="30.0" fill="#000000" transform="matrix(1.00, 0.00, -0.00, -1.00, 367.0, 523.0)">r</text><text xml:space="preserve" font-family="Helvetica-Light" font-size="30.0" fill="#000000" transform="matrix(1.00, 0.00, -0.00, -1.00, 377.0, 523.0)"> </text><text xml:space="preserve" font-family="Helvetica-Light" font-size="30.0" fill="#000000" transform="matrix(1.00, 0.00, -0.00, -1.00, 385.4, 523.0)">s</text><text xml:space="preserve" font-family="Helvetica-Light" font-size="30.0" fill="#000000" transform="matrix(1.00, 0.00, -0.00, -1.00, 400.4, 523.0)">e</text><text xml:space="preserve" font-family="Helvetica-Light" font-size="30.0" fill="#000000" transform="matrix(1.00, 0.00, -0.00, -1.00, 417.0, 523.0)">r</text><text xml:space="preserve" font-family="Helvetica-Light" font-size="30.0" fill="#000000" transform="matrix(1.00, 0.00, -0.00, -1.00, 427.0, 523.0)">v</text><text xml:space="preserve" font-family="Helvetica-Light" font-size="30.0" fill="#000000" transform="matrix(1.00, 0.00, -0.00, -1.00, 442.0, 523.0)">i</text><text xml:space="preserve" font-family="Helvetica-Light" font-size="30.0" fill="#000000" transform="matrix(1.00, 0.00, -0.00, -1.00, 448.7, 523.0)">c</text><text xml:space="preserve" font-family="Helvetica-Light" font-size="30.0" fill="#000000" transform="matrix(1.00, 0.00, -0.00, -1.00, 465.4, 523.0)">e</text><text xml:space="preserve" font-family="Helvetica-Light" font-size="30.0" fill="#000000" transform="matrix(1.00, 0.00, -0.00, -1.00, 482.1, 523.0)">s</text><text xml:space="preserve" font-family="Helvetica-Light" font-size="30.0" fill="#000000" transform="matrix(1.00, 0.00, -0.00, -1.00, 497.1, 523.0)"> </text><text xml:space="preserve" font-family="Helvetica-Light" font-size="30.0" fill="#000000" transform="matrix(1.00, 0.00, -0.00, -1.00, 505.4, 523.0)">ï¬</text><text xml:space="preserve" font-family="Helvetica-Light" font-size="30.0" fill="#000000" transform="matrix(1.00, 0.00, -0.00, -1.00, 520.4, 523.0)">r</text><text xml:space="preserve" font-family="Helvetica-Light" font-size="30.0" fill="#000000" transform="matrix(1.00, 0.00, -0.00, -1.00, 530.4, 523.0)">s</text><text xml:space="preserve" font-family="Helvetica-Light" font-size="30.0" fill="#000000" transform="matrix(1.00, 0.00, -0.00, -1.00, 545.4, 523.0)">t</text><text xml:space="preserve" font-family="Helvetica-Light" font-size="22.5" fill="#000000" transform="matrix(1.00, 0.00, -0.00, -1.00, 122.6, 472.5)">&gt;</text><text xml:space="preserve" font-family="Helvetica-Light" font-size="30.0" fill="#000000" transform="matrix(1.00, 0.00, -0.00, -1.00, 157.0, 469.0)">T</text><text xml:space="preserve" font-family="Helvetica-Light" font-size="30.0" fill="#000000" transform="matrix(1.00, 0.00, -0.00, -1.00, 173.7, 469.0)">h</text><text xml:space="preserve" font-family="Helvetica-Light" font-size="30.0" fill="#000000" transform="matrix(1.00, 0.00, -0.00, -1.00, 190.4, 469.0)">e</text><text xml:space="preserve" font-family="Helvetica-Light" font-size="30.0" fill="#000000" transform="matrix(1.00, 0.00, -0.00, -1.00, 207.0, 469.0)">n</text><text xml:space="preserve" font-family="Helvetica-Light" font-size="30.0" fill="#000000" transform="matrix(1.00, 0.00, -0.00, -1.00, 223.7, 469.0)">,</text><text xml:space="preserve" font-family="Helvetica-Light" font-size="30.0" fill="#000000" transform="matrix(1.00, 0.00, -0.00, -1.00, 232.1, 469.0)"> </text><text xml:space="preserve" font-family="Helvetica-Light" font-size="30.0" fill="#000000" transform="matrix(1.00, 0.00, -0.00, -1.00, 240.4, 469.0)">s</text><text xml:space="preserve" font-family="Helvetica-Light" font-size="30.0" fill="#000000" transform="matrix(1.00, 0.00, -0.00, -1.00, 255.4, 469.0)">l</text><text xml:space="preserve" font-family="Helvetica-Light" font-size="30.0" fill="#000000" transform="matrix(1.00, 0.00, -0.00, -1.00, 262.1, 469.0)">o</text><text xml:space="preserve" font-family="Helvetica-Light" font-size="30.0" fill="#000000" transform="matrix(1.00, 0.00, -0.00, -1.00, 278.7, 469.0)">w</text><text xml:space="preserve" font-family="Helvetica-Light" font-size="30.0" fill="#000000" transform="matrix(1.00, 0.00, -0.00, -1.00, 300.4, 469.0)">l</text><text xml:space="preserve" font-family="Helvetica-Light" font-size="30.0" fill="#000000" transform="matrix(1.00, 0.00, -0.00, -1.00, 307.1, 469.0)">y</text><text xml:space="preserve" font-family="Helvetica-Light" font-size="30.0" fill="#000000" transform="matrix(1.00, 0.00, -0.00, -1.00, 322.1, 469.0)"> </text><text xml:space="preserve" font-family="Helvetica-Light" font-size="30.0" fill="#000000" transform="matrix(1.00, 0.00, -0.00, -1.00, 330.4, 469.0)">p</text><text xml:space="preserve" font-family="Helvetica-Light" font-size="30.0" fill="#000000" transform="matrix(1.00, 0.00, -0.00, -1.00, 348.7, 469.0)">e</text><text xml:space="preserve" font-family="Helvetica-Light" font-size="30.0" fill="#000000" transform="matrix(1.00, 0.00, -0.00, -1.00, 365.4, 469.0)">e</text><text xml:space="preserve" font-family="Helvetica-Light" font-size="30.0" fill="#000000" transform="matrix(1.00, 0.00, -0.00, -1.00, 382.1, 469.0)">l</text><text xml:space="preserve" font-family="Helvetica-Light" font-size="30.0" fill="#000000" transform="matrix(1.00, 0.00, -0.00, -1.00, 388.8, 469.0)"> </text><text xml:space="preserve" font-family="Helvetica-Light" font-size="30.0" fill="#000000" transform="matrix(1.00, 0.00, -0.00, -1.00, 397.1, 469.0)">o</text><text xml:space="preserve" font-family="Helvetica-Light" font-size="30.0" fill="#000000" transform="matrix(1.00, 0.00, -0.00, -1.00, 413.8, 469.0)">f</text><text xml:space="preserve" font-family="Helvetica-Light" font-size="30.0" fill="#000000" transform="matrix(1.00, 0.00, -0.00, -1.00, 421.6, 469.0)">f</text><text xml:space="preserve" font-family="Helvetica-Light" font-size="30.0" fill="#000000" transform="matrix(1.00, 0.00, -0.00, -1.00, 429.9, 469.0)"> </text><text xml:space="preserve" font-family="Helvetica-Light" font-size="30.0" fill="#000000" transform="matrix(1.00, 0.00, -0.00, -1.00, 438.2, 469.0)">d</text><text xml:space="preserve" font-family="Helvetica-Light" font-size="30.0" fill="#000000" transform="matrix(1.00, 0.00, -0.00, -1.00, 456.6, 469.0)">i</text><text xml:space="preserve" font-family="Helvetica-Light" font-size="30.0" fill="#000000" transform="matrix(1.00, 0.00, -0.00, -1.00, 463.2, 469.0)">f</text><text xml:space="preserve" font-family="Helvetica-Light" font-size="30.0" fill="#000000" transform="matrix(1.00, 0.00, -0.00, -1.00, 471.0, 469.0)">f</text><text xml:space="preserve" font-family="Helvetica-Light" font-size="30.0" fill="#000000" transform="matrix(1.00, 0.00, -0.00, -1.00, 479.4, 469.0)">e</text><text xml:space="preserve" font-family="Helvetica-Light" font-size="30.0" fill="#000000" transform="matrix(1.00, 0.00, -0.00, -1.00, 496.1, 469.0)">r</text><text xml:space="preserve" font-family="Helvetica-Light" font-size="30.0" fill="#000000" transform="matrix(1.00, 0.00, -0.00, -1.00, 505.5, 469.0)">e</text><text xml:space="preserve" font-family="Helvetica-Light" font-size="30.0" fill="#000000" transform="matrix(1.00, 0.00, -0.00, -1.00, 522.2, 469.0)">n</text><text xml:space="preserve" font-family="Helvetica-Light" font-size="30.0" fill="#000000" transform="matrix(1.00, 0.00, -0.00, -1.00, 538.9, 469.0)">t</text><text xml:space="preserve" font-family="Helvetica-Light" font-size="30.0" fill="#000000" transform="matrix(1.00, 0.00, -0.00, -1.00, 547.2, 469.0)"> </text><text xml:space="preserve" font-family="Helvetica-Light" font-size="30.0" fill="#000000" transform="matrix(1.00, 0.00, -0.00, -1.00, 555.5, 469.0)">s</text><text xml:space="preserve" font-family="Helvetica-Light" font-size="30.0" fill="#000000" transform="matrix(1.00, 0.00, -0.00, -1.00, 570.5, 469.0)">e</text><text xml:space="preserve" font-family="Helvetica-Light" font-size="30.0" fill="#000000" transform="matrix(1.00, 0.00, -0.00, -1.00, 587.2, 469.0)">r</text><text xml:space="preserve" font-family="Helvetica-Light" font-size="30.0" fill="#000000" transform="matrix(1.00, 0.00, -0.00, -1.00, 597.2, 469.0)">v</text><text xml:space="preserve" font-family="Helvetica-Light" font-size="30.0" fill="#000000" transform="matrix(1.00, 0.00, -0.00, -1.00, 612.2, 469.0)">i</text><text xml:space="preserve" font-family="Helvetica-Light" font-size="30.0" fill="#000000" transform="matrix(1.00, 0.00, -0.00, -1.00, 618.9, 469.0)">c</text><text xml:space="preserve" font-family="Helvetica-Light" font-size="30.0" fill="#000000" transform="matrix(1.00, 0.00, -0.00, -1.00, 635.6, 469.0)">e</text><text xml:space="preserve" font-family="Helvetica-Light" font-size="30.0" fill="#000000" transform="matrix(1.00, 0.00, -0.00, -1.00, 652.2, 469.0)">s</text><text xml:space="preserve" font-family="Helvetica-Light" font-size="22.5" fill="#000000" transform="matrix(1.00, 0.00, -0.00, -1.00, 122.6, 418.5)">&gt;</text><text xml:space="preserve" font-family="Helvetica-Light" font-size="30.0" fill="#000000" transform="matrix(1.00, 0.00, -0.00, -1.00, 157.0, 415.0)">B</text><text xml:space="preserve" font-family="Helvetica-Light" font-size="30.0" fill="#000000" transform="matrix(1.00, 0.00, -0.00, -1.00, 177.0, 415.0)">a</text><text xml:space="preserve" font-family="Helvetica-Light" font-size="30.0" fill="#000000" transform="matrix(1.00, 0.00, -0.00, -1.00, 193.7, 415.0)">s</text><text xml:space="preserve" font-family="Helvetica-Light" font-size="30.0" fill="#000000" transform="matrix(1.00, 0.00, -0.00, -1.00, 208.7, 415.0)">e</text><text xml:space="preserve" font-family="Helvetica-Light" font-size="30.0" fill="#000000" transform="matrix(1.00, 0.00, -0.00, -1.00, 225.4, 415.0)">d</text><text xml:space="preserve" font-family="Helvetica-Light" font-size="30.0" fill="#000000" transform="matrix(1.00, 0.00, -0.00, -1.00, 243.7, 415.0)"> </text><text xml:space="preserve" font-family="Helvetica-Light" font-size="30.0" fill="#000000" transform="matrix(1.00, 0.00, -0.00, -1.00, 252.0, 415.0)">o</text><text xml:space="preserve" font-family="Helvetica-Light" font-size="30.0" fill="#000000" transform="matrix(1.00, 0.00, -0.00, -1.00, 268.7, 415.0)">n</text><text xml:space="preserve" font-family="Helvetica-Light" font-size="30.0" fill="#000000" transform="matrix(1.00, 0.00, -0.00, -1.00, 285.4, 415.0)"> </text><text xml:space="preserve" font-family="Helvetica-Light" font-size="30.0" fill="#000000" transform="matrix(1.00, 0.00, -0.00, -1.00, 293.7, 415.0)">i</text><text xml:space="preserve" font-family="Helvetica-Light" font-size="30.0" fill="#000000" transform="matrix(1.00, 0.00, -0.00, -1.00, 300.4, 415.0)">n</text><text xml:space="preserve" font-family="Helvetica-Light" font-size="30.0" fill="#000000" transform="matrix(1.00, 0.00, -0.00, -1.00, 317.1, 415.0)">d</text><text xml:space="preserve" font-family="Helvetica-Light" font-size="30.0" fill="#000000" transform="matrix(1.00, 0.00, -0.00, -1.00, 335.4, 415.0)">e</text><text xml:space="preserve" font-family="Helvetica-Light" font-size="30.0" fill="#000000" transform="matrix(1.00, 0.00, -0.00, -1.00, 352.1, 415.0)">p</text><text xml:space="preserve" font-family="Helvetica-Light" font-size="30.0" fill="#000000" transform="matrix(1.00, 0.00, -0.00, -1.00, 370.4, 415.0)">e</text><text xml:space="preserve" font-family="Helvetica-Light" font-size="30.0" fill="#000000" transform="matrix(1.00, 0.00, -0.00, -1.00, 387.1, 415.0)">n</text><text xml:space="preserve" font-family="Helvetica-Light" font-size="30.0" fill="#000000" transform="matrix(1.00, 0.00, -0.00, -1.00, 403.8, 415.0)">d</text><text xml:space="preserve" font-family="Helvetica-Light" font-size="30.0" fill="#000000" transform="matrix(1.00, 0.00, -0.00, -1.00, 422.1, 415.0)">e</text><text xml:space="preserve" font-family="Helvetica-Light" font-size="30.0" fill="#000000" transform="matrix(1.00, 0.00, -0.00, -1.00, 438.8, 415.0)">n</text><text xml:space="preserve" font-family="Helvetica-Light" font-size="30.0" fill="#000000" transform="matrix(1.00, 0.00, -0.00, -1.00, 455.5, 415.0)">t</text><text xml:space="preserve" font-family="Helvetica-Light" font-size="30.0" fill="#000000" transform="matrix(1.00, 0.00, -0.00, -1.00, 463.8, 415.0)"> </text><text xml:space="preserve" font-family="Helvetica-Light" font-size="30.0" fill="#000000" transform="matrix(1.00, 0.00, -0.00, -1.00, 472.1, 415.0)">r</text><text xml:space="preserve" font-family="Helvetica-Light" font-size="30.0" fill="#000000" transform="matrix(1.00, 0.00, -0.00, -1.00, 481.6, 415.0)">e</text><text xml:space="preserve" font-family="Helvetica-Light" font-size="30.0" fill="#000000" transform="matrix(1.00, 0.00, -0.00, -1.00, 498.3, 415.0)">p</text><text xml:space="preserve" font-family="Helvetica-Light" font-size="30.0" fill="#000000" transform="matrix(1.00, 0.00, -0.00, -1.00, 516.6, 415.0)">l</text><text xml:space="preserve" font-family="Helvetica-Light" font-size="30.0" fill="#000000" transform="matrix(1.00, 0.00, -0.00, -1.00, 523.3, 415.0)">a</text><text xml:space="preserve" font-family="Helvetica-Light" font-size="30.0" fill="#000000" transform="matrix(1.00, 0.00, -0.00, -1.00, 540.0, 415.0)">c</text><text xml:space="preserve" font-family="Helvetica-Light" font-size="30.0" fill="#000000" transform="matrix(1.00, 0.00, -0.00, -1.00, 556.6, 415.0)">e</text><text xml:space="preserve" font-family="Helvetica-Light" font-size="30.0" fill="#000000" transform="matrix(1.00, 0.00, -0.00, -1.00, 573.3, 415.0)">m</text><text xml:space="preserve" font-family="Helvetica-Light" font-size="30.0" fill="#000000" transform="matrix(1.00, 0.00, -0.00, -1.00, 598.3, 415.0)">e</text><text xml:space="preserve" font-family="Helvetica-Light" font-size="30.0" fill="#000000" transform="matrix(1.00, 0.00, -0.00, -1.00, 615.0, 415.0)">n</text><text xml:space="preserve" font-family="Helvetica-Light" font-size="30.0" fill="#000000" transform="matrix(1.00, 0.00, -0.00, -1.00, 631.7, 415.0)">t</text><text xml:space="preserve" font-family="Helvetica-Light" font-size="30.0" fill="#000000" transform="matrix(1.00, 0.00, -0.00, -1.00, 640.0, 415.0)"> </text><text xml:space="preserve" font-family="Helvetica-Light" font-size="30.0" fill="#000000" transform="matrix(1.00, 0.00, -0.00, -1.00, 648.3, 415.0)">a</text><text xml:space="preserve" font-family="Helvetica-Light" font-size="30.0" fill="#000000" transform="matrix(1.00, 0.00, -0.00, -1.00, 665.0, 415.0)">n</text><text xml:space="preserve" font-family="Helvetica-Light" font-size="30.0" fill="#000000" transform="matrix(1.00, 0.00, -0.00, -1.00, 681.7, 415.0)">d</text><text xml:space="preserve" font-family="Helvetica-Light" font-size="30.0" fill="#000000" transform="matrix(1.00, 0.00, -0.00, -1.00, 700.0, 415.0)"> </text><text xml:space="preserve" font-family="Helvetica-Light" font-size="30.0" fill="#000000" transform="matrix(1.00, 0.00, -0.00, -1.00, 708.4, 415.0)">u</text><text xml:space="preserve" font-family="Helvetica-Light" font-size="30.0" fill="#000000" transform="matrix(1.00, 0.00, -0.00, -1.00, 725.0, 415.0)">p</text><text xml:space="preserve" font-family="Helvetica-Light" font-size="30.0" fill="#000000" transform="matrix(1.00, 0.00, -0.00, -1.00, 743.4, 415.0)">g</text><text xml:space="preserve" font-family="Helvetica-Light" font-size="30.0" fill="#000000" transform="matrix(1.00, 0.00, -0.00, -1.00, 761.7, 415.0)">r</text><text xml:space="preserve" font-family="Helvetica-Light" font-size="30.0" fill="#000000" transform="matrix(1.00, 0.00, -0.00, -1.00, 771.7, 415.0)">a</text><text xml:space="preserve" font-family="Helvetica-Light" font-size="30.0" fill="#000000" transform="matrix(1.00, 0.00, -0.00, -1.00, 788.4, 415.0)">d</text><text xml:space="preserve" font-family="Helvetica-Light" font-size="30.0" fill="#000000" transform="matrix(1.00, 0.00, -0.00, -1.00, 806.7, 415.0)">e</text><text xml:space="preserve" font-family="Helvetica-Light" font-size="30.0" fill="#000000" transform="matrix(1.00, 0.00, -0.00, -1.00, 823.4, 415.0)">a</text><text xml:space="preserve" font-family="Helvetica-Light" font-size="30.0" fill="#000000" transform="matrix(1.00, 0.00, -0.00, -1.00, 840.1, 415.0)">b</text><text xml:space="preserve" font-family="Helvetica-Light" font-size="30.0" fill="#000000" transform="matrix(1.00, 0.00, -0.00, -1.00, 858.4, 415.0)">i</text><text xml:space="preserve" font-family="Helvetica-Light" font-size="30.0" fill="#000000" transform="matrix(1.00, 0.00, -0.00, -1.00, 865.1, 415.0)">l</text><text xml:space="preserve" font-family="Helvetica-Light" font-size="30.0" fill="#000000" transform="matrix(1.00, 0.00, -0.00, -1.00, 871.7, 415.0)">i</text><text xml:space="preserve" font-family="Helvetica-Light" font-size="30.0" fill="#000000" transform="matrix(1.00, 0.00, -0.00, -1.00, 878.4, 415.0)">t</text><text xml:space="preserve" font-family="Helvetica-Light" font-size="30.0" fill="#000000" transform="matrix(1.00, 0.00, -0.00, -1.00, 886.7, 415.0)">y</text><text xml:space="preserve" font-family="Helvetica-Light" font-size="22.5" fill="#000000" transform="matrix(1.00, 0.00, -0.00, -1.00, 122.6, 364.5)">&gt;</text><text xml:space="preserve" font-family="Helvetica-Light" font-size="30.0" fill="#000000" transform="matrix(1.00, 0.00, -0.00, -1.00, 157.0, 361.0)">M</text><text xml:space="preserve" font-family="Helvetica-Light" font-size="30.0" fill="#000000" transform="matrix(1.00, 0.00, -0.00, -1.00, 182.0, 361.0)">a</text><text xml:space="preserve" font-family="Helvetica-Light" font-size="30.0" fill="#000000" transform="matrix(1.00, 0.00, -0.00, -1.00, 198.7, 361.0)">k</text><text xml:space="preserve" font-family="Helvetica-Light" font-size="30.0" fill="#000000" transform="matrix(1.00, 0.00, -0.00, -1.00, 213.7, 361.0)">e</text><text xml:space="preserve" font-family="Helvetica-Light" font-size="30.0" fill="#000000" transform="matrix(1.00, 0.00, -0.00, -1.00, 230.3, 361.0)"> </text><text xml:space="preserve" font-family="Helvetica-Light" font-size="30.0" fill="#000000" transform="matrix(1.00, 0.00, -0.00, -1.00, 238.7, 361.0)">g</text><text xml:space="preserve" font-family="Helvetica-Light" font-size="30.0" fill="#000000" transform="matrix(1.00, 0.00, -0.00, -1.00, 257.0, 361.0)">r</text><text xml:space="preserve" font-family="Helvetica-Light" font-size="30.0" fill="#000000" transform="matrix(1.00, 0.00, -0.00, -1.00, 267.0, 361.0)">a</text><text xml:space="preserve" font-family="Helvetica-Light" font-size="30.0" fill="#000000" transform="matrix(1.00, 0.00, -0.00, -1.00, 283.7, 361.0)">n</text><text xml:space="preserve" font-family="Helvetica-Light" font-size="30.0" fill="#000000" transform="matrix(1.00, 0.00, -0.00, -1.00, 300.4, 361.0)">u</text><text xml:space="preserve" font-family="Helvetica-Light" font-size="30.0" fill="#000000" transform="matrix(1.00, 0.00, -0.00, -1.00, 317.1, 361.0)">l</text><text xml:space="preserve" font-family="Helvetica-Light" font-size="30.0" fill="#000000" transform="matrix(1.00, 0.00, -0.00, -1.00, 323.7, 361.0)">a</text><text xml:space="preserve" font-family="Helvetica-Light" font-size="30.0" fill="#000000" transform="matrix(1.00, 0.00, -0.00, -1.00, 340.4, 361.0)">r</text><text xml:space="preserve" font-family="Helvetica-Light" font-size="30.0" fill="#000000" transform="matrix(1.00, 0.00, -0.00, -1.00, 350.4, 361.0)"> </text><text xml:space="preserve" font-family="Helvetica-Light" font-size="30.0" fill="#000000" transform="matrix(1.00, 0.00, -0.00, -1.00, 358.7, 361.0)">r</text><text xml:space="preserve" font-family="Helvetica-Light" font-size="30.0" fill="#000000" transform="matrix(1.00, 0.00, -0.00, -1.00, 368.2, 361.0)">e</text><text xml:space="preserve" font-family="Helvetica-Light" font-size="30.0" fill="#000000" transform="matrix(1.00, 0.00, -0.00, -1.00, 384.9, 361.0)">l</text><text xml:space="preserve" font-family="Helvetica-Light" font-size="30.0" fill="#000000" transform="matrix(1.00, 0.00, -0.00, -1.00, 391.5, 361.0)">e</text><text xml:space="preserve" font-family="Helvetica-Light" font-size="30.0" fill="#000000" transform="matrix(1.00, 0.00, -0.00, -1.00, 408.2, 361.0)">a</text><text xml:space="preserve" font-family="Helvetica-Light" font-size="30.0" fill="#000000" transform="matrix(1.00, 0.00, -0.00, -1.00, 424.9, 361.0)">s</text><text xml:space="preserve" font-family="Helvetica-Light" font-size="30.0" fill="#000000" transform="matrix(1.00, 0.00, -0.00, -1.00, 439.9, 361.0)">e</text><text xml:space="preserve" font-family="Helvetica-Light" font-size="30.0" fill="#000000" transform="matrix(1.00, 0.00, -0.00, -1.00, 456.6, 361.0)">s</text></g></svg>