<?xml version="1.0" encoding="UTF-8" standalone="no"?><svg xmlns="http://www.w3.org/2000/svg" xmlns:xlink="http://www.w3.org/1999/xlink" clip-rule="evenodd" stroke-miterlimit="4.00" viewBox="0 0 1024 768"><desc>SVG generated by Keynote</desc><defs></defs><g transform="matrix(1.00, 0.00, -0.00, -1.00, 0.0, 768.0)"><path d="M 0.0 768.0 L 1024.0 768.0 L 1024.0 0.0 L 0.0 0.0 Z M 0.0 768.0 " fill="#FEFFFF"></path><text xml:space="preserve" font-family="Helvetica-Light" font-size="40.0" fill="#000000" transform="matrix(1.00, 0.00, -0.00, -1.00, 287.0, 676.0)">I</text><text xml:space="preserve" font-family="Helvetica-Light" font-size="40.0" fill="#000000" transform="matrix(1.00, 0.00, -0.00, -1.00, 298.1, 676.0)">n</text><text xml:space="preserve" font-family="Helvetica-Light" font-size="40.0" fill="#000000" transform="matrix(1.00, 0.00, -0.00, -1.00, 320.4, 676.0)">f</text><text xml:space="preserve" font-family="Helvetica-Light" font-size="40.0" fill="#000000" transform="matrix(1.00, 0.00, -0.00, -1.00, 331.5, 676.0)">r</text><text xml:space="preserve" font-family="Helvetica-Light" font-size="40.0" fill="#000000" transform="matrix(1.00, 0.00, -0.00, -1.00, 344.8, 676.0)">a</text><text xml:space="preserve" font-family="Helvetica-Light" font-size="40.0" fill="#000000" transform="matrix(1.00, 0.00, -0.00, -1.00, 367.0, 676.0)">s</text><text xml:space="preserve" font-family="Helvetica-Light" font-size="40.0" fill="#000000" transform="matrix(1.00, 0.00, -0.00, -1.00, 387.0, 676.0)">t</text><text xml:space="preserve" font-family="Helvetica-Light" font-size="40.0" fill="#000000" transform="matrix(1.00, 0.00, -0.00, -1.00, 398.2, 676.0)">r</text><text xml:space="preserve" font-family="Helvetica-Light" font-size="40.0" fill="#000000" transform="matrix(1.00, 0.00, -0.00, -1.00, 411.5, 676.0)">u</text><text xml:space="preserve" font-family="Helvetica-Light" font-size="40.0" fill="#000000" transform="matrix(1.00, 0.00, -0.00, -1.00, 433.7, 676.0)">c</text><text xml:space="preserve" font-family="Helvetica-Light" font-size="40.0" fill="#000000" transform="matrix(1.00, 0.00, -0.00, -1.00, 456.0, 676.0)">t</text><text xml:space="preserve" font-family="Helvetica-Light" font-size="40.0" fill="#000000" transform="matrix(1.00, 0.00, -0.00, -1.00, 467.1, 676.0)">u</text><text xml:space="preserve" font-family="Helvetica-Light" font-size="40.0" fill="#000000" transform="matrix(1.00, 0.00, -0.00, -1.00, 489.3, 676.0)">r</text><text xml:space="preserve" font-family="Helvetica-Light" font-size="40.0" fill="#000000" transform="matrix(1.00, 0.00, -0.00, -1.00, 501.9, 676.0)">e</text><text xml:space="preserve" font-family="Helvetica-Light" font-size="40.0" fill="#000000" transform="matrix(1.00, 0.00, -0.00, -1.00, 524.2, 676.0)"> </text><text xml:space="preserve" font-family="Helvetica-Light" font-size="40.0" fill="#000000" transform="matrix(1.00, 0.00, -0.00, -1.00, 535.3, 676.0)">A</text><text xml:space="preserve" font-family="Helvetica-Light" font-size="40.0" fill="#000000" transform="matrix(1.00, 0.00, -0.00, -1.00, 562.0, 676.0)">u</text><text xml:space="preserve" font-family="Helvetica-Light" font-size="40.0" fill="#000000" transform="matrix(1.00, 0.00, -0.00, -1.00, 584.2, 676.0)">t</text><text xml:space="preserve" font-family="Helvetica-Light" font-size="40.0" fill="#000000" transform="matrix(1.00, 0.00, -0.00, -1.00, 595.3, 676.0)">o</text><text xml:space="preserve" font-family="Helvetica-Light" font-size="40.0" fill="#000000" transform="matrix(1.00, 0.00, -0.00, -1.00, 617.6, 676.0)">m</text><text xml:space="preserve" font-family="Helvetica-Light" font-size="40.0" fill="#000000" transform="matrix(1.00, 0.00, -0.00, -1.00, 650.9, 676.0)">a</text><text xml:space="preserve" font-family="Helvetica-Light" font-size="40.0" fill="#000000" transform="matrix(1.00, 0.00, -0.00, -1.00, 673.1, 676.0)">t</text><text xml:space="preserve" font-family="Helvetica-Light" font-size="40.0" fill="#000000" transform="matrix(1.00, 0.00, -0.00, -1.00, 684.2, 676.0)">i</text><text xml:space="preserve" font-family="Helvetica-Light" font-size="40.0" fill="#000000" transform="matrix(1.00, 0.00, -0.00, -1.00, 693.1, 676.0)">o</text><text xml:space="preserve" font-family="Helvetica-Light" font-size="40.0" fill="#000000" transform="matrix(1.00, 0.00, -0.00, -1.00, 715.4, 676.0)">n</text><text xml:space="preserve" font-family="Helvetica-Light" font-size="15.0" fill="#000000" transform="matrix(1.00, 0.00, -0.00, -1.00, 14.0, 31.0)">C</text><text xml:space="preserve" font-family="Helvetica-Light" font-size="15.0" fill="#000000" transform="matrix(1.00, 0.00, -0.00, -1.00, 24.8, 31.0)">h</text><text xml:space="preserve" font-family="Helvetica-Light" font-size="15.0" fill="#000000" transform="matrix(1.00, 0.00, -0.00, -1.00, 33.2, 31.0)">a</text><text xml:space="preserve" font-family="Helvetica-Light" font-size="15.0" fill="#000000" transform="matrix(1.00, 0.00, -0.00, -1.00, 41.5, 31.0)">r</text><text xml:space="preserve" font-family="Helvetica-Light" font-size="15.0" fill="#000000" transform="matrix(1.00, 0.00, -0.00, -1.00, 46.5, 31.0)">a</text><text xml:space="preserve" font-family="Helvetica-Light" font-size="15.0" fill="#000000" transform="matrix(1.00, 0.00, -0.00, -1.00, 54.8, 31.0)">c</text><text xml:space="preserve" font-family="Helvetica-Light" font-size="15.0" fill="#000000" transform="matrix(1.00, 0.00, -0.00, -1.00, 63.2, 31.0)">t</text><text xml:space="preserve" font-family="Helvetica-Light" font-size="15.0" fill="#000000" transform="matrix(1.00, 0.00, -0.00, -1.00, 67.4, 31.0)">e</text><text xml:space="preserve" font-family="Helvetica-Light" font-size="15.0" fill="#000000" transform="matrix(1.00, 0.00, -0.00, -1.00, 75.7, 31.0)">r</text><text xml:space="preserve" font-family="Helvetica-Light" font-size="15.0" fill="#000000" transform="matrix(1.00, 0.00, -0.00, -1.00, 80.7, 31.0)">i</text><text xml:space="preserve" font-family="Helvetica-Light" font-size="15.0" fill="#000000" transform="matrix(1.00, 0.00, -0.00, -1.00, 84.0, 31.0)">s</text><text xml:space="preserve" font-family="Helvetica-Light" font-size="15.0" fill="#000000" transform="matrix(1.00, 0.00, -0.00, -1.00, 91.5, 31.0)">t</text><text xml:space="preserve" font-family="Helvetica-Light" font-size="15.0" fill="#000000" transform="matrix(1.00, 0.00, -0.00, -1.00, 95.7, 31.0)">i</text><text xml:space="preserve" font-family="Helvetica-Light" font-size="15.0" fill="#000000" transform="matrix(1.00, 0.00, -0.00, -1.00, 99.0, 31.0)">c</text><text xml:space="preserve" font-family="Helvetica-Light" font-size="15.0" fill="#000000" transform="matrix(1.00, 0.00, -0.00, -1.00, 107.4, 31.0)">s</text><text xml:space="preserve" font-family="Helvetica-Light" font-size="15.0" fill="#000000" transform="matrix(1.00, 0.00, -0.00, -1.00, 114.9, 31.0)"> </text><text xml:space="preserve" font-family="Helvetica-Light" font-size="15.0" fill="#000000" transform="matrix(1.00, 0.00, -0.00, -1.00, 119.0, 31.0)">o</text><text xml:space="preserve" font-family="Helvetica-Light" font-size="15.0" fill="#000000" transform="matrix(1.00, 0.00, -0.00, -1.00, 127.4, 31.0)">f</text><text xml:space="preserve" font-family="Helvetica-Light" font-size="15.0" fill="#000000" transform="matrix(1.00, 0.00, -0.00, -1.00, 131.5, 31.0)"> </text><text xml:space="preserve" font-family="Helvetica-Light" font-size="15.0" fill="#000000" transform="matrix(1.00, 0.00, -0.00, -1.00, 135.7, 31.0)">a</text><text xml:space="preserve" font-family="Helvetica-Light" font-size="15.0" fill="#000000" transform="matrix(1.00, 0.00, -0.00, -1.00, 144.1, 31.0)"> </text><text xml:space="preserve" font-family="Helvetica-Light" font-size="15.0" fill="#000000" transform="matrix(1.00, 0.00, -0.00, -1.00, 148.2, 31.0)">M</text><text xml:space="preserve" font-family="Helvetica-Light" font-size="15.0" fill="#000000" transform="matrix(1.00, 0.00, -0.00, -1.00, 160.7, 31.0)">i</text><text xml:space="preserve" font-family="Helvetica-Light" font-size="15.0" fill="#000000" transform="matrix(1.00, 0.00, -0.00, -1.00, 164.0, 31.0)">c</text><text xml:space="preserve" font-family="Helvetica-Light" font-size="15.0" fill="#000000" transform="matrix(1.00, 0.00, -0.00, -1.00, 172.4, 31.0)">r</text><text xml:space="preserve" font-family="Helvetica-Light" font-size="15.0" fill="#000000" transform="matrix(1.00, 0.00, -0.00, -1.00, 177.1, 31.0)">o</text><text xml:space="preserve" font-family="Helvetica-Light" font-size="15.0" fill="#000000" transform="matrix(1.00, 0.00, -0.00, -1.00, 185.5, 31.0)">s</text><text xml:space="preserve" font-family="Helvetica-Light" font-size="15.0" fill="#000000" transform="matrix(1.00, 0.00, -0.00, -1.00, 193.0, 31.0)">e</text><text xml:space="preserve" font-family="Helvetica-Light" font-size="15.0" fill="#000000" transform="matrix(1.00, 0.00, -0.00, -1.00, 201.3, 31.0)">r</text><text xml:space="preserve" font-family="Helvetica-Light" font-size="15.0" fill="#000000" transform="matrix(1.00, 0.00, -0.00, -1.00, 206.3, 31.0)">v</text><text xml:space="preserve" font-family="Helvetica-Light" font-size="15.0" fill="#000000" transform="matrix(1.00, 0.00, -0.00, -1.00, 213.8, 31.0)">i</text><text xml:space="preserve" font-family="Helvetica-Light" font-size="15.0" fill="#000000" transform="matrix(1.00, 0.00, -0.00, -1.00, 217.1, 31.0)">c</text><text xml:space="preserve" font-family="Helvetica-Light" font-size="15.0" fill="#000000" transform="matrix(1.00, 0.00, -0.00, -1.00, 225.5, 31.0)">e</text><text xml:space="preserve" font-family="Helvetica-Light" font-size="15.0" fill="#000000" transform="matrix(1.00, 0.00, -0.00, -1.00, 233.8, 31.0)"> </text><image xlink:href="../../DA9F249A-F404-4C83-AD61-A79F8F4D0665/assets/452D66FCA0FE5D5AA7DAAC79839FC2A8.png" width="688.00" height="259.00" transform="matrix(1.00, 0.00, -0.00, -1.00, 324.0, 293.0)"></image><text xml:space="preserve" font-family="Helvetica-Light" font-size="22.5" fill="#000000" transform="matrix(1.00, 0.00, -0.00, -1.00, 122.6, 580.5)">&gt;</text><text xml:space="preserve" font-family="Helvetica-Light" font-size="30.0" fill="#000000" transform="matrix(1.00, 0.00, -0.00, -1.00, 157.0, 577.0)">b</text><text xml:space="preserve" font-family="Helvetica-Light" font-size="30.0" fill="#000000" transform="matrix(1.00, 0.00, -0.00, -1.00, 175.3, 577.0)">u</text><text xml:space="preserve" font-family="Helvetica-Light" font-size="30.0" fill="#000000" transform="matrix(1.00, 0.00, -0.00, -1.00, 192.0, 577.0)">i</text><text xml:space="preserve" font-family="Helvetica-Light" font-size="30.0" fill="#000000" transform="matrix(1.00, 0.00, -0.00, -1.00, 198.7, 577.0)">l</text><text xml:space="preserve" font-family="Helvetica-Light" font-size="30.0" fill="#000000" transform="matrix(1.00, 0.00, -0.00, -1.00, 205.3, 577.0)">d</text><text xml:space="preserve" font-family="Helvetica-Light" font-size="30.0" fill="#000000" transform="matrix(1.00, 0.00, -0.00, -1.00, 223.7, 577.0)">s</text><text xml:space="preserve" font-family="Helvetica-Light" font-size="22.5" fill="#000000" transform="matrix(1.00, 0.00, -0.00, -1.00, 122.6, 526.5)">&gt;</text><text xml:space="preserve" font-family="Helvetica-Light" font-size="30.0" fill="#000000" transform="matrix(1.00, 0.00, -0.00, -1.00, 157.0, 523.0)">t</text><text xml:space="preserve" font-family="Helvetica-Light" font-size="30.0" fill="#000000" transform="matrix(1.00, 0.00, -0.00, -1.00, 165.3, 523.0)">e</text><text xml:space="preserve" font-family="Helvetica-Light" font-size="30.0" fill="#000000" transform="matrix(1.00, 0.00, -0.00, -1.00, 182.0, 523.0)">s</text><text xml:space="preserve" font-family="Helvetica-Light" font-size="30.0" fill="#000000" transform="matrix(1.00, 0.00, -0.00, -1.00, 197.0, 523.0)">t</text><text xml:space="preserve" font-family="Helvetica-Light" font-size="30.0" fill="#000000" transform="matrix(1.00, 0.00, -0.00, -1.00, 205.4, 523.0)">s</text><text xml:space="preserve" font-family="Helvetica-Light" font-size="30.0" fill="#000000" transform="matrix(1.00, 0.00, -0.00, -1.00, 220.4, 523.0)"> </text><text xml:space="preserve" font-family="Helvetica-Light" font-size="30.0" fill="#000000" transform="matrix(1.00, 0.00, -0.00, -1.00, 228.7, 523.0)">-</text><text xml:space="preserve" font-family="Helvetica-Light" font-size="30.0" fill="#000000" transform="matrix(1.00, 0.00, -0.00, -1.00, 238.7, 523.0)"> </text><text xml:space="preserve" font-family="Helvetica-Light" font-size="30.0" fill="#000000" transform="matrix(1.00, 0.00, -0.00, -1.00, 247.0, 523.0)">u</text><text xml:space="preserve" font-family="Helvetica-Light" font-size="30.0" fill="#000000" transform="matrix(1.00, 0.00, -0.00, -1.00, 263.7, 523.0)">n</text><text xml:space="preserve" font-family="Helvetica-Light" font-size="30.0" fill="#000000" transform="matrix(1.00, 0.00, -0.00, -1.00, 280.4, 523.0)">i</text><text xml:space="preserve" font-family="Helvetica-Light" font-size="30.0" fill="#000000" transform="matrix(1.00, 0.00, -0.00, -1.00, 287.1, 523.0)">t</text><text xml:space="preserve" font-family="Helvetica-Light" font-size="30.0" fill="#000000" transform="matrix(1.00, 0.00, -0.00, -1.00, 295.4, 523.0)">,</text><text xml:space="preserve" font-family="Helvetica-Light" font-size="30.0" fill="#000000" transform="matrix(1.00, 0.00, -0.00, -1.00, 303.7, 523.0)"> </text><text xml:space="preserve" font-family="Helvetica-Light" font-size="30.0" fill="#000000" transform="matrix(1.00, 0.00, -0.00, -1.00, 312.1, 523.0)">i</text><text xml:space="preserve" font-family="Helvetica-Light" font-size="30.0" fill="#000000" transform="matrix(1.00, 0.00, -0.00, -1.00, 318.7, 523.0)">n</text><text xml:space="preserve" font-family="Helvetica-Light" font-size="30.0" fill="#000000" transform="matrix(1.00, 0.00, -0.00, -1.00, 335.4, 523.0)">t</text><text xml:space="preserve" font-family="Helvetica-Light" font-size="30.0" fill="#000000" transform="matrix(1.00, 0.00, -0.00, -1.00, 343.8, 523.0)">e</text><text xml:space="preserve" font-family="Helvetica-Light" font-size="30.0" fill="#000000" transform="matrix(1.00, 0.00, -0.00, -1.00, 360.4, 523.0)">g</text><text xml:space="preserve" font-family="Helvetica-Light" font-size="30.0" fill="#000000" transform="matrix(1.00, 0.00, -0.00, -1.00, 378.8, 523.0)">r</text><text xml:space="preserve" font-family="Helvetica-Light" font-size="30.0" fill="#000000" transform="matrix(1.00, 0.00, -0.00, -1.00, 388.8, 523.0)">a</text><text xml:space="preserve" font-family="Helvetica-Light" font-size="30.0" fill="#000000" transform="matrix(1.00, 0.00, -0.00, -1.00, 405.4, 523.0)">t</text><text xml:space="preserve" font-family="Helvetica-Light" font-size="30.0" fill="#000000" transform="matrix(1.00, 0.00, -0.00, -1.00, 413.8, 523.0)">i</text><text xml:space="preserve" font-family="Helvetica-Light" font-size="30.0" fill="#000000" transform="matrix(1.00, 0.00, -0.00, -1.00, 420.4, 523.0)">o</text><text xml:space="preserve" font-family="Helvetica-Light" font-size="30.0" fill="#000000" transform="matrix(1.00, 0.00, -0.00, -1.00, 437.1, 523.0)">n</text><text xml:space="preserve" font-family="Helvetica-Light" font-size="30.0" fill="#000000" transform="matrix(1.00, 0.00, -0.00, -1.00, 453.8, 523.0)">,</text><text xml:space="preserve" font-family="Helvetica-Light" font-size="30.0" fill="#000000" transform="matrix(1.00, 0.00, -0.00, -1.00, 462.1, 523.0)"> </text><text xml:space="preserve" font-family="Helvetica-Light" font-size="30.0" fill="#000000" transform="matrix(1.00, 0.00, -0.00, -1.00, 470.5, 523.0)">e</text><text xml:space="preserve" font-family="Helvetica-Light" font-size="30.0" fill="#000000" transform="matrix(1.00, 0.00, -0.00, -1.00, 487.2, 523.0)">n</text><text xml:space="preserve" font-family="Helvetica-Light" font-size="30.0" fill="#000000" transform="matrix(1.00, 0.00, -0.00, -1.00, 503.8, 523.0)">d</text><text xml:space="preserve" font-family="Helvetica-Light" font-size="30.0" fill="#000000" transform="matrix(1.00, 0.00, -0.00, -1.00, 522.2, 523.0)"> </text><text xml:space="preserve" font-family="Helvetica-Light" font-size="30.0" fill="#000000" transform="matrix(1.00, 0.00, -0.00, -1.00, 530.5, 523.0)">t</text><text xml:space="preserve" font-family="Helvetica-Light" font-size="30.0" fill="#000000" transform="matrix(1.00, 0.00, -0.00, -1.00, 538.8, 523.0)">o</text><text xml:space="preserve" font-family="Helvetica-Light" font-size="30.0" fill="#000000" transform="matrix(1.00, 0.00, -0.00, -1.00, 555.5, 523.0)"> </text><text xml:space="preserve" font-family="Helvetica-Light" font-size="30.0" fill="#000000" transform="matrix(1.00, 0.00, -0.00, -1.00, 563.9, 523.0)">e</text><text xml:space="preserve" font-family="Helvetica-Light" font-size="30.0" fill="#000000" transform="matrix(1.00, 0.00, -0.00, -1.00, 580.5, 523.0)">n</text><text xml:space="preserve" font-family="Helvetica-Light" font-size="30.0" fill="#000000" transform="matrix(1.00, 0.00, -0.00, -1.00, 597.2, 523.0)">d</text><text xml:space="preserve" font-family="Helvetica-Light" font-size="30.0" fill="#000000" transform="matrix(1.00, 0.00, -0.00, -1.00, 615.5, 523.0)">,</text><text xml:space="preserve" font-family="Helvetica-Light" font-size="30.0" fill="#000000" transform="matrix(1.00, 0.00, -0.00, -1.00, 623.9, 523.0)"> </text><text xml:space="preserve" font-family="Helvetica-Light" font-size="30.0" fill="#000000" transform="matrix(1.00, 0.00, -0.00, -1.00, 632.2, 523.0)">p</text><text xml:space="preserve" font-family="Helvetica-Light" font-size="30.0" fill="#000000" transform="matrix(1.00, 0.00, -0.00, -1.00, 650.6, 523.0)">e</text><text xml:space="preserve" font-family="Helvetica-Light" font-size="30.0" fill="#000000" transform="matrix(1.00, 0.00, -0.00, -1.00, 667.2, 523.0)">r</text><text xml:space="preserve" font-family="Helvetica-Light" font-size="30.0" fill="#000000" transform="matrix(1.00, 0.00, -0.00, -1.00, 677.8, 523.0)">f</text><text xml:space="preserve" font-family="Helvetica-Light" font-size="30.0" fill="#000000" transform="matrix(1.00, 0.00, -0.00, -1.00, 686.1, 523.0)">o</text><text xml:space="preserve" font-family="Helvetica-Light" font-size="30.0" fill="#000000" transform="matrix(1.00, 0.00, -0.00, -1.00, 702.8, 523.0)">r</text><text xml:space="preserve" font-family="Helvetica-Light" font-size="30.0" fill="#000000" transform="matrix(1.00, 0.00, -0.00, -1.00, 713.3, 523.0)">m</text><text xml:space="preserve" font-family="Helvetica-Light" font-size="30.0" fill="#000000" transform="matrix(1.00, 0.00, -0.00, -1.00, 738.3, 523.0)">a</text><text xml:space="preserve" font-family="Helvetica-Light" font-size="30.0" fill="#000000" transform="matrix(1.00, 0.00, -0.00, -1.00, 755.0, 523.0)">n</text><text xml:space="preserve" font-family="Helvetica-Light" font-size="30.0" fill="#000000" transform="matrix(1.00, 0.00, -0.00, -1.00, 771.7, 523.0)">c</text><text xml:space="preserve" font-family="Helvetica-Light" font-size="30.0" fill="#000000" transform="matrix(1.00, 0.00, -0.00, -1.00, 788.3, 523.0)">e</text><text xml:space="preserve" font-family="Helvetica-Light" font-size="22.5" fill="#000000" transform="matrix(1.00, 0.00, -0.00, -1.00, 122.6, 472.5)">&gt;</text><text xml:space="preserve" font-family="Helvetica-Light" font-size="30.0" fill="#000000" transform="matrix(1.00, 0.00, -0.00, -1.00, 157.0, 469.0)">p</text><text xml:space="preserve" font-family="Helvetica-Light" font-size="30.0" fill="#000000" transform="matrix(1.00, 0.00, -0.00, -1.00, 175.3, 469.0)">r</text><text xml:space="preserve" font-family="Helvetica-Light" font-size="30.0" fill="#000000" transform="matrix(1.00, 0.00, -0.00, -1.00, 184.8, 469.0)">o</text><text xml:space="preserve" font-family="Helvetica-Light" font-size="30.0" fill="#000000" transform="matrix(1.00, 0.00, -0.00, -1.00, 201.5, 469.0)">v</text><text xml:space="preserve" font-family="Helvetica-Light" font-size="30.0" fill="#000000" transform="matrix(1.00, 0.00, -0.00, -1.00, 216.5, 469.0)">i</text><text xml:space="preserve" font-family="Helvetica-Light" font-size="30.0" fill="#000000" transform="matrix(1.00, 0.00, -0.00, -1.00, 223.1, 469.0)">s</text><text xml:space="preserve" font-family="Helvetica-Light" font-size="30.0" fill="#000000" transform="matrix(1.00, 0.00, -0.00, -1.00, 238.1, 469.0)">i</text><text xml:space="preserve" font-family="Helvetica-Light" font-size="30.0" fill="#000000" transform="matrix(1.00, 0.00, -0.00, -1.00, 244.8, 469.0)">o</text><text xml:space="preserve" font-family="Helvetica-Light" font-size="30.0" fill="#000000" transform="matrix(1.00, 0.00, -0.00, -1.00, 261.5, 469.0)">n</text><text xml:space="preserve" font-family="Helvetica-Light" font-size="30.0" fill="#000000" transform="matrix(1.00, 0.00, -0.00, -1.00, 278.1, 469.0)">i</text><text xml:space="preserve" font-family="Helvetica-Light" font-size="30.0" fill="#000000" transform="matrix(1.00, 0.00, -0.00, -1.00, 284.8, 469.0)">n</text><text xml:space="preserve" font-family="Helvetica-Light" font-size="30.0" fill="#000000" transform="matrix(1.00, 0.00, -0.00, -1.00, 301.5, 469.0)">g</text><text xml:space="preserve" font-family="Helvetica-Light" font-size="22.5" fill="#000000" transform="matrix(1.00, 0.00, -0.00, -1.00, 122.6, 418.5)">&gt;</text><text xml:space="preserve" font-family="Helvetica-Light" font-size="30.0" fill="#000000" transform="matrix(1.00, 0.00, -0.00, -1.00, 157.0, 415.0)">d</text><text xml:space="preserve" font-family="Helvetica-Light" font-size="30.0" fill="#000000" transform="matrix(1.00, 0.00, -0.00, -1.00, 175.3, 415.0)">e</text><text xml:space="preserve" font-family="Helvetica-Light" font-size="30.0" fill="#000000" transform="matrix(1.00, 0.00, -0.00, -1.00, 192.0, 415.0)">p</text><text xml:space="preserve" font-family="Helvetica-Light" font-size="30.0" fill="#000000" transform="matrix(1.00, 0.00, -0.00, -1.00, 210.3, 415.0)">l</text><text xml:space="preserve" font-family="Helvetica-Light" font-size="30.0" fill="#000000" transform="matrix(1.00, 0.00, -0.00, -1.00, 217.0, 415.0)">o</text><text xml:space="preserve" font-family="Helvetica-Light" font-size="30.0" fill="#000000" transform="matrix(1.00, 0.00, -0.00, -1.00, 233.7, 415.0)">y</text><text xml:space="preserve" font-family="Helvetica-Light" font-size="30.0" fill="#000000" transform="matrix(1.00, 0.00, -0.00, -1.00, 248.7, 415.0)">m</text><text xml:space="preserve" font-family="Helvetica-Light" font-size="30.0" fill="#000000" transform="matrix(1.00, 0.00, -0.00, -1.00, 273.7, 415.0)">e</text><text xml:space="preserve" font-family="Helvetica-Light" font-size="30.0" fill="#000000" transform="matrix(1.00, 0.00, -0.00, -1.00, 290.4, 415.0)">n</text><text xml:space="preserve" font-family="Helvetica-Light" font-size="30.0" fill="#000000" transform="matrix(1.00, 0.00, -0.00, -1.00, 307.0, 415.0)">t</text><text xml:space="preserve" font-family="Helvetica-Light" font-size="22.5" fill="#000000" transform="matrix(1.00, 0.00, -0.00, -1.00, 157.6, 364.5)">&gt;</text><text xml:space="preserve" font-family="Helvetica-Light" font-size="30.0" fill="#000000" transform="matrix(1.00, 0.00, -0.00, -1.00, 192.0, 361.0)">f</text><text xml:space="preserve" font-family="Helvetica-Light" font-size="30.0" fill="#000000" transform="matrix(1.00, 0.00, -0.00, -1.00, 200.3, 361.0)">r</text><text xml:space="preserve" font-family="Helvetica-Light" font-size="30.0" fill="#000000" transform="matrix(1.00, 0.00, -0.00, -1.00, 209.8, 361.0)">o</text><text xml:space="preserve" font-family="Helvetica-Light" font-size="30.0" fill="#000000" transform="matrix(1.00, 0.00, -0.00, -1.00, 226.5, 361.0)">m</text><text xml:space="preserve" font-family="Helvetica-Light" font-size="30.0" fill="#000000" transform="matrix(1.00, 0.00, -0.00, -1.00, 251.5, 361.0)"> </text><text xml:space="preserve" font-family="Helvetica-Light" font-size="30.0" fill="#000000" transform="matrix(1.00, 0.00, -0.00, -1.00, 259.8, 361.0)">t</text><text xml:space="preserve" font-family="Helvetica-Light" font-size="30.0" fill="#000000" transform="matrix(1.00, 0.00, -0.00, -1.00, 268.1, 361.0)">e</text><text xml:space="preserve" font-family="Helvetica-Light" font-size="30.0" fill="#000000" transform="matrix(1.00, 0.00, -0.00, -1.00, 284.8, 361.0)">s</text><text xml:space="preserve" font-family="Helvetica-Light" font-size="30.0" fill="#000000" transform="matrix(1.00, 0.00, -0.00, -1.00, 299.8, 361.0)">t</text><text xml:space="preserve" font-family="Helvetica-Light" font-size="30.0" fill="#000000" transform="matrix(1.00, 0.00, -0.00, -1.00, 308.2, 361.0)"> </text><text xml:space="preserve" font-family="Helvetica-Light" font-size="30.0" fill="#000000" transform="matrix(1.00, 0.00, -0.00, -1.00, 316.5, 361.0)">e</text><text xml:space="preserve" font-family="Helvetica-Light" font-size="30.0" fill="#000000" transform="matrix(1.00, 0.00, -0.00, -1.00, 333.2, 361.0)">n</text><text xml:space="preserve" font-family="Helvetica-Light" font-size="30.0" fill="#000000" transform="matrix(1.00, 0.00, -0.00, -1.00, 349.9, 361.0)">v</text><text xml:space="preserve" font-family="Helvetica-Light" font-size="30.0" fill="#000000" transform="matrix(1.00, 0.00, -0.00, -1.00, 364.9, 361.0)">i</text><text xml:space="preserve" font-family="Helvetica-Light" font-size="30.0" fill="#000000" transform="matrix(1.00, 0.00, -0.00, -1.00, 371.5, 361.0)">r</text><text xml:space="preserve" font-family="Helvetica-Light" font-size="30.0" fill="#000000" transform="matrix(1.00, 0.00, -0.00, -1.00, 381.0, 361.0)">o</text><text xml:space="preserve" font-family="Helvetica-Light" font-size="30.0" fill="#000000" transform="matrix(1.00, 0.00, -0.00, -1.00, 397.7, 361.0)">n</text><text xml:space="preserve" font-family="Helvetica-Light" font-size="30.0" fill="#000000" transform="matrix(1.00, 0.00, -0.00, -1.00, 414.3, 361.0)">m</text><text xml:space="preserve" font-family="Helvetica-Light" font-size="30.0" fill="#000000" transform="matrix(1.00, 0.00, -0.00, -1.00, 439.3, 361.0)">e</text><text xml:space="preserve" font-family="Helvetica-Light" font-size="30.0" fill="#000000" transform="matrix(1.00, 0.00, -0.00, -1.00, 456.0, 361.0)">n</text><text xml:space="preserve" font-family="Helvetica-Light" font-size="30.0" fill="#000000" transform="matrix(1.00, 0.00, -0.00, -1.00, 472.7, 361.0)">t</text><text xml:space="preserve" font-family="Helvetica-Light" font-size="22.5" fill="#000000" transform="matrix(1.00, 0.00, -0.00, -1.00, 157.6, 310.5)">&gt;</text><text xml:space="preserve" font-family="Helvetica-Light" font-size="30.0" fill="#000000" transform="matrix(1.00, 0.00, -0.00, -1.00, 192.0, 307.0)">t</text><text xml:space="preserve" font-family="Helvetica-Light" font-size="30.0" fill="#000000" transform="matrix(1.00, 0.00, -0.00, -1.00, 200.3, 307.0)">o</text><text xml:space="preserve" font-family="Helvetica-Light" font-size="30.0" fill="#000000" transform="matrix(1.00, 0.00, -0.00, -1.00, 217.0, 307.0)"> </text><text xml:space="preserve" font-family="Helvetica-Light" font-size="30.0" fill="#000000" transform="matrix(1.00, 0.00, -0.00, -1.00, 225.4, 307.0)">p</text><text xml:space="preserve" font-family="Helvetica-Light" font-size="30.0" fill="#000000" transform="matrix(1.00, 0.00, -0.00, -1.00, 243.7, 307.0)">r</text><text xml:space="preserve" font-family="Helvetica-Light" font-size="30.0" fill="#000000" transform="matrix(1.00, 0.00, -0.00, -1.00, 253.1, 307.0)">o</text><text xml:space="preserve" font-family="Helvetica-Light" font-size="30.0" fill="#000000" transform="matrix(1.00, 0.00, -0.00, -1.00, 269.8, 307.0)">d</text><text xml:space="preserve" font-family="Helvetica-Light" font-size="30.0" fill="#000000" transform="matrix(1.00, 0.00, -0.00, -1.00, 288.1, 307.0)">u</text><text xml:space="preserve" font-family="Helvetica-Light" font-size="30.0" fill="#000000" transform="matrix(1.00, 0.00, -0.00, -1.00, 304.8, 307.0)">c</text><text xml:space="preserve" font-family="Helvetica-Light" font-size="30.0" fill="#000000" transform="matrix(1.00, 0.00, -0.00, -1.00, 321.5, 307.0)">t</text><text xml:space="preserve" font-family="Helvetica-Light" font-size="30.0" fill="#000000" transform="matrix(1.00, 0.00, -0.00, -1.00, 329.9, 307.0)">i</text><text xml:space="preserve" font-family="Helvetica-Light" font-size="30.0" fill="#000000" transform="matrix(1.00, 0.00, -0.00, -1.00, 336.5, 307.0)">o</text><text xml:space="preserve" font-family="Helvetica-Light" font-size="30.0" fill="#000000" transform="matrix(1.00, 0.00, -0.00, -1.00, 353.2, 307.0)">n</text></g></svg>