<?xml version="1.0" encoding="UTF-8" standalone="no"?><svg xmlns="http://www.w3.org/2000/svg" xmlns:xlink="http://www.w3.org/1999/xlink" clip-rule="evenodd" stroke-miterlimit="4.00" viewBox="0 0 1024 768"><desc>SVG generated by Keynote</desc><defs></defs><g transform="matrix(1.00, 0.00, -0.00, -1.00, 0.0, 768.0)"><path d="M 0.0 768.0 L 1024.0 768.0 L 1024.0 0.0 L 0.0 0.0 Z M 0.0 768.0 " fill="#FEFFFF"></path><text xml:space="preserve" font-family="Helvetica-Light" font-size="50.0" fill="#000000" transform="matrix(1.00, 0.00, -0.00, -1.00, 194.0, 482.0)">S</text><text xml:space="preserve" font-family="Helvetica-Light" font-size="50.0" fill="#000000" transform="matrix(1.00, 0.00, -0.00, -1.00, 224.6, 482.0)">m</text><text xml:space="preserve" font-family="Helvetica-Light" font-size="50.0" fill="#000000" transform="matrix(1.00, 0.00, -0.00, -1.00, 266.2, 482.0)">a</text><text xml:space="preserve" font-family="Helvetica-Light" font-size="50.0" fill="#000000" transform="matrix(1.00, 0.00, -0.00, -1.00, 294.0, 482.0)">l</text><text xml:space="preserve" font-family="Helvetica-Light" font-size="50.0" fill="#000000" transform="matrix(1.00, 0.00, -0.00, -1.00, 305.1, 482.0)">l</text><text xml:space="preserve" font-family="Helvetica-Light" font-size="50.0" fill="#000000" transform="matrix(1.00, 0.00, -0.00, -1.00, 316.2, 482.0)"> </text><text xml:space="preserve" font-family="Helvetica-BoldOblique" font-style="italic" font-weight="bold" font-size="50.0" fill="#000000" transform="matrix(1.00, 0.00, -0.00, -1.00, 330.1, 482.0)">a</text><text xml:space="preserve" font-family="Helvetica-BoldOblique" font-style="italic" font-weight="bold" font-size="50.0" fill="#000000" transform="matrix(1.00, 0.00, -0.00, -1.00, 357.9, 482.0)">u</text><text xml:space="preserve" font-family="Helvetica-BoldOblique" font-style="italic" font-weight="bold" font-size="50.0" fill="#000000" transform="matrix(1.00, 0.00, -0.00, -1.00, 388.4, 482.0)">t</text><text xml:space="preserve" font-family="Helvetica-BoldOblique" font-style="italic" font-weight="bold" font-size="50.0" fill="#000000" transform="matrix(1.00, 0.00, -0.00, -1.00, 405.1, 482.0)">o</text><text xml:space="preserve" font-family="Helvetica-BoldOblique" font-style="italic" font-weight="bold" font-size="50.0" fill="#000000" transform="matrix(1.00, 0.00, -0.00, -1.00, 435.6, 482.0)">n</text><text xml:space="preserve" font-family="Helvetica-BoldOblique" font-style="italic" font-weight="bold" font-size="50.0" fill="#000000" transform="matrix(1.00, 0.00, -0.00, -1.00, 466.2, 482.0)">o</text><text xml:space="preserve" font-family="Helvetica-BoldOblique" font-style="italic" font-weight="bold" font-size="50.0" fill="#000000" transform="matrix(1.00, 0.00, -0.00, -1.00, 496.7, 482.0)">m</text><text xml:space="preserve" font-family="Helvetica-BoldOblique" font-style="italic" font-weight="bold" font-size="50.0" fill="#000000" transform="matrix(1.00, 0.00, -0.00, -1.00, 541.2, 482.0)">o</text><text xml:space="preserve" font-family="Helvetica-BoldOblique" font-style="italic" font-weight="bold" font-size="50.0" fill="#000000" transform="matrix(1.00, 0.00, -0.00, -1.00, 571.7, 482.0)">u</text><text xml:space="preserve" font-family="Helvetica-BoldOblique" font-style="italic" font-weight="bold" font-size="50.0" fill="#000000" transform="matrix(1.00, 0.00, -0.00, -1.00, 602.2, 482.0)">s</text><text xml:space="preserve" font-family="Helvetica-Light" font-size="50.0" fill="#000000" transform="matrix(1.00, 0.00, -0.00, -1.00, 630.1, 482.0)"> </text><text xml:space="preserve" font-family="Helvetica-Light" font-size="50.0" fill="#000000" transform="matrix(1.00, 0.00, -0.00, -1.00, 644.0, 482.0)">s</text><text xml:space="preserve" font-family="Helvetica-Light" font-size="50.0" fill="#000000" transform="matrix(1.00, 0.00, -0.00, -1.00, 669.0, 482.0)">e</text><text xml:space="preserve" font-family="Helvetica-Light" font-size="50.0" fill="#000000" transform="matrix(1.00, 0.00, -0.00, -1.00, 696.8, 482.0)">r</text><text xml:space="preserve" font-family="Helvetica-Light" font-size="50.0" fill="#000000" transform="matrix(1.00, 0.00, -0.00, -1.00, 713.4, 482.0)">v</text><text xml:space="preserve" font-family="Helvetica-Light" font-size="50.0" fill="#000000" transform="matrix(1.00, 0.00, -0.00, -1.00, 738.4, 482.0)">i</text><text xml:space="preserve" font-family="Helvetica-Light" font-size="50.0" fill="#000000" transform="matrix(1.00, 0.00, -0.00, -1.00, 749.5, 482.0)">c</text><text xml:space="preserve" font-family="Helvetica-Light" font-size="50.0" fill="#000000" transform="matrix(1.00, 0.00, -0.00, -1.00, 777.3, 482.0)">e</text><text xml:space="preserve" font-family="Helvetica-Light" font-size="50.0" fill="#000000" transform="matrix(1.00, 0.00, -0.00, -1.00, 805.1, 482.0)">s</text><text xml:space="preserve" font-family="Helvetica-Light" font-size="50.0" fill="#000000" transform="matrix(1.00, 0.00, -0.00, -1.00, 830.1, 482.0)"> </text><text xml:space="preserve" font-family="Helvetica-Light" font-size="50.0" fill="#000000" transform="matrix(1.00, 0.00, -0.00, -1.00, 298.0, 422.0)">t</text><text xml:space="preserve" font-family="Helvetica-Light" font-size="50.0" fill="#000000" transform="matrix(1.00, 0.00, -0.00, -1.00, 311.9, 422.0)">h</text><text xml:space="preserve" font-family="Helvetica-Light" font-size="50.0" fill="#000000" transform="matrix(1.00, 0.00, -0.00, -1.00, 339.7, 422.0)">a</text><text xml:space="preserve" font-family="Helvetica-Light" font-size="50.0" fill="#000000" transform="matrix(1.00, 0.00, -0.00, -1.00, 367.5, 422.0)">t</text><text xml:space="preserve" font-family="Helvetica-Light" font-size="50.0" fill="#000000" transform="matrix(1.00, 0.00, -0.00, -1.00, 381.4, 422.0)"> </text><text xml:space="preserve" font-family="Helvetica-BoldOblique" font-style="italic" font-weight="bold" font-size="50.0" fill="#000000" transform="matrix(1.00, 0.00, -0.00, -1.00, 395.3, 422.0)">w</text><text xml:space="preserve" font-family="Helvetica-BoldOblique" font-style="italic" font-weight="bold" font-size="50.0" fill="#000000" transform="matrix(1.00, 0.00, -0.00, -1.00, 434.2, 422.0)">o</text><text xml:space="preserve" font-family="Helvetica-BoldOblique" font-style="italic" font-weight="bold" font-size="50.0" fill="#000000" transform="matrix(1.00, 0.00, -0.00, -1.00, 464.7, 422.0)">r</text><text xml:space="preserve" font-family="Helvetica-BoldOblique" font-style="italic" font-weight="bold" font-size="50.0" fill="#000000" transform="matrix(1.00, 0.00, -0.00, -1.00, 484.2, 422.0)">k</text><text xml:space="preserve" font-family="Helvetica-BoldOblique" font-style="italic" font-weight="bold" font-size="50.0" fill="#000000" transform="matrix(1.00, 0.00, -0.00, -1.00, 512.0, 422.0)"> </text><text xml:space="preserve" font-family="Helvetica-BoldOblique" font-style="italic" font-weight="bold" font-size="50.0" fill="#000000" transform="matrix(1.00, 0.00, -0.00, -1.00, 525.9, 422.0)">t</text><text xml:space="preserve" font-family="Helvetica-BoldOblique" font-style="italic" font-weight="bold" font-size="50.0" fill="#000000" transform="matrix(1.00, 0.00, -0.00, -1.00, 542.5, 422.0)">o</text><text xml:space="preserve" font-family="Helvetica-BoldOblique" font-style="italic" font-weight="bold" font-size="50.0" fill="#000000" transform="matrix(1.00, 0.00, -0.00, -1.00, 573.1, 422.0)">g</text><text xml:space="preserve" font-family="Helvetica-BoldOblique" font-style="italic" font-weight="bold" font-size="50.0" fill="#000000" transform="matrix(1.00, 0.00, -0.00, -1.00, 603.6, 422.0)">e</text><text xml:space="preserve" font-family="Helvetica-BoldOblique" font-style="italic" font-weight="bold" font-size="50.0" fill="#000000" transform="matrix(1.00, 0.00, -0.00, -1.00, 631.4, 422.0)">t</text><text xml:space="preserve" font-family="Helvetica-BoldOblique" font-style="italic" font-weight="bold" font-size="50.0" fill="#000000" transform="matrix(1.00, 0.00, -0.00, -1.00, 648.1, 422.0)">h</text><text xml:space="preserve" font-family="Helvetica-BoldOblique" font-style="italic" font-weight="bold" font-size="50.0" fill="#000000" transform="matrix(1.00, 0.00, -0.00, -1.00, 678.6, 422.0)">e</text><text xml:space="preserve" font-family="Helvetica-BoldOblique" font-style="italic" font-weight="bold" font-size="50.0" fill="#000000" transform="matrix(1.00, 0.00, -0.00, -1.00, 706.4, 422.0)">r</text><text xml:space="preserve" font-family="Helvetica-Light" font-size="28.0" fill="#000000" transform="matrix(1.00, 0.00, -0.00, -1.00, 600.0, 353.0)">-</text><text xml:space="preserve" font-family="Helvetica-Light" font-size="28.0" fill="#000000" transform="matrix(1.00, 0.00, -0.00, -1.00, 609.3, 353.0)"> </text><text xml:space="preserve" font-family="Helvetica-Light" font-size="28.0" fill="#000000" transform="matrix(1.00, 0.00, -0.00, -1.00, 617.1, 353.0)">S</text><text xml:space="preserve" font-family="Helvetica-Light" font-size="28.0" fill="#000000" transform="matrix(1.00, 0.00, -0.00, -1.00, 634.2, 353.0)">a</text><text xml:space="preserve" font-family="Helvetica-Light" font-size="28.0" fill="#000000" transform="matrix(1.00, 0.00, -0.00, -1.00, 649.8, 353.0)">m</text><text xml:space="preserve" font-family="Helvetica-Light" font-size="28.0" fill="#000000" transform="matrix(1.00, 0.00, -0.00, -1.00, 673.1, 353.0)"> </text><text xml:space="preserve" font-family="Helvetica-Light" font-size="28.0" fill="#000000" transform="matrix(1.00, 0.00, -0.00, -1.00, 680.9, 353.0)">N</text><text xml:space="preserve" font-family="Helvetica-Light" font-size="28.0" fill="#000000" transform="matrix(1.00, 0.00, -0.00, -1.00, 701.1, 353.0)">e</text><text xml:space="preserve" font-family="Helvetica-Light" font-size="28.0" fill="#000000" transform="matrix(1.00, 0.00, -0.00, -1.00, 716.7, 353.0)">w</text><text xml:space="preserve" font-family="Helvetica-Light" font-size="28.0" fill="#000000" transform="matrix(1.00, 0.00, -0.00, -1.00, 736.9, 353.0)">m</text><text xml:space="preserve" font-family="Helvetica-Light" font-size="28.0" fill="#000000" transform="matrix(1.00, 0.00, -0.00, -1.00, 760.2, 353.0)">a</text><text xml:space="preserve" font-family="Helvetica-Light" font-size="28.0" fill="#000000" transform="matrix(1.00, 0.00, -0.00, -1.00, 775.8, 353.0)">n</text><image xlink:href="../../AC723E72-6131-4C13-BCAB-003CBC71B7E4/assets/5C2B2474DA5A9BB48ADD42E4B342AC3A.png" width="180.00" height="236.00" transform="matrix(1.00, 0.00, -0.00, -1.00, 58.0, 294.0)"></image><text xml:space="preserve" font-family="Helvetica-Light" font-size="15.0" fill="#000000" transform="matrix(1.00, 0.00, -0.00, -1.00, 16.0, 36.0)">W</text><text xml:space="preserve" font-family="Helvetica-Light" font-size="15.0" fill="#000000" transform="matrix(1.00, 0.00, -0.00, -1.00, 29.3, 36.0)">h</text><text xml:space="preserve" font-family="Helvetica-Light" font-size="15.0" fill="#000000" transform="matrix(1.00, 0.00, -0.00, -1.00, 37.7, 36.0)">a</text><text xml:space="preserve" font-family="Helvetica-Light" font-size="15.0" fill="#000000" transform="matrix(1.00, 0.00, -0.00, -1.00, 46.0, 36.0)">t</text><text xml:space="preserve" font-family="Helvetica-Light" font-size="15.0" fill="#000000" transform="matrix(1.00, 0.00, -0.00, -1.00, 50.2, 36.0)"> </text><text xml:space="preserve" font-family="Helvetica-Light" font-size="15.0" fill="#000000" transform="matrix(1.00, 0.00, -0.00, -1.00, 54.4, 36.0)">a</text><text xml:space="preserve" font-family="Helvetica-Light" font-size="15.0" fill="#000000" transform="matrix(1.00, 0.00, -0.00, -1.00, 62.7, 36.0)">r</text><text xml:space="preserve" font-family="Helvetica-Light" font-size="15.0" fill="#000000" transform="matrix(1.00, 0.00, -0.00, -1.00, 67.4, 36.0)">e</text><text xml:space="preserve" font-family="Helvetica-Light" font-size="15.0" fill="#000000" transform="matrix(1.00, 0.00, -0.00, -1.00, 75.8, 36.0)"> </text><text xml:space="preserve" font-family="Helvetica-Light" font-size="15.0" fill="#000000" transform="matrix(1.00, 0.00, -0.00, -1.00, 79.9, 36.0)">M</text><text xml:space="preserve" font-family="Helvetica-Light" font-size="15.0" fill="#000000" transform="matrix(1.00, 0.00, -0.00, -1.00, 92.4, 36.0)">i</text><text xml:space="preserve" font-family="Helvetica-Light" font-size="15.0" fill="#000000" transform="matrix(1.00, 0.00, -0.00, -1.00, 95.8, 36.0)">c</text><text xml:space="preserve" font-family="Helvetica-Light" font-size="15.0" fill="#000000" transform="matrix(1.00, 0.00, -0.00, -1.00, 104.1, 36.0)">r</text><text xml:space="preserve" font-family="Helvetica-Light" font-size="15.0" fill="#000000" transform="matrix(1.00, 0.00, -0.00, -1.00, 108.8, 36.0)">o</text><text xml:space="preserve" font-family="Helvetica-Light" font-size="15.0" fill="#000000" transform="matrix(1.00, 0.00, -0.00, -1.00, 117.2, 36.0)">s</text><text xml:space="preserve" font-family="Helvetica-Light" font-size="15.0" fill="#000000" transform="matrix(1.00, 0.00, -0.00, -1.00, 124.7, 36.0)">e</text><text xml:space="preserve" font-family="Helvetica-Light" font-size="15.0" fill="#000000" transform="matrix(1.00, 0.00, -0.00, -1.00, 133.0, 36.0)">r</text><text xml:space="preserve" font-family="Helvetica-Light" font-size="15.0" fill="#000000" transform="matrix(1.00, 0.00, -0.00, -1.00, 138.0, 36.0)">v</text><text xml:space="preserve" font-family="Helvetica-Light" font-size="15.0" fill="#000000" transform="matrix(1.00, 0.00, -0.00, -1.00, 145.5, 36.0)">i</text><text xml:space="preserve" font-family="Helvetica-Light" font-size="15.0" fill="#000000" transform="matrix(1.00, 0.00, -0.00, -1.00, 148.8, 36.0)">c</text><text xml:space="preserve" font-family="Helvetica-Light" font-size="15.0" fill="#000000" transform="matrix(1.00, 0.00, -0.00, -1.00, 157.2, 36.0)">e</text><text xml:space="preserve" font-family="Helvetica-Light" font-size="15.0" fill="#000000" transform="matrix(1.00, 0.00, -0.00, -1.00, 165.5, 36.0)">s</text><text xml:space="preserve" font-family="Helvetica-Light" font-size="15.0" fill="#000000" transform="matrix(1.00, 0.00, -0.00, -1.00, 173.0, 36.0)">?</text></g></svg>