<?xml version="1.0" encoding="UTF-8" standalone="no"?><svg xmlns="http://www.w3.org/2000/svg" xmlns:xlink="http://www.w3.org/1999/xlink" clip-rule="evenodd" stroke-miterlimit="4.00" viewBox="0 0 1024 768"><desc>SVG generated by Keynote</desc><defs></defs><g transform="matrix(1.00, 0.00, -0.00, -1.00, 0.0, 768.0)"><path d="M 0.0 768.0 L 1024.0 768.0 L 1024.0 0.0 L 0.0 0.0 Z M 0.0 768.0 " fill="#FEFFFF"></path><text xml:space="preserve" font-family="Helvetica-Light" font-size="40.0" fill="#000000" transform="matrix(1.00, 0.00, -0.00, -1.00, 151.0, 679.0)">O</text><text xml:space="preserve" font-family="Helvetica-Light" font-size="40.0" fill="#000000" transform="matrix(1.00, 0.00, -0.00, -1.00, 182.1, 679.0)">r</text><text xml:space="preserve" font-family="Helvetica-Light" font-size="40.0" fill="#000000" transform="matrix(1.00, 0.00, -0.00, -1.00, 195.4, 679.0)">g</text><text xml:space="preserve" font-family="Helvetica-Light" font-size="40.0" fill="#000000" transform="matrix(1.00, 0.00, -0.00, -1.00, 219.9, 679.0)">a</text><text xml:space="preserve" font-family="Helvetica-Light" font-size="40.0" fill="#000000" transform="matrix(1.00, 0.00, -0.00, -1.00, 242.1, 679.0)">n</text><text xml:space="preserve" font-family="Helvetica-Light" font-size="40.0" fill="#000000" transform="matrix(1.00, 0.00, -0.00, -1.00, 264.4, 679.0)">i</text><text xml:space="preserve" font-family="Helvetica-Light" font-size="40.0" fill="#000000" transform="matrix(1.00, 0.00, -0.00, -1.00, 273.2, 679.0)">z</text><text xml:space="preserve" font-family="Helvetica-Light" font-size="40.0" fill="#000000" transform="matrix(1.00, 0.00, -0.00, -1.00, 293.2, 679.0)">e</text><text xml:space="preserve" font-family="Helvetica-Light" font-size="40.0" fill="#000000" transform="matrix(1.00, 0.00, -0.00, -1.00, 315.5, 679.0)">d</text><text xml:space="preserve" font-family="Helvetica-Light" font-size="40.0" fill="#000000" transform="matrix(1.00, 0.00, -0.00, -1.00, 339.9, 679.0)"> </text><text xml:space="preserve" font-family="Helvetica-Light" font-size="40.0" fill="#000000" transform="matrix(1.00, 0.00, -0.00, -1.00, 351.0, 679.0)">a</text><text xml:space="preserve" font-family="Helvetica-Light" font-size="40.0" fill="#000000" transform="matrix(1.00, 0.00, -0.00, -1.00, 373.3, 679.0)">r</text><text xml:space="preserve" font-family="Helvetica-Light" font-size="40.0" fill="#000000" transform="matrix(1.00, 0.00, -0.00, -1.00, 385.9, 679.0)">o</text><text xml:space="preserve" font-family="Helvetica-Light" font-size="40.0" fill="#000000" transform="matrix(1.00, 0.00, -0.00, -1.00, 408.1, 679.0)">u</text><text xml:space="preserve" font-family="Helvetica-Light" font-size="40.0" fill="#000000" transform="matrix(1.00, 0.00, -0.00, -1.00, 430.4, 679.0)">n</text><text xml:space="preserve" font-family="Helvetica-Light" font-size="40.0" fill="#000000" transform="matrix(1.00, 0.00, -0.00, -1.00, 452.6, 679.0)">d</text><text xml:space="preserve" font-family="Helvetica-Light" font-size="40.0" fill="#000000" transform="matrix(1.00, 0.00, -0.00, -1.00, 477.0, 679.0)"> </text><text xml:space="preserve" font-family="Helvetica-Light" font-size="40.0" fill="#000000" transform="matrix(1.00, 0.00, -0.00, -1.00, 488.2, 679.0)">B</text><text xml:space="preserve" font-family="Helvetica-Light" font-size="40.0" fill="#000000" transform="matrix(1.00, 0.00, -0.00, -1.00, 514.8, 679.0)">u</text><text xml:space="preserve" font-family="Helvetica-Light" font-size="40.0" fill="#000000" transform="matrix(1.00, 0.00, -0.00, -1.00, 537.1, 679.0)">s</text><text xml:space="preserve" font-family="Helvetica-Light" font-size="40.0" fill="#000000" transform="matrix(1.00, 0.00, -0.00, -1.00, 557.1, 679.0)">i</text><text xml:space="preserve" font-family="Helvetica-Light" font-size="40.0" fill="#000000" transform="matrix(1.00, 0.00, -0.00, -1.00, 566.0, 679.0)">n</text><text xml:space="preserve" font-family="Helvetica-Light" font-size="40.0" fill="#000000" transform="matrix(1.00, 0.00, -0.00, -1.00, 588.2, 679.0)">e</text><text xml:space="preserve" font-family="Helvetica-Light" font-size="40.0" fill="#000000" transform="matrix(1.00, 0.00, -0.00, -1.00, 610.4, 679.0)">s</text><text xml:space="preserve" font-family="Helvetica-Light" font-size="40.0" fill="#000000" transform="matrix(1.00, 0.00, -0.00, -1.00, 630.4, 679.0)">s</text><text xml:space="preserve" font-family="Helvetica-Light" font-size="40.0" fill="#000000" transform="matrix(1.00, 0.00, -0.00, -1.00, 650.4, 679.0)"> </text><text xml:space="preserve" font-family="Helvetica-Light" font-size="40.0" fill="#000000" transform="matrix(1.00, 0.00, -0.00, -1.00, 661.6, 679.0)">C</text><text xml:space="preserve" font-family="Helvetica-Light" font-size="40.0" fill="#000000" transform="matrix(1.00, 0.00, -0.00, -1.00, 690.4, 679.0)">a</text><text xml:space="preserve" font-family="Helvetica-Light" font-size="40.0" fill="#000000" transform="matrix(1.00, 0.00, -0.00, -1.00, 712.7, 679.0)">p</text><text xml:space="preserve" font-family="Helvetica-Light" font-size="40.0" fill="#000000" transform="matrix(1.00, 0.00, -0.00, -1.00, 737.1, 679.0)">a</text><text xml:space="preserve" font-family="Helvetica-Light" font-size="40.0" fill="#000000" transform="matrix(1.00, 0.00, -0.00, -1.00, 759.4, 679.0)">b</text><text xml:space="preserve" font-family="Helvetica-Light" font-size="40.0" fill="#000000" transform="matrix(1.00, 0.00, -0.00, -1.00, 783.8, 679.0)">i</text><text xml:space="preserve" font-family="Helvetica-Light" font-size="40.0" fill="#000000" transform="matrix(1.00, 0.00, -0.00, -1.00, 792.7, 679.0)">l</text><text xml:space="preserve" font-family="Helvetica-Light" font-size="40.0" fill="#000000" transform="matrix(1.00, 0.00, -0.00, -1.00, 801.6, 679.0)">i</text><text xml:space="preserve" font-family="Helvetica-Light" font-size="40.0" fill="#000000" transform="matrix(1.00, 0.00, -0.00, -1.00, 810.4, 679.0)">t</text><text xml:space="preserve" font-family="Helvetica-Light" font-size="40.0" fill="#000000" transform="matrix(1.00, 0.00, -0.00, -1.00, 821.6, 679.0)">i</text><text xml:space="preserve" font-family="Helvetica-Light" font-size="40.0" fill="#000000" transform="matrix(1.00, 0.00, -0.00, -1.00, 830.4, 679.0)">e</text><text xml:space="preserve" font-family="Helvetica-Light" font-size="40.0" fill="#000000" transform="matrix(1.00, 0.00, -0.00, -1.00, 852.7, 679.0)">s</text><g><clipPath id="clip-34"><path d="M 69.0 462.9 L 390.1 462.9 L 390.1 536.5 L 69.0 536.5 Z M 69.0 462.9 "></path></clipPath><g clip-path="url(#clip-34)"><path d="M 19.5 0.0 L 297.6 0.0 C 303.2 0.0 306.1 0.0 309.1 1.0 C 312.4 2.2 315.0 4.8 316.2 8.1 C 317.1 11.1 317.1 13.9 317.1 19.6 L 317.1 50.1 C 317.1 55.7 317.1 58.6 316.2 61.6 C 315.0 64.9 312.4 67.5 309.1 68.7 C 306.1 69.7 303.2 69.7 297.5 69.7 L 19.5 69.7 C 13.9 69.7 11.1 69.7 8.1 68.7 C 4.8 67.5 2.2 64.9 1.0 61.6 C 0.0 58.6 0.0 55.7 0.0 50.0 L 0.0 19.5 C 0.0 13.9 0.0 11.1 1.0 8.1 C 2.2 4.8 4.8 2.2 8.1 1.0 C 11.1 0.0 13.9 0.0 19.6 0.0 Z M 19.5 0.0 " fill="none" stroke="#85878C" stroke-width="2.00" transform="matrix(1.00, 0.00, 0.00, -1.00, 71.0, 534.5)"></path></g></g><g><clipPath id="clip-35"><path d="M 149.4 478.6 L 309.7 478.6 L 309.7 520.8 L 149.4 520.8 Z M 149.4 478.6 "></path></clipPath><g clip-path="url(#clip-35)"><text xml:space="preserve" font-family="Helvetica-Light" font-size="20.0" fill="#000000" transform="matrix(1.00, 0.00, -0.00, -1.00, 174.0, 492.0)">P</text><text xml:space="preserve" font-family="Helvetica-Light" font-size="20.0" fill="#000000" transform="matrix(1.00, 0.00, -0.00, -1.00, 186.2, 492.0)">r</text><text xml:space="preserve" font-family="Helvetica-Light" font-size="20.0" fill="#000000" transform="matrix(1.00, 0.00, -0.00, -1.00, 192.5, 492.0)">e</text><text xml:space="preserve" font-family="Helvetica-Light" font-size="20.0" fill="#000000" transform="matrix(1.00, 0.00, -0.00, -1.00, 203.6, 492.0)">s</text><text xml:space="preserve" font-family="Helvetica-Light" font-size="20.0" fill="#000000" transform="matrix(1.00, 0.00, -0.00, -1.00, 213.6, 492.0)">e</text><text xml:space="preserve" font-family="Helvetica-Light" font-size="20.0" fill="#000000" transform="matrix(1.00, 0.00, -0.00, -1.00, 224.8, 492.0)">n</text><text xml:space="preserve" font-family="Helvetica-Light" font-size="20.0" fill="#000000" transform="matrix(1.00, 0.00, -0.00, -1.00, 235.9, 492.0)">t</text><text xml:space="preserve" font-family="Helvetica-Light" font-size="20.0" fill="#000000" transform="matrix(1.00, 0.00, -0.00, -1.00, 241.4, 492.0)">a</text><text xml:space="preserve" font-family="Helvetica-Light" font-size="20.0" fill="#000000" transform="matrix(1.00, 0.00, -0.00, -1.00, 252.6, 492.0)">t</text><text xml:space="preserve" font-family="Helvetica-Light" font-size="20.0" fill="#000000" transform="matrix(1.00, 0.00, -0.00, -1.00, 258.1, 492.0)">i</text><text xml:space="preserve" font-family="Helvetica-Light" font-size="20.0" fill="#000000" transform="matrix(1.00, 0.00, -0.00, -1.00, 262.6, 492.0)">o</text><text xml:space="preserve" font-family="Helvetica-Light" font-size="20.0" fill="#000000" transform="matrix(1.00, 0.00, -0.00, -1.00, 273.7, 492.0)">n</text></g></g><g><clipPath id="clip-36"><path d="M 69.0 325.9 L 390.1 325.9 L 390.1 399.5 L 69.0 399.5 Z M 69.0 325.9 "></path></clipPath><g clip-path="url(#clip-36)"><path d="M 19.5 0.0 L 297.6 0.0 C 303.2 0.0 306.1 0.0 309.1 1.0 C 312.4 2.2 315.0 4.8 316.2 8.1 C 317.1 11.1 317.1 13.9 317.1 19.6 L 317.1 50.1 C 317.1 55.7 317.1 58.6 316.2 61.6 C 315.0 64.9 312.4 67.5 309.1 68.7 C 306.1 69.7 303.2 69.7 297.5 69.7 L 19.5 69.7 C 13.9 69.7 11.1 69.7 8.1 68.7 C 4.8 67.5 2.2 64.9 1.0 61.6 C 0.0 58.6 0.0 55.7 0.0 50.0 L 0.0 19.5 C 0.0 13.9 0.0 11.1 1.0 8.1 C 2.2 4.8 4.8 2.2 8.1 1.0 C 11.1 0.0 13.9 0.0 19.6 0.0 Z M 19.5 0.0 " fill="none" stroke="#85878C" stroke-width="2.00" transform="matrix(1.00, 0.00, 0.00, -1.00, 71.0, 397.5)"></path></g></g><g><clipPath id="clip-37"><path d="M 136.8 342.5 L 322.3 342.5 L 322.3 382.9 L 136.8 382.9 Z M 136.8 342.5 "></path></clipPath><g clip-path="url(#clip-37)"><text xml:space="preserve" font-family="Helvetica-Light" font-size="20.0" fill="#000000" transform="matrix(1.00, 0.00, -0.00, -1.00, 161.0, 355.0)">B</text><text xml:space="preserve" font-family="Helvetica-Light" font-size="20.0" fill="#000000" transform="matrix(1.00, 0.00, -0.00, -1.00, 174.3, 355.0)">u</text><text xml:space="preserve" font-family="Helvetica-Light" font-size="20.0" fill="#000000" transform="matrix(1.00, 0.00, -0.00, -1.00, 185.5, 355.0)">s</text><text xml:space="preserve" font-family="Helvetica-Light" font-size="20.0" fill="#000000" transform="matrix(1.00, 0.00, -0.00, -1.00, 195.5, 355.0)">i</text><text xml:space="preserve" font-family="Helvetica-Light" font-size="20.0" fill="#000000" transform="matrix(1.00, 0.00, -0.00, -1.00, 199.9, 355.0)">n</text><text xml:space="preserve" font-family="Helvetica-Light" font-size="20.0" fill="#000000" transform="matrix(1.00, 0.00, -0.00, -1.00, 211.0, 355.0)">e</text><text xml:space="preserve" font-family="Helvetica-Light" font-size="20.0" fill="#000000" transform="matrix(1.00, 0.00, -0.00, -1.00, 222.1, 355.0)">s</text><text xml:space="preserve" font-family="Helvetica-Light" font-size="20.0" fill="#000000" transform="matrix(1.00, 0.00, -0.00, -1.00, 232.1, 355.0)">s</text><text xml:space="preserve" font-family="Helvetica-Light" font-size="20.0" fill="#000000" transform="matrix(1.00, 0.00, -0.00, -1.00, 242.1, 355.0)"> </text><text xml:space="preserve" font-family="Helvetica-Light" font-size="20.0" fill="#000000" transform="matrix(1.00, 0.00, -0.00, -1.00, 247.7, 355.0)">L</text><text xml:space="preserve" font-family="Helvetica-Light" font-size="20.0" fill="#000000" transform="matrix(1.00, 0.00, -0.00, -1.00, 258.8, 355.0)">o</text><text xml:space="preserve" font-family="Helvetica-Light" font-size="20.0" fill="#000000" transform="matrix(1.00, 0.00, -0.00, -1.00, 269.9, 355.0)">g</text><text xml:space="preserve" font-family="Helvetica-Light" font-size="20.0" fill="#000000" transform="matrix(1.00, 0.00, -0.00, -1.00, 282.2, 355.0)">i</text><text xml:space="preserve" font-family="Helvetica-Light" font-size="20.0" fill="#000000" transform="matrix(1.00, 0.00, -0.00, -1.00, 286.6, 355.0)">c</text></g></g><g><clipPath id="clip-38"><path d="M 69.0 188.9 L 390.1 188.9 L 390.1 262.6 L 69.0 262.6 Z M 69.0 188.9 "></path></clipPath><g clip-path="url(#clip-38)"><path d="M 19.5 0.0 L 297.6 0.0 C 303.2 0.0 306.1 0.0 309.1 1.0 C 312.4 2.2 315.0 4.8 316.2 8.1 C 317.1 11.1 317.1 13.9 317.1 19.6 L 317.1 50.1 C 317.1 55.7 317.1 58.6 316.2 61.6 C 315.0 64.9 312.4 67.5 309.1 68.7 C 306.1 69.7 303.2 69.7 297.5 69.7 L 19.5 69.7 C 13.9 69.7 11.1 69.7 8.1 68.7 C 4.8 67.5 2.2 64.9 1.0 61.6 C 0.0 58.6 0.0 55.7 0.0 50.0 L 0.0 19.5 C 0.0 13.9 0.0 11.1 1.0 8.1 C 2.2 4.8 4.8 2.2 8.1 1.0 C 11.1 0.0 13.9 0.0 19.6 0.0 Z M 19.5 0.0 " fill="none" stroke="#85878C" stroke-width="2.00" transform="matrix(1.00, 0.00, 0.00, -1.00, 71.0, 260.6)"></path></g></g><g><clipPath id="clip-39"><path d="M 133.9 216.4 L 325.2 216.4 L 325.2 235.4 L 133.9 235.4 Z M 133.9 216.4 "></path></clipPath><g clip-path="url(#clip-39)"><text xml:space="preserve" font-family="Helvetica-Light" font-size="20.0" fill="#000000" transform="matrix(1.00, 0.00, -0.00, -1.00, 150.0, 216.0)">D</text><text xml:space="preserve" font-family="Helvetica-Light" font-size="20.0" fill="#000000" transform="matrix(1.00, 0.00, -0.00, -1.00, 164.4, 216.0)">a</text><text xml:space="preserve" font-family="Helvetica-Light" font-size="20.0" fill="#000000" transform="matrix(1.00, 0.00, -0.00, -1.00, 175.6, 216.0)">t</text><text xml:space="preserve" font-family="Helvetica-Light" font-size="20.0" fill="#000000" transform="matrix(1.00, 0.00, -0.00, -1.00, 181.1, 216.0)">a</text><text xml:space="preserve" font-family="Helvetica-Light" font-size="20.0" fill="#000000" transform="matrix(1.00, 0.00, -0.00, -1.00, 192.2, 216.0)"> </text><text xml:space="preserve" font-family="Helvetica-Light" font-size="20.0" fill="#000000" transform="matrix(1.00, 0.00, -0.00, -1.00, 197.8, 216.0)">A</text><text xml:space="preserve" font-family="Helvetica-Light" font-size="20.0" fill="#000000" transform="matrix(1.00, 0.00, -0.00, -1.00, 211.1, 216.0)">c</text><text xml:space="preserve" font-family="Helvetica-Light" font-size="20.0" fill="#000000" transform="matrix(1.00, 0.00, -0.00, -1.00, 222.3, 216.0)">c</text><text xml:space="preserve" font-family="Helvetica-Light" font-size="20.0" fill="#000000" transform="matrix(1.00, 0.00, -0.00, -1.00, 233.4, 216.0)">e</text><text xml:space="preserve" font-family="Helvetica-Light" font-size="20.0" fill="#000000" transform="matrix(1.00, 0.00, -0.00, -1.00, 244.5, 216.0)">s</text><text xml:space="preserve" font-family="Helvetica-Light" font-size="20.0" fill="#000000" transform="matrix(1.00, 0.00, -0.00, -1.00, 254.5, 216.0)">s</text><text xml:space="preserve" font-family="Helvetica-Light" font-size="20.0" fill="#000000" transform="matrix(1.00, 0.00, -0.00, -1.00, 264.5, 216.0)"> </text><text xml:space="preserve" font-family="Helvetica-Light" font-size="20.0" fill="#000000" transform="matrix(1.00, 0.00, -0.00, -1.00, 270.1, 216.0)">/</text><text xml:space="preserve" font-family="Helvetica-Light" font-size="20.0" fill="#000000" transform="matrix(1.00, 0.00, -0.00, -1.00, 275.6, 216.0)"> </text><text xml:space="preserve" font-family="Helvetica-Light" font-size="20.0" fill="#000000" transform="matrix(1.00, 0.00, -0.00, -1.00, 281.2, 216.0)">D</text><text xml:space="preserve" font-family="Helvetica-Light" font-size="20.0" fill="#000000" transform="matrix(1.00, 0.00, -0.00, -1.00, 295.6, 216.0)">B</text></g></g><g><clipPath id="clip-40"><path d="M 240.9 468.2 L 240.9 394.1 L 225.7 394.1 L 225.7 468.2 Z M 240.9 468.2 "></path></clipPath><g clip-path="url(#clip-40)"><path d="M 0.0 0.0 L 54.6 0.0 L 56.1 0.0 " fill="none" stroke="#000000" stroke-width="3.00" stroke-linecap="round" stroke-dasharray="0.0, 9.0" transform="matrix(0.00, -1.00, -1.00, 0.00, 233.3, 465.1)"></path><path d="M 226.7 410.4 L 233.3 397.2 L 239.9 410.4 Z M 226.7 410.4 " fill="#000000"></path></g></g><g><clipPath id="clip-41"><path d="M 240.9 332.9 L 240.9 258.8 L 225.7 258.8 L 225.7 332.9 Z M 240.9 332.9 "></path></clipPath><g clip-path="url(#clip-41)"><path d="M 0.0 0.0 L 54.6 0.0 L 56.1 0.0 " fill="none" stroke="#000000" stroke-width="3.00" stroke-linecap="round" stroke-dasharray="0.0, 9.0" transform="matrix(0.00, -1.00, -1.00, 0.00, 233.3, 329.7)"></path><path d="M 226.7 275.1 L 233.3 261.9 L 239.9 275.1 Z M 226.7 275.1 " fill="#000000"></path></g></g><image xlink:href="3A117B6BE7875030CFA95230AA2018FF.png" width="44.00" height="54.00" transform="matrix(1.00, 0.00, -0.00, -1.00, 426.0, 252.0)"></image><image xlink:href="3FC4E2ADCA3C9B342B8145B541F5BF2C.png" width="58.00" height="54.00" transform="matrix(1.00, 0.00, -0.00, -1.00, 419.0, 386.0)"></image><image xlink:href="C68D9CADCAD03C6C75066439CB711EB1.png" width="52.00" height="58.00" transform="matrix(1.00, 0.00, -0.00, -1.00, 422.0, 524.0)"></image><text xml:space="preserve" font-family="Helvetica-Light" font-size="15.0" fill="#000000" transform="matrix(1.00, 0.00, -0.00, -1.00, 14.0, 31.0)">C</text><text xml:space="preserve" font-family="Helvetica-Light" font-size="15.0" fill="#000000" transform="matrix(1.00, 0.00, -0.00, -1.00, 24.8, 31.0)">h</text><text xml:space="preserve" font-family="Helvetica-Light" font-size="15.0" fill="#000000" transform="matrix(1.00, 0.00, -0.00, -1.00, 33.2, 31.0)">a</text><text xml:space="preserve" font-family="Helvetica-Light" font-size="15.0" fill="#000000" transform="matrix(1.00, 0.00, -0.00, -1.00, 41.5, 31.0)">r</text><text xml:space="preserve" font-family="Helvetica-Light" font-size="15.0" fill="#000000" transform="matrix(1.00, 0.00, -0.00, -1.00, 46.5, 31.0)">a</text><text xml:space="preserve" font-family="Helvetica-Light" font-size="15.0" fill="#000000" transform="matrix(1.00, 0.00, -0.00, -1.00, 54.8, 31.0)">c</text><text xml:space="preserve" font-family="Helvetica-Light" font-size="15.0" fill="#000000" transform="matrix(1.00, 0.00, -0.00, -1.00, 63.2, 31.0)">t</text><text xml:space="preserve" font-family="Helvetica-Light" font-size="15.0" fill="#000000" transform="matrix(1.00, 0.00, -0.00, -1.00, 67.4, 31.0)">e</text><text xml:space="preserve" font-family="Helvetica-Light" font-size="15.0" fill="#000000" transform="matrix(1.00, 0.00, -0.00, -1.00, 75.7, 31.0)">r</text><text xml:space="preserve" font-family="Helvetica-Light" font-size="15.0" fill="#000000" transform="matrix(1.00, 0.00, -0.00, -1.00, 80.7, 31.0)">i</text><text xml:space="preserve" font-family="Helvetica-Light" font-size="15.0" fill="#000000" transform="matrix(1.00, 0.00, -0.00, -1.00, 84.0, 31.0)">s</text><text xml:space="preserve" font-family="Helvetica-Light" font-size="15.0" fill="#000000" transform="matrix(1.00, 0.00, -0.00, -1.00, 91.5, 31.0)">t</text><text xml:space="preserve" font-family="Helvetica-Light" font-size="15.0" fill="#000000" transform="matrix(1.00, 0.00, -0.00, -1.00, 95.7, 31.0)">i</text><text xml:space="preserve" font-family="Helvetica-Light" font-size="15.0" fill="#000000" transform="matrix(1.00, 0.00, -0.00, -1.00, 99.0, 31.0)">c</text><text xml:space="preserve" font-family="Helvetica-Light" font-size="15.0" fill="#000000" transform="matrix(1.00, 0.00, -0.00, -1.00, 107.4, 31.0)">s</text><text xml:space="preserve" font-family="Helvetica-Light" font-size="15.0" fill="#000000" transform="matrix(1.00, 0.00, -0.00, -1.00, 114.9, 31.0)"> </text><text xml:space="preserve" font-family="Helvetica-Light" font-size="15.0" fill="#000000" transform="matrix(1.00, 0.00, -0.00, -1.00, 119.0, 31.0)">o</text><text xml:space="preserve" font-family="Helvetica-Light" font-size="15.0" fill="#000000" transform="matrix(1.00, 0.00, -0.00, -1.00, 127.4, 31.0)">f</text><text xml:space="preserve" font-family="Helvetica-Light" font-size="15.0" fill="#000000" transform="matrix(1.00, 0.00, -0.00, -1.00, 131.5, 31.0)"> </text><text xml:space="preserve" font-family="Helvetica-Light" font-size="15.0" fill="#000000" transform="matrix(1.00, 0.00, -0.00, -1.00, 135.7, 31.0)">a</text><text xml:space="preserve" font-family="Helvetica-Light" font-size="15.0" fill="#000000" transform="matrix(1.00, 0.00, -0.00, -1.00, 144.1, 31.0)"> </text><text xml:space="preserve" font-family="Helvetica-Light" font-size="15.0" fill="#000000" transform="matrix(1.00, 0.00, -0.00, -1.00, 148.2, 31.0)">M</text><text xml:space="preserve" font-family="Helvetica-Light" font-size="15.0" fill="#000000" transform="matrix(1.00, 0.00, -0.00, -1.00, 160.7, 31.0)">i</text><text xml:space="preserve" font-family="Helvetica-Light" font-size="15.0" fill="#000000" transform="matrix(1.00, 0.00, -0.00, -1.00, 164.0, 31.0)">c</text><text xml:space="preserve" font-family="Helvetica-Light" font-size="15.0" fill="#000000" transform="matrix(1.00, 0.00, -0.00, -1.00, 172.4, 31.0)">r</text><text xml:space="preserve" font-family="Helvetica-Light" font-size="15.0" fill="#000000" transform="matrix(1.00, 0.00, -0.00, -1.00, 177.1, 31.0)">o</text><text xml:space="preserve" font-family="Helvetica-Light" font-size="15.0" fill="#000000" transform="matrix(1.00, 0.00, -0.00, -1.00, 185.5, 31.0)">s</text><text xml:space="preserve" font-family="Helvetica-Light" font-size="15.0" fill="#000000" transform="matrix(1.00, 0.00, -0.00, -1.00, 193.0, 31.0)">e</text><text xml:space="preserve" font-family="Helvetica-Light" font-size="15.0" fill="#000000" transform="matrix(1.00, 0.00, -0.00, -1.00, 201.3, 31.0)">r</text><text xml:space="preserve" font-family="Helvetica-Light" font-size="15.0" fill="#000000" transform="matrix(1.00, 0.00, -0.00, -1.00, 206.3, 31.0)">v</text><text xml:space="preserve" font-family="Helvetica-Light" font-size="15.0" fill="#000000" transform="matrix(1.00, 0.00, -0.00, -1.00, 213.8, 31.0)">i</text><text xml:space="preserve" font-family="Helvetica-Light" font-size="15.0" fill="#000000" transform="matrix(1.00, 0.00, -0.00, -1.00, 217.1, 31.0)">c</text><text xml:space="preserve" font-family="Helvetica-Light" font-size="15.0" fill="#000000" transform="matrix(1.00, 0.00, -0.00, -1.00, 225.5, 31.0)">e</text><text xml:space="preserve" font-family="Helvetica-Light" font-size="15.0" fill="#000000" transform="matrix(1.00, 0.00, -0.00, -1.00, 233.8, 31.0)"> </text><image xlink:href="../../041DAA2E-BB94-4FA9-ADDE-BC286078BCA4/assets/66BBACC5A45C6D10993B93C204E505A0.png" width="53.00" height="52.00" transform="matrix(0.47, 0.00, -0.00, -0.48, 95.0, 495.0)"></image><image xlink:href="../../041DAA2E-BB94-4FA9-ADDE-BC286078BCA4/assets/56B4AFD4E04128EC6F87A8B6E51276CF.png" width="55.00" height="55.00" transform="matrix(0.47, 0.00, -0.00, -0.47, 79.0, 527.0)"></image><image xlink:href="../../041DAA2E-BB94-4FA9-ADDE-BC286078BCA4/assets/5AB61A7CF66A738C2C4E5E7F9EF367AE.png" width="53.00" height="54.00" transform="matrix(0.49, 0.00, -0.00, -0.48, 111.0, 527.0)"></image><image xlink:href="../../041DAA2E-BB94-4FA9-ADDE-BC286078BCA4/assets/66BBACC5A45C6D10993B93C204E505A0.png" width="53.00" height="52.00" transform="matrix(0.49, 0.00, -0.00, -0.48, 94.0, 359.0)"></image><image xlink:href="../../041DAA2E-BB94-4FA9-ADDE-BC286078BCA4/assets/56B4AFD4E04128EC6F87A8B6E51276CF.png" width="55.00" height="55.00" transform="matrix(0.47, 0.00, -0.00, -0.47, 78.0, 391.0)"></image><image xlink:href="../../041DAA2E-BB94-4FA9-ADDE-BC286078BCA4/assets/5AB61A7CF66A738C2C4E5E7F9EF367AE.png" width="53.00" height="54.00" transform="matrix(0.49, 0.00, -0.00, -0.48, 111.0, 391.0)"></image><image xlink:href="../../041DAA2E-BB94-4FA9-ADDE-BC286078BCA4/assets/66BBACC5A45C6D10993B93C204E505A0.png" width="53.00" height="52.00" transform="matrix(0.49, 0.00, -0.00, -0.48, 94.0, 221.0)"></image><image xlink:href="../../041DAA2E-BB94-4FA9-ADDE-BC286078BCA4/assets/56B4AFD4E04128EC6F87A8B6E51276CF.png" width="55.00" height="55.00" transform="matrix(0.47, 0.00, -0.00, -0.47, 78.0, 253.0)"></image><image xlink:href="../../041DAA2E-BB94-4FA9-ADDE-BC286078BCA4/assets/5AB61A7CF66A738C2C4E5E7F9EF367AE.png" width="53.00" height="54.00" transform="matrix(0.49, 0.00, -0.00, -0.48, 111.0, 253.0)"></image></g></svg>