<?xml version="1.0" encoding="UTF-8" standalone="no"?><svg xmlns="http://www.w3.org/2000/svg" xmlns:xlink="http://www.w3.org/1999/xlink" clip-rule="evenodd" stroke-miterlimit="4.00" viewBox="0 0 79 23"><desc>SVG generated by Keynote</desc><defs></defs><g transform="matrix(1.00, 0.00, -0.00, -1.00, 0.0, 23.0)"><text xml:space="preserve" font-family="Helvetica-Light" font-size="20.0" fill="#000000" transform="matrix(1.00, 0.00, -0.00, -1.00, 1.0, 7.0)">h</text><text xml:space="preserve" font-family="Helvetica-Light" font-size="20.0" fill="#000000" transform="matrix(1.00, 0.00, -0.00, -1.00, 12.1, 7.0)">t</text><text xml:space="preserve" font-family="Helvetica-Light" font-size="20.0" fill="#000000" transform="matrix(1.00, 0.00, -0.00, -1.00, 17.7, 7.0)">t</text><text xml:space="preserve" font-family="Helvetica-Light" font-size="20.0" fill="#000000" transform="matrix(1.00, 0.00, -0.00, -1.00, 23.2, 7.0)">p</text><text xml:space="preserve" font-family="Helvetica-Light" font-size="20.0" fill="#000000" transform="matrix(1.00, 0.00, -0.00, -1.00, 35.5, 7.0)">/</text><text xml:space="preserve" font-family="Helvetica-Light" font-size="20.0" fill="#000000" transform="matrix(1.00, 0.00, -0.00, -1.00, 41.0, 7.0)">j</text><text xml:space="preserve" font-family="Helvetica-Light" font-size="20.0" fill="#000000" transform="matrix(1.00, 0.00, -0.00, -1.00, 45.5, 7.0)">s</text><text xml:space="preserve" font-family="Helvetica-Light" font-size="20.0" fill="#000000" transform="matrix(1.00, 0.00, -0.00, -1.00, 55.5, 7.0)">o</text><text xml:space="preserve" font-family="Helvetica-Light" font-size="20.0" fill="#000000" transform="matrix(1.00, 0.00, -0.00, -1.00, 66.6, 7.0)">n</text></g></svg>