<?xml version="1.0" encoding="UTF-8" standalone="no"?><svg xmlns="http://www.w3.org/2000/svg" xmlns:xlink="http://www.w3.org/1999/xlink" clip-rule="evenodd" stroke-miterlimit="4.00" viewBox="0 0 449 32"><desc>SVG generated by Keynote</desc><defs></defs><g transform="matrix(1.00, 0.00, -0.00, -1.00, 0.0, 32.0)"><text xml:space="preserve" font-family="Helvetica-Light" font-size="30.0" fill="#000000" transform="matrix(1.00, 0.00, -0.00, -1.00, 1.0, 8.0)">o</text><text xml:space="preserve" font-family="Helvetica-Light" font-size="30.0" fill="#000000" transform="matrix(1.00, 0.00, -0.00, -1.00, 17.7, 8.0)">r</text><text xml:space="preserve" font-family="Helvetica-Light" font-size="30.0" fill="#000000" transform="matrix(1.00, 0.00, -0.00, -1.00, 27.7, 8.0)">g</text><text xml:space="preserve" font-family="Helvetica-Light" font-size="30.0" fill="#000000" transform="matrix(1.00, 0.00, -0.00, -1.00, 46.0, 8.0)">a</text><text xml:space="preserve" font-family="Helvetica-Light" font-size="30.0" fill="#000000" transform="matrix(1.00, 0.00, -0.00, -1.00, 62.7, 8.0)">n</text><text xml:space="preserve" font-family="Helvetica-Light" font-size="30.0" fill="#000000" transform="matrix(1.00, 0.00, -0.00, -1.00, 79.4, 8.0)">i</text><text xml:space="preserve" font-family="Helvetica-Light" font-size="30.0" fill="#000000" transform="matrix(1.00, 0.00, -0.00, -1.00, 86.0, 8.0)">z</text><text xml:space="preserve" font-family="Helvetica-Light" font-size="30.0" fill="#000000" transform="matrix(1.00, 0.00, -0.00, -1.00, 101.0, 8.0)">a</text><text xml:space="preserve" font-family="Helvetica-Light" font-size="30.0" fill="#000000" transform="matrix(1.00, 0.00, -0.00, -1.00, 117.7, 8.0)">t</text><text xml:space="preserve" font-family="Helvetica-Light" font-size="30.0" fill="#000000" transform="matrix(1.00, 0.00, -0.00, -1.00, 126.0, 8.0)">i</text><text xml:space="preserve" font-family="Helvetica-Light" font-size="30.0" fill="#000000" transform="matrix(1.00, 0.00, -0.00, -1.00, 132.7, 8.0)">o</text><text xml:space="preserve" font-family="Helvetica-Light" font-size="30.0" fill="#000000" transform="matrix(1.00, 0.00, -0.00, -1.00, 149.4, 8.0)">n</text><text xml:space="preserve" font-family="Helvetica-Light" font-size="30.0" fill="#000000" transform="matrix(1.00, 0.00, -0.00, -1.00, 166.1, 8.0)">s</text><text xml:space="preserve" font-family="Helvetica-Light" font-size="30.0" fill="#000000" transform="matrix(1.00, 0.00, -0.00, -1.00, 181.1, 8.0)">"</text><text xml:space="preserve" font-family="Helvetica-Light" font-size="30.0" fill="#000000" transform="matrix(1.00, 0.00, -0.00, -1.00, 189.4, 8.0)"> </text><text xml:space="preserve" font-family="Helvetica-Light" font-size="30.0" fill="#000000" transform="matrix(1.00, 0.00, -0.00, -1.00, 197.7, 8.0)">—</text><text xml:space="preserve" font-family="Helvetica-BoldOblique" font-style="italic" font-weight="bold" font-size="30.0" fill="#000000" transform="matrix(1.00, 0.00, -0.00, -1.00, 227.7, 8.0)">M</text><text xml:space="preserve" font-family="Helvetica-BoldOblique" font-style="italic" font-weight="bold" font-size="30.0" fill="#000000" transform="matrix(1.00, 0.00, -0.00, -1.00, 252.7, 8.0)">e</text><text xml:space="preserve" font-family="Helvetica-BoldOblique" font-style="italic" font-weight="bold" font-size="30.0" fill="#000000" transform="matrix(1.00, 0.00, -0.00, -1.00, 269.4, 8.0)">l</text><text xml:space="preserve" font-family="Helvetica-BoldOblique" font-style="italic" font-weight="bold" font-size="30.0" fill="#000000" transform="matrix(1.00, 0.00, -0.00, -1.00, 277.7, 8.0)">v</text><text xml:space="preserve" font-family="Helvetica-BoldOblique" font-style="italic" font-weight="bold" font-size="30.0" fill="#000000" transform="matrix(1.00, 0.00, -0.00, -1.00, 294.4, 8.0)">i</text><text xml:space="preserve" font-family="Helvetica-BoldOblique" font-style="italic" font-weight="bold" font-size="30.0" fill="#000000" transform="matrix(1.00, 0.00, -0.00, -1.00, 302.8, 8.0)">n</text><text xml:space="preserve" font-family="Helvetica-BoldOblique" font-style="italic" font-weight="bold" font-size="30.0" fill="#000000" transform="matrix(1.00, 0.00, -0.00, -1.00, 321.1, 8.0)"> </text><text xml:space="preserve" font-family="Helvetica-BoldOblique" font-style="italic" font-weight="bold" font-size="30.0" fill="#000000" transform="matrix(1.00, 0.00, -0.00, -1.00, 329.4, 8.0)">C</text><text xml:space="preserve" font-family="Helvetica-BoldOblique" font-style="italic" font-weight="bold" font-size="30.0" fill="#000000" transform="matrix(1.00, 0.00, -0.00, -1.00, 351.1, 8.0)">o</text><text xml:space="preserve" font-family="Helvetica-BoldOblique" font-style="italic" font-weight="bold" font-size="30.0" fill="#000000" transform="matrix(1.00, 0.00, -0.00, -1.00, 369.4, 8.0)">n</text><text xml:space="preserve" font-family="Helvetica-BoldOblique" font-style="italic" font-weight="bold" font-size="30.0" fill="#000000" transform="matrix(1.00, 0.00, -0.00, -1.00, 387.7, 8.0)">w</text><text xml:space="preserve" font-family="Helvetica-BoldOblique" font-style="italic" font-weight="bold" font-size="30.0" fill="#000000" transform="matrix(1.00, 0.00, -0.00, -1.00, 411.1, 8.0)">a</text><text xml:space="preserve" font-family="Helvetica-BoldOblique" font-style="italic" font-weight="bold" font-size="30.0" fill="#000000" transform="matrix(1.00, 0.00, -0.00, -1.00, 427.7, 8.0)">y</text></g></svg>