<?xml version="1.0" encoding="UTF-8" standalone="no"?><svg xmlns="http://www.w3.org/2000/svg" xmlns:xlink="http://www.w3.org/1999/xlink" clip-rule="evenodd" stroke-miterlimit="4.00" viewBox="0 0 399 40"><desc>SVG generated by Keynote</desc><defs></defs><g transform="matrix(1.00, 0.00, -0.00, -1.00, 0.0, 40.0)"><text xml:space="preserve" font-family="Helvetica-Light" font-size="40.0" fill="#000000" transform="matrix(1.00, 0.00, -0.00, -1.00, -1.0, 10.0)">P</text><text xml:space="preserve" font-family="Helvetica-Light" font-size="40.0" fill="#000000" transform="matrix(1.00, 0.00, -0.00, -1.00, 23.4, 10.0)">r</text><text xml:space="preserve" font-family="Helvetica-Light" font-size="40.0" fill="#000000" transform="matrix(1.00, 0.00, -0.00, -1.00, 36.0, 10.0)">o</text><text xml:space="preserve" font-family="Helvetica-Light" font-size="40.0" fill="#000000" transform="matrix(1.00, 0.00, -0.00, -1.00, 58.3, 10.0)">d</text><text xml:space="preserve" font-family="Helvetica-Light" font-size="40.0" fill="#000000" transform="matrix(1.00, 0.00, -0.00, -1.00, 82.7, 10.0)">u</text><text xml:space="preserve" font-family="Helvetica-Light" font-size="40.0" fill="#000000" transform="matrix(1.00, 0.00, -0.00, -1.00, 105.0, 10.0)">c</text><text xml:space="preserve" font-family="Helvetica-Light" font-size="40.0" fill="#000000" transform="matrix(1.00, 0.00, -0.00, -1.00, 127.2, 10.0)">t</text><text xml:space="preserve" font-family="Helvetica-Light" font-size="40.0" fill="#000000" transform="matrix(1.00, 0.00, -0.00, -1.00, 138.3, 10.0)">s</text><text xml:space="preserve" font-family="Helvetica-Light" font-size="40.0" fill="#000000" transform="matrix(1.00, 0.00, -0.00, -1.00, 158.3, 10.0)">,</text><text xml:space="preserve" font-family="Helvetica-Light" font-size="40.0" fill="#000000" transform="matrix(1.00, 0.00, -0.00, -1.00, 169.4, 10.0)"> </text><text xml:space="preserve" font-family="Helvetica-Light" font-size="40.0" fill="#000000" transform="matrix(1.00, 0.00, -0.00, -1.00, 180.6, 10.0)">N</text><text xml:space="preserve" font-family="Helvetica-Light" font-size="40.0" fill="#000000" transform="matrix(1.00, 0.00, -0.00, -1.00, 209.4, 10.0)">o</text><text xml:space="preserve" font-family="Helvetica-Light" font-size="40.0" fill="#000000" transform="matrix(1.00, 0.00, -0.00, -1.00, 231.7, 10.0)">t</text><text xml:space="preserve" font-family="Helvetica-Light" font-size="40.0" fill="#000000" transform="matrix(1.00, 0.00, -0.00, -1.00, 242.8, 10.0)"> </text><text xml:space="preserve" font-family="Helvetica-Light" font-size="40.0" fill="#000000" transform="matrix(1.00, 0.00, -0.00, -1.00, 253.9, 10.0)">P</text><text xml:space="preserve" font-family="Helvetica-Light" font-size="40.0" fill="#000000" transform="matrix(1.00, 0.00, -0.00, -1.00, 278.4, 10.0)">r</text><text xml:space="preserve" font-family="Helvetica-Light" font-size="40.0" fill="#000000" transform="matrix(1.00, 0.00, -0.00, -1.00, 291.0, 10.0)">o</text><text xml:space="preserve" font-family="Helvetica-Light" font-size="40.0" fill="#000000" transform="matrix(1.00, 0.00, -0.00, -1.00, 313.2, 10.0)">j</text><text xml:space="preserve" font-family="Helvetica-Light" font-size="40.0" fill="#000000" transform="matrix(1.00, 0.00, -0.00, -1.00, 322.1, 10.0)">e</text><text xml:space="preserve" font-family="Helvetica-Light" font-size="40.0" fill="#000000" transform="matrix(1.00, 0.00, -0.00, -1.00, 344.3, 10.0)">c</text><text xml:space="preserve" font-family="Helvetica-Light" font-size="40.0" fill="#000000" transform="matrix(1.00, 0.00, -0.00, -1.00, 366.6, 10.0)">t</text><text xml:space="preserve" font-family="Helvetica-Light" font-size="40.0" fill="#000000" transform="matrix(1.00, 0.00, -0.00, -1.00, 377.7, 10.0)">s</text></g></svg>