<?xml version="1.0" encoding="UTF-8" standalone="no"?><svg xmlns="http://www.w3.org/2000/svg" xmlns:xlink="http://www.w3.org/1999/xlink" clip-rule="evenodd" stroke-miterlimit="4.00" viewBox="0 0 1024 768"><desc>SVG generated by Keynote</desc><defs></defs><g transform="matrix(1.00, 0.00, -0.00, -1.00, 0.0, 768.0)"><path d="M 0.0 768.0 L 1024.0 768.0 L 1024.0 0.0 L 0.0 0.0 Z M 0.0 768.0 " fill="#FEFFFF"></path><text xml:space="preserve" font-family="Helvetica-Light" font-size="50.0" fill="#000000" transform="matrix(1.00, 0.00, -0.00, -1.00, 357.0, 629.0)">M</text><text xml:space="preserve" font-family="Helvetica-Light" font-size="50.0" fill="#000000" transform="matrix(1.00, 0.00, -0.00, -1.00, 398.6, 629.0)">i</text><text xml:space="preserve" font-family="Helvetica-Light" font-size="50.0" fill="#000000" transform="matrix(1.00, 0.00, -0.00, -1.00, 409.8, 629.0)">c</text><text xml:space="preserve" font-family="Helvetica-Light" font-size="50.0" fill="#000000" transform="matrix(1.00, 0.00, -0.00, -1.00, 437.6, 629.0)">r</text><text xml:space="preserve" font-family="Helvetica-Light" font-size="50.0" fill="#000000" transform="matrix(1.00, 0.00, -0.00, -1.00, 453.3, 629.0)">o</text><text xml:space="preserve" font-family="Helvetica-Light" font-size="50.0" fill="#000000" transform="matrix(1.00, 0.00, -0.00, -1.00, 481.1, 629.0)">s</text><text xml:space="preserve" font-family="Helvetica-Light" font-size="50.0" fill="#000000" transform="matrix(1.00, 0.00, -0.00, -1.00, 506.1, 629.0)">e</text><text xml:space="preserve" font-family="Helvetica-Light" font-size="50.0" fill="#000000" transform="matrix(1.00, 0.00, -0.00, -1.00, 533.9, 629.0)">r</text><text xml:space="preserve" font-family="Helvetica-Light" font-size="50.0" fill="#000000" transform="matrix(1.00, 0.00, -0.00, -1.00, 550.6, 629.0)">v</text><text xml:space="preserve" font-family="Helvetica-Light" font-size="50.0" fill="#000000" transform="matrix(1.00, 0.00, -0.00, -1.00, 575.6, 629.0)">i</text><text xml:space="preserve" font-family="Helvetica-Light" font-size="50.0" fill="#000000" transform="matrix(1.00, 0.00, -0.00, -1.00, 586.7, 629.0)">c</text><text xml:space="preserve" font-family="Helvetica-Light" font-size="50.0" fill="#000000" transform="matrix(1.00, 0.00, -0.00, -1.00, 614.5, 629.0)">e</text><text xml:space="preserve" font-family="Helvetica-Light" font-size="50.0" fill="#000000" transform="matrix(1.00, 0.00, -0.00, -1.00, 642.2, 629.0)">s</text><text xml:space="preserve" font-family="Helvetica-Light" font-size="50.0" fill="#000000" transform="matrix(1.00, 0.00, -0.00, -1.00, 30.0, 395.0)">W</text><text xml:space="preserve" font-family="Helvetica-Light" font-size="50.0" fill="#000000" transform="matrix(1.00, 0.00, -0.00, -1.00, 73.6, 395.0)">r</text><text xml:space="preserve" font-family="Helvetica-Light" font-size="50.0" fill="#000000" transform="matrix(1.00, 0.00, -0.00, -1.00, 90.2, 395.0)">i</text><text xml:space="preserve" font-family="Helvetica-Light" font-size="50.0" fill="#000000" transform="matrix(1.00, 0.00, -0.00, -1.00, 101.3, 395.0)">t</text><text xml:space="preserve" font-family="Helvetica-Light" font-size="50.0" fill="#000000" transform="matrix(1.00, 0.00, -0.00, -1.00, 115.2, 395.0)">e</text><text xml:space="preserve" font-family="Helvetica-Light" font-size="50.0" fill="#000000" transform="matrix(1.00, 0.00, -0.00, -1.00, 143.0, 395.0)"> </text><text xml:space="preserve" font-family="Helvetica-Light" font-size="50.0" fill="#000000" transform="matrix(1.00, 0.00, -0.00, -1.00, 156.9, 395.0)">p</text><text xml:space="preserve" font-family="Helvetica-Light" font-size="50.0" fill="#000000" transform="matrix(1.00, 0.00, -0.00, -1.00, 187.5, 395.0)">r</text><text xml:space="preserve" font-family="Helvetica-Light" font-size="50.0" fill="#000000" transform="matrix(1.00, 0.00, -0.00, -1.00, 203.2, 395.0)">o</text><text xml:space="preserve" font-family="Helvetica-Light" font-size="50.0" fill="#000000" transform="matrix(1.00, 0.00, -0.00, -1.00, 231.0, 395.0)">g</text><text xml:space="preserve" font-family="Helvetica-Light" font-size="50.0" fill="#000000" transform="matrix(1.00, 0.00, -0.00, -1.00, 261.6, 395.0)">r</text><text xml:space="preserve" font-family="Helvetica-Light" font-size="50.0" fill="#000000" transform="matrix(1.00, 0.00, -0.00, -1.00, 278.2, 395.0)">a</text><text xml:space="preserve" font-family="Helvetica-Light" font-size="50.0" fill="#000000" transform="matrix(1.00, 0.00, -0.00, -1.00, 306.0, 395.0)">m</text><text xml:space="preserve" font-family="Helvetica-Light" font-size="50.0" fill="#000000" transform="matrix(1.00, 0.00, -0.00, -1.00, 347.7, 395.0)">s</text><text xml:space="preserve" font-family="Helvetica-Light" font-size="50.0" fill="#000000" transform="matrix(1.00, 0.00, -0.00, -1.00, 372.7, 395.0)"> </text><text xml:space="preserve" font-family="Helvetica-Light" font-size="50.0" fill="#000000" transform="matrix(1.00, 0.00, -0.00, -1.00, 386.6, 395.0)">t</text><text xml:space="preserve" font-family="Helvetica-Light" font-size="50.0" fill="#000000" transform="matrix(1.00, 0.00, -0.00, -1.00, 400.5, 395.0)">h</text><text xml:space="preserve" font-family="Helvetica-Light" font-size="50.0" fill="#000000" transform="matrix(1.00, 0.00, -0.00, -1.00, 428.3, 395.0)">a</text><text xml:space="preserve" font-family="Helvetica-Light" font-size="50.0" fill="#000000" transform="matrix(1.00, 0.00, -0.00, -1.00, 456.1, 395.0)">t</text><text xml:space="preserve" font-family="Helvetica-Light" font-size="50.0" fill="#000000" transform="matrix(1.00, 0.00, -0.00, -1.00, 470.0, 395.0)"> </text><text xml:space="preserve" font-family="Helvetica-BoldOblique" font-style="italic" font-weight="bold" font-size="50.0" fill="#000000" transform="matrix(1.00, 0.00, -0.00, -1.00, 483.9, 395.0)">d</text><text xml:space="preserve" font-family="Helvetica-BoldOblique" font-style="italic" font-weight="bold" font-size="50.0" fill="#000000" transform="matrix(1.00, 0.00, -0.00, -1.00, 514.4, 395.0)">o</text><text xml:space="preserve" font-family="Helvetica-BoldOblique" font-style="italic" font-weight="bold" font-size="50.0" fill="#000000" transform="matrix(1.00, 0.00, -0.00, -1.00, 544.9, 395.0)"> </text><text xml:space="preserve" font-family="Helvetica-BoldOblique" font-style="italic" font-weight="bold" font-size="50.0" fill="#000000" transform="matrix(1.00, 0.00, -0.00, -1.00, 558.8, 395.0)">o</text><text xml:space="preserve" font-family="Helvetica-BoldOblique" font-style="italic" font-weight="bold" font-size="50.0" fill="#000000" transform="matrix(1.00, 0.00, -0.00, -1.00, 589.3, 395.0)">n</text><text xml:space="preserve" font-family="Helvetica-BoldOblique" font-style="italic" font-weight="bold" font-size="50.0" fill="#000000" transform="matrix(1.00, 0.00, -0.00, -1.00, 619.9, 395.0)">e</text><text xml:space="preserve" font-family="Helvetica-BoldOblique" font-style="italic" font-weight="bold" font-size="50.0" fill="#000000" transform="matrix(1.00, 0.00, -0.00, -1.00, 647.7, 395.0)"> </text><text xml:space="preserve" font-family="Helvetica-BoldOblique" font-style="italic" font-weight="bold" font-size="50.0" fill="#000000" transform="matrix(1.00, 0.00, -0.00, -1.00, 661.6, 395.0)">t</text><text xml:space="preserve" font-family="Helvetica-BoldOblique" font-style="italic" font-weight="bold" font-size="50.0" fill="#000000" transform="matrix(1.00, 0.00, -0.00, -1.00, 678.2, 395.0)">h</text><text xml:space="preserve" font-family="Helvetica-BoldOblique" font-style="italic" font-weight="bold" font-size="50.0" fill="#000000" transform="matrix(1.00, 0.00, -0.00, -1.00, 708.7, 395.0)">i</text><text xml:space="preserve" font-family="Helvetica-BoldOblique" font-style="italic" font-weight="bold" font-size="50.0" fill="#000000" transform="matrix(1.00, 0.00, -0.00, -1.00, 722.6, 395.0)">n</text><text xml:space="preserve" font-family="Helvetica-BoldOblique" font-style="italic" font-weight="bold" font-size="50.0" fill="#000000" transform="matrix(1.00, 0.00, -0.00, -1.00, 753.2, 395.0)">g</text><text xml:space="preserve" font-family="Helvetica-Light" font-size="50.0" fill="#000000" transform="matrix(1.00, 0.00, -0.00, -1.00, 783.8, 395.0)"> </text><text xml:space="preserve" font-family="Helvetica-Light" font-size="50.0" fill="#000000" transform="matrix(1.00, 0.00, -0.00, -1.00, 797.7, 395.0)">a</text><text xml:space="preserve" font-family="Helvetica-Light" font-size="50.0" fill="#000000" transform="matrix(1.00, 0.00, -0.00, -1.00, 825.5, 395.0)">n</text><text xml:space="preserve" font-family="Helvetica-Light" font-size="50.0" fill="#000000" transform="matrix(1.00, 0.00, -0.00, -1.00, 853.3, 395.0)">d</text><text xml:space="preserve" font-family="Helvetica-Light" font-size="50.0" fill="#000000" transform="matrix(1.00, 0.00, -0.00, -1.00, 883.8, 395.0)"> </text><text xml:space="preserve" font-family="Helvetica-Light" font-size="50.0" fill="#000000" transform="matrix(1.00, 0.00, -0.00, -1.00, 897.7, 395.0)">d</text><text xml:space="preserve" font-family="Helvetica-Light" font-size="50.0" fill="#000000" transform="matrix(1.00, 0.00, -0.00, -1.00, 928.3, 395.0)">o</text><text xml:space="preserve" font-family="Helvetica-Light" font-size="50.0" fill="#000000" transform="matrix(1.00, 0.00, -0.00, -1.00, 956.1, 395.0)"> </text><text xml:space="preserve" font-family="Helvetica-Light" font-size="50.0" fill="#000000" transform="matrix(1.00, 0.00, -0.00, -1.00, 970.0, 395.0)">i</text><text xml:space="preserve" font-family="Helvetica-Light" font-size="50.0" fill="#000000" transform="matrix(1.00, 0.00, -0.00, -1.00, 981.1, 395.0)">t</text><text xml:space="preserve" font-family="Helvetica-Light" font-size="50.0" fill="#000000" transform="matrix(1.00, 0.00, -0.00, -1.00, 995.0, 395.0)"> </text><text xml:space="preserve" font-family="Helvetica-BoldOblique" font-style="italic" font-weight="bold" font-size="50.0" fill="#000000" transform="matrix(1.00, 0.00, -0.00, -1.00, 79.0, 335.0)">w</text><text xml:space="preserve" font-family="Helvetica-BoldOblique" font-style="italic" font-weight="bold" font-size="50.0" fill="#000000" transform="matrix(1.00, 0.00, -0.00, -1.00, 117.9, 335.0)">e</text><text xml:space="preserve" font-family="Helvetica-BoldOblique" font-style="italic" font-weight="bold" font-size="50.0" fill="#000000" transform="matrix(1.00, 0.00, -0.00, -1.00, 145.7, 335.0)">l</text><text xml:space="preserve" font-family="Helvetica-BoldOblique" font-style="italic" font-weight="bold" font-size="50.0" fill="#000000" transform="matrix(1.00, 0.00, -0.00, -1.00, 159.6, 335.0)">l</text><text xml:space="preserve" font-family="Helvetica-Light" font-size="50.0" fill="#000000" transform="matrix(1.00, 0.00, -0.00, -1.00, 173.5, 335.0)">.</text><text xml:space="preserve" font-family="Helvetica-Light" font-size="50.0" fill="#000000" transform="matrix(1.00, 0.00, -0.00, -1.00, 187.4, 335.0)"> </text><text xml:space="preserve" font-family="Helvetica-Light" font-size="50.0" fill="#000000" transform="matrix(1.00, 0.00, -0.00, -1.00, 201.3, 335.0)">W</text><text xml:space="preserve" font-family="Helvetica-Light" font-size="50.0" fill="#000000" transform="matrix(1.00, 0.00, -0.00, -1.00, 244.8, 335.0)">r</text><text xml:space="preserve" font-family="Helvetica-Light" font-size="50.0" fill="#000000" transform="matrix(1.00, 0.00, -0.00, -1.00, 261.5, 335.0)">i</text><text xml:space="preserve" font-family="Helvetica-Light" font-size="50.0" fill="#000000" transform="matrix(1.00, 0.00, -0.00, -1.00, 272.6, 335.0)">t</text><text xml:space="preserve" font-family="Helvetica-Light" font-size="50.0" fill="#000000" transform="matrix(1.00, 0.00, -0.00, -1.00, 286.5, 335.0)">e</text><text xml:space="preserve" font-family="Helvetica-Light" font-size="50.0" fill="#000000" transform="matrix(1.00, 0.00, -0.00, -1.00, 314.3, 335.0)"> </text><text xml:space="preserve" font-family="Helvetica-Light" font-size="50.0" fill="#000000" transform="matrix(1.00, 0.00, -0.00, -1.00, 328.2, 335.0)">p</text><text xml:space="preserve" font-family="Helvetica-Light" font-size="50.0" fill="#000000" transform="matrix(1.00, 0.00, -0.00, -1.00, 358.7, 335.0)">r</text><text xml:space="preserve" font-family="Helvetica-Light" font-size="50.0" fill="#000000" transform="matrix(1.00, 0.00, -0.00, -1.00, 374.5, 335.0)">o</text><text xml:space="preserve" font-family="Helvetica-Light" font-size="50.0" fill="#000000" transform="matrix(1.00, 0.00, -0.00, -1.00, 402.3, 335.0)">g</text><text xml:space="preserve" font-family="Helvetica-Light" font-size="50.0" fill="#000000" transform="matrix(1.00, 0.00, -0.00, -1.00, 432.8, 335.0)">r</text><text xml:space="preserve" font-family="Helvetica-Light" font-size="50.0" fill="#000000" transform="matrix(1.00, 0.00, -0.00, -1.00, 449.5, 335.0)">a</text><text xml:space="preserve" font-family="Helvetica-Light" font-size="50.0" fill="#000000" transform="matrix(1.00, 0.00, -0.00, -1.00, 477.3, 335.0)">m</text><text xml:space="preserve" font-family="Helvetica-Light" font-size="50.0" fill="#000000" transform="matrix(1.00, 0.00, -0.00, -1.00, 518.9, 335.0)">s</text><text xml:space="preserve" font-family="Helvetica-Light" font-size="50.0" fill="#000000" transform="matrix(1.00, 0.00, -0.00, -1.00, 543.9, 335.0)"> </text><text xml:space="preserve" font-family="Helvetica-Light" font-size="50.0" fill="#000000" transform="matrix(1.00, 0.00, -0.00, -1.00, 557.8, 335.0)">t</text><text xml:space="preserve" font-family="Helvetica-Light" font-size="50.0" fill="#000000" transform="matrix(1.00, 0.00, -0.00, -1.00, 571.7, 335.0)">o</text><text xml:space="preserve" font-family="Helvetica-Light" font-size="50.0" fill="#000000" transform="matrix(1.00, 0.00, -0.00, -1.00, 599.5, 335.0)"> </text><text xml:space="preserve" font-family="Helvetica-BoldOblique" font-style="italic" font-weight="bold" font-size="50.0" fill="#000000" transform="matrix(1.00, 0.00, -0.00, -1.00, 613.4, 335.0)">w</text><text xml:space="preserve" font-family="Helvetica-BoldOblique" font-style="italic" font-weight="bold" font-size="50.0" fill="#000000" transform="matrix(1.00, 0.00, -0.00, -1.00, 652.3, 335.0)">o</text><text xml:space="preserve" font-family="Helvetica-BoldOblique" font-style="italic" font-weight="bold" font-size="50.0" fill="#000000" transform="matrix(1.00, 0.00, -0.00, -1.00, 682.8, 335.0)">r</text><text xml:space="preserve" font-family="Helvetica-BoldOblique" font-style="italic" font-weight="bold" font-size="50.0" fill="#000000" transform="matrix(1.00, 0.00, -0.00, -1.00, 702.3, 335.0)">k</text><text xml:space="preserve" font-family="Helvetica-BoldOblique" font-style="italic" font-weight="bold" font-size="50.0" fill="#000000" transform="matrix(1.00, 0.00, -0.00, -1.00, 730.1, 335.0)"> </text><text xml:space="preserve" font-family="Helvetica-BoldOblique" font-style="italic" font-weight="bold" font-size="50.0" fill="#000000" transform="matrix(1.00, 0.00, -0.00, -1.00, 744.0, 335.0)">t</text><text xml:space="preserve" font-family="Helvetica-BoldOblique" font-style="italic" font-weight="bold" font-size="50.0" fill="#000000" transform="matrix(1.00, 0.00, -0.00, -1.00, 760.7, 335.0)">o</text><text xml:space="preserve" font-family="Helvetica-BoldOblique" font-style="italic" font-weight="bold" font-size="50.0" fill="#000000" transform="matrix(1.00, 0.00, -0.00, -1.00, 791.2, 335.0)">g</text><text xml:space="preserve" font-family="Helvetica-BoldOblique" font-style="italic" font-weight="bold" font-size="50.0" fill="#000000" transform="matrix(1.00, 0.00, -0.00, -1.00, 821.7, 335.0)">e</text><text xml:space="preserve" font-family="Helvetica-BoldOblique" font-style="italic" font-weight="bold" font-size="50.0" fill="#000000" transform="matrix(1.00, 0.00, -0.00, -1.00, 849.5, 335.0)">t</text><text xml:space="preserve" font-family="Helvetica-BoldOblique" font-style="italic" font-weight="bold" font-size="50.0" fill="#000000" transform="matrix(1.00, 0.00, -0.00, -1.00, 866.2, 335.0)">h</text><text xml:space="preserve" font-family="Helvetica-BoldOblique" font-style="italic" font-weight="bold" font-size="50.0" fill="#000000" transform="matrix(1.00, 0.00, -0.00, -1.00, 896.7, 335.0)">e</text><text xml:space="preserve" font-family="Helvetica-BoldOblique" font-style="italic" font-weight="bold" font-size="50.0" fill="#000000" transform="matrix(1.00, 0.00, -0.00, -1.00, 924.5, 335.0)">r</text><text xml:space="preserve" font-family="Helvetica-Bold" font-weight="bold" font-size="28.0" fill="#000000" transform="matrix(1.00, 0.00, -0.00, -1.00, 659.0, 259.0)">-</text><text xml:space="preserve" font-family="Helvetica-Bold" font-weight="bold" font-size="28.0" fill="#000000" transform="matrix(1.00, 0.00, -0.00, -1.00, 668.3, 259.0)"> </text><text xml:space="preserve" font-family="Helvetica-Bold" font-weight="bold" font-size="28.0" fill="#000000" transform="matrix(1.00, 0.00, -0.00, -1.00, 676.1, 259.0)">T</text><text xml:space="preserve" font-family="Helvetica-Bold" font-weight="bold" font-size="28.0" fill="#000000" transform="matrix(1.00, 0.00, -0.00, -1.00, 693.2, 259.0)">h</text><text xml:space="preserve" font-family="Helvetica-Bold" font-weight="bold" font-size="28.0" fill="#000000" transform="matrix(1.00, 0.00, -0.00, -1.00, 710.3, 259.0)">e</text><text xml:space="preserve" font-family="Helvetica-Bold" font-weight="bold" font-size="28.0" fill="#000000" transform="matrix(1.00, 0.00, -0.00, -1.00, 725.9, 259.0)"> </text><text xml:space="preserve" font-family="Helvetica-Bold" font-weight="bold" font-size="28.0" fill="#000000" transform="matrix(1.00, 0.00, -0.00, -1.00, 733.6, 259.0)">U</text><text xml:space="preserve" font-family="Helvetica-Bold" font-weight="bold" font-size="28.0" fill="#000000" transform="matrix(1.00, 0.00, -0.00, -1.00, 753.9, 259.0)">n</text><text xml:space="preserve" font-family="Helvetica-Bold" font-weight="bold" font-size="28.0" fill="#000000" transform="matrix(1.00, 0.00, -0.00, -1.00, 771.0, 259.0)">i</text><text xml:space="preserve" font-family="Helvetica-Bold" font-weight="bold" font-size="28.0" fill="#000000" transform="matrix(1.00, 0.00, -0.00, -1.00, 778.7, 259.0)">x</text><text xml:space="preserve" font-family="Helvetica-Bold" font-weight="bold" font-size="28.0" fill="#000000" transform="matrix(1.00, 0.00, -0.00, -1.00, 794.3, 259.0)"> </text><text xml:space="preserve" font-family="Helvetica-Bold" font-weight="bold" font-size="28.0" fill="#000000" transform="matrix(1.00, 0.00, -0.00, -1.00, 802.1, 259.0)">W</text><text xml:space="preserve" font-family="Helvetica-Bold" font-weight="bold" font-size="28.0" fill="#000000" transform="matrix(1.00, 0.00, -0.00, -1.00, 827.5, 259.0)">a</text><text xml:space="preserve" font-family="Helvetica-Bold" font-weight="bold" font-size="28.0" fill="#000000" transform="matrix(1.00, 0.00, -0.00, -1.00, 843.1, 259.0)">y</text><text xml:space="preserve" font-family="Helvetica-Light" font-size="15.0" fill="#000000" transform="matrix(1.00, 0.00, -0.00, -1.00, 16.0, 36.0)">W</text><text xml:space="preserve" font-family="Helvetica-Light" font-size="15.0" fill="#000000" transform="matrix(1.00, 0.00, -0.00, -1.00, 29.3, 36.0)">h</text><text xml:space="preserve" font-family="Helvetica-Light" font-size="15.0" fill="#000000" transform="matrix(1.00, 0.00, -0.00, -1.00, 37.7, 36.0)">a</text><text xml:space="preserve" font-family="Helvetica-Light" font-size="15.0" fill="#000000" transform="matrix(1.00, 0.00, -0.00, -1.00, 46.0, 36.0)">t</text><text xml:space="preserve" font-family="Helvetica-Light" font-size="15.0" fill="#000000" transform="matrix(1.00, 0.00, -0.00, -1.00, 50.2, 36.0)"> </text><text xml:space="preserve" font-family="Helvetica-Light" font-size="15.0" fill="#000000" transform="matrix(1.00, 0.00, -0.00, -1.00, 54.4, 36.0)">a</text><text xml:space="preserve" font-family="Helvetica-Light" font-size="15.0" fill="#000000" transform="matrix(1.00, 0.00, -0.00, -1.00, 62.7, 36.0)">r</text><text xml:space="preserve" font-family="Helvetica-Light" font-size="15.0" fill="#000000" transform="matrix(1.00, 0.00, -0.00, -1.00, 67.4, 36.0)">e</text><text xml:space="preserve" font-family="Helvetica-Light" font-size="15.0" fill="#000000" transform="matrix(1.00, 0.00, -0.00, -1.00, 75.8, 36.0)"> </text><text xml:space="preserve" font-family="Helvetica-Light" font-size="15.0" fill="#000000" transform="matrix(1.00, 0.00, -0.00, -1.00, 79.9, 36.0)">M</text><text xml:space="preserve" font-family="Helvetica-Light" font-size="15.0" fill="#000000" transform="matrix(1.00, 0.00, -0.00, -1.00, 92.4, 36.0)">i</text><text xml:space="preserve" font-family="Helvetica-Light" font-size="15.0" fill="#000000" transform="matrix(1.00, 0.00, -0.00, -1.00, 95.8, 36.0)">c</text><text xml:space="preserve" font-family="Helvetica-Light" font-size="15.0" fill="#000000" transform="matrix(1.00, 0.00, -0.00, -1.00, 104.1, 36.0)">r</text><text xml:space="preserve" font-family="Helvetica-Light" font-size="15.0" fill="#000000" transform="matrix(1.00, 0.00, -0.00, -1.00, 108.8, 36.0)">o</text><text xml:space="preserve" font-family="Helvetica-Light" font-size="15.0" fill="#000000" transform="matrix(1.00, 0.00, -0.00, -1.00, 117.2, 36.0)">s</text><text xml:space="preserve" font-family="Helvetica-Light" font-size="15.0" fill="#000000" transform="matrix(1.00, 0.00, -0.00, -1.00, 124.7, 36.0)">e</text><text xml:space="preserve" font-family="Helvetica-Light" font-size="15.0" fill="#000000" transform="matrix(1.00, 0.00, -0.00, -1.00, 133.0, 36.0)">r</text><text xml:space="preserve" font-family="Helvetica-Light" font-size="15.0" fill="#000000" transform="matrix(1.00, 0.00, -0.00, -1.00, 138.0, 36.0)">v</text><text xml:space="preserve" font-family="Helvetica-Light" font-size="15.0" fill="#000000" transform="matrix(1.00, 0.00, -0.00, -1.00, 145.5, 36.0)">i</text><text xml:space="preserve" font-family="Helvetica-Light" font-size="15.0" fill="#000000" transform="matrix(1.00, 0.00, -0.00, -1.00, 148.8, 36.0)">c</text><text xml:space="preserve" font-family="Helvetica-Light" font-size="15.0" fill="#000000" transform="matrix(1.00, 0.00, -0.00, -1.00, 157.2, 36.0)">e</text><text xml:space="preserve" font-family="Helvetica-Light" font-size="15.0" fill="#000000" transform="matrix(1.00, 0.00, -0.00, -1.00, 165.5, 36.0)">s</text><text xml:space="preserve" font-family="Helvetica-Light" font-size="15.0" fill="#000000" transform="matrix(1.00, 0.00, -0.00, -1.00, 173.0, 36.0)">?</text></g></svg>