<?xml version="1.0" encoding="UTF-8" standalone="no"?><svg xmlns="http://www.w3.org/2000/svg" xmlns:xlink="http://www.w3.org/1999/xlink" clip-rule="evenodd" stroke-miterlimit="4.00" viewBox="0 0 1024 768"><desc>SVG generated by Keynote</desc><defs></defs><g transform="matrix(1.00, 0.00, -0.00, -1.00, 0.0, 768.0)"><path d="M 0.0 768.0 L 1024.0 768.0 L 1024.0 0.0 L 0.0 0.0 Z M 0.0 768.0 " fill="#FEFFFF"></path><g><clipPath id="clip-0"><path d="M 0.0 671.0 L 1024.0 671.0 L 1024.0 99.0 L 0.0 99.0 Z M 0.0 671.2 "></path></clipPath><g clip-path="url(#clip-0)"><g><clipPath id="clip-1"><path d="M 0.0 99.0 L 1024.0 99.0 L 1024.0 671.0 L 0.0 671.0 Z M 0.0 99.0 "></path></clipPath><g clip-path="url(#clip-1)"><path d="M 0.0 671.0 L 1024.0 671.0 L 1024.0 99.0 L 0.0 99.0 Z M 0.0 671.0 " fill="#FEFFFF" fill-opacity="0.00"></path></g></g></g></g><g><clipPath id="clip-2"><path d="M 0.0 671.0 L 1024.0 671.0 L 1024.0 99.0 L 0.0 99.0 Z M 0.0 671.2 "></path></clipPath><g clip-path="url(#clip-2)"><g><clipPath id="clip-3"><path d="M 0.9 671.0 L 1023.5 671.0 L 1023.5 99.9 L 0.9 99.9 Z M 0.9 671.0 "></path></clipPath><g clip-path="url(#clip-3)"><g><clipPath id="clip-4"><path d="M 0.9 99.9 L 1023.5 99.9 L 1023.5 671.0 L 0.9 671.0 Z M 0.9 99.9 "></path></clipPath><g clip-path="url(#clip-4)"><image xlink:href="E0B416DFBD6DE71202A10F7D305558BD.png" width="1500.00" height="845.00" transform="matrix(0.68, 0.00, -0.00, -0.68, 0.9, 671.0)"></image></g></g></g></g></g></g><text xml:space="preserve" font-family="OpenSans-Semibold" font-weight="bold" font-size="45.0" fill="#000000" transform="matrix(1.00, 0.00, -0.00, -1.00, 364.0, 397.0)">M</text><text xml:space="preserve" font-family="OpenSans-Semibold" font-weight="bold" font-size="45.0" fill="#000000" transform="matrix(1.00, 0.00, -0.00, -1.00, 405.5, 397.0)">i</text><text xml:space="preserve" font-family="OpenSans-Semibold" font-weight="bold" font-size="45.0" fill="#000000" transform="matrix(1.00, 0.00, -0.00, -1.00, 418.1, 397.0)">c</text><text xml:space="preserve" font-family="OpenSans-Semibold" font-weight="bold" font-size="45.0" fill="#000000" transform="matrix(1.00, 0.00, -0.00, -1.00, 440.3, 397.0)">r</text><text xml:space="preserve" font-family="OpenSans-Semibold" font-weight="bold" font-size="45.0" fill="#000000" transform="matrix(1.00, 0.00, -0.00, -1.00, 458.8, 397.0)">o</text><text xml:space="preserve" font-family="OpenSans-Semibold" font-weight="bold" font-size="45.0" fill="#000000" transform="matrix(1.00, 0.00, -0.00, -1.00, 486.3, 397.0)">s</text><text xml:space="preserve" font-family="OpenSans-Semibold" font-weight="bold" font-size="45.0" fill="#000000" transform="matrix(1.00, 0.00, -0.00, -1.00, 508.2, 397.0)">e</text><text xml:space="preserve" font-family="OpenSans-Semibold" font-weight="bold" font-size="45.0" fill="#000000" transform="matrix(1.00, 0.00, -0.00, -1.00, 534.1, 397.0)">r</text><text xml:space="preserve" font-family="OpenSans-Semibold" font-weight="bold" font-size="45.0" fill="#000000" transform="matrix(1.00, 0.00, -0.00, -1.00, 553.5, 397.0)">v</text><text xml:space="preserve" font-family="OpenSans-Semibold" font-weight="bold" font-size="45.0" fill="#000000" transform="matrix(1.00, 0.00, -0.00, -1.00, 577.6, 397.0)">i</text><text xml:space="preserve" font-family="OpenSans-Semibold" font-weight="bold" font-size="45.0" fill="#000000" transform="matrix(1.00, 0.00, -0.00, -1.00, 590.2, 397.0)">c</text><text xml:space="preserve" font-family="OpenSans-Semibold" font-weight="bold" font-size="45.0" fill="#000000" transform="matrix(1.00, 0.00, -0.00, -1.00, 612.4, 397.0)">e</text><text xml:space="preserve" font-family="OpenSans-Semibold" font-weight="bold" font-size="45.0" fill="#000000" transform="matrix(1.00, 0.00, -0.00, -1.00, 638.4, 397.0)">s</text><text xml:space="preserve" font-family="OpenSans-Semibold" font-weight="bold" font-size="45.0" fill="#000000" transform="matrix(1.00, 0.00, -0.00, -1.00, 660.3, 397.0)"> </text><text xml:space="preserve" font-family="OpenSans-Semibold" font-weight="bold" font-size="45.0" fill="#000000" transform="matrix(1.00, 0.00, -0.00, -1.00, 381.0, 336.0)">D</text><text xml:space="preserve" font-family="OpenSans-Semibold" font-weight="bold" font-size="45.0" fill="#000000" transform="matrix(1.00, 0.00, -0.00, -1.00, 414.0, 336.0)">e</text><text xml:space="preserve" font-family="OpenSans-Semibold" font-weight="bold" font-size="45.0" fill="#000000" transform="matrix(1.00, 0.00, -0.00, -1.00, 439.9, 336.0)">m</text><text xml:space="preserve" font-family="OpenSans-Semibold" font-weight="bold" font-size="45.0" fill="#000000" transform="matrix(1.00, 0.00, -0.00, -1.00, 483.0, 336.0)">y</text><text xml:space="preserve" font-family="OpenSans-Semibold" font-weight="bold" font-size="45.0" fill="#000000" transform="matrix(1.00, 0.00, -0.00, -1.00, 507.1, 336.0)">s</text><text xml:space="preserve" font-family="OpenSans-Semibold" font-weight="bold" font-size="45.0" fill="#000000" transform="matrix(1.00, 0.00, -0.00, -1.00, 529.0, 336.0)">t</text><text xml:space="preserve" font-family="OpenSans-Semibold" font-weight="bold" font-size="45.0" fill="#000000" transform="matrix(1.00, 0.00, -0.00, -1.00, 546.7, 336.0)">i</text><text xml:space="preserve" font-family="OpenSans-Semibold" font-weight="bold" font-size="45.0" fill="#000000" transform="matrix(1.00, 0.00, -0.00, -1.00, 559.2, 336.0)">ï¬</text><text xml:space="preserve" font-family="OpenSans-Semibold" font-weight="bold" font-size="45.0" fill="#000000" transform="matrix(1.00, 0.00, -0.00, -1.00, 588.1, 336.0)">e</text><text xml:space="preserve" font-family="OpenSans-Semibold" font-weight="bold" font-size="45.0" fill="#000000" transform="matrix(1.00, 0.00, -0.00, -1.00, 614.0, 336.0)">d</text><g><clipPath id="clip-5"><path d="M 324.0 314.0 L 700.0 314.0 L 700.0 457.0 L 324.0 457.0 Z M 324.0 314.0 "></path></clipPath><g clip-path="url(#clip-5)"><path d="M 324.0 457.0 L 700.0 457.0 L 700.0 314.0 L 324.0 314.0 Z M 324.0 457.0 " fill="#FEFFFF" fill-opacity="0.00"></path><path d="M 0.0 -0.0 L 3722812.0 0.9 " fill="none" stroke="#941100" stroke-width="25400.00" stroke-miterlimit="8.00" transform="matrix(0.00, 0.00, 0.00, -0.00, 324.8, 454.9)"></path><path d="M 0.0 -0.0 L 3722812.0 1.0 " fill="none" stroke="#941100" stroke-width="25400.00" stroke-miterlimit="8.00" transform="matrix(0.00, 0.00, 0.00, -0.00, 324.8, 315.8)"></path></g></g><text xml:space="preserve" font-family="OpenSans" font-size="21.0" fill="#000000" transform="matrix(1.00, 0.00, -0.00, -1.00, 411.0, 198.0)">S</text><text xml:space="preserve" font-family="OpenSans" font-size="21.0" fill="#000000" transform="matrix(1.00, 0.00, -0.00, -1.00, 422.5, 198.0)">e</text><text xml:space="preserve" font-family="OpenSans" font-size="21.0" fill="#000000" transform="matrix(1.00, 0.00, -0.00, -1.00, 434.3, 198.0)">l</text><text xml:space="preserve" font-family="OpenSans" font-size="21.0" fill="#000000" transform="matrix(1.00, 0.00, -0.00, -1.00, 439.6, 198.0)">v</text><text xml:space="preserve" font-family="OpenSans" font-size="21.0" fill="#000000" transform="matrix(1.00, 0.00, -0.00, -1.00, 450.1, 198.0)">a</text><text xml:space="preserve" font-family="OpenSans" font-size="21.0" fill="#000000" transform="matrix(1.00, 0.00, -0.00, -1.00, 461.8, 198.0)">k</text><text xml:space="preserve" font-family="OpenSans" font-size="21.0" fill="#000000" transform="matrix(1.00, 0.00, -0.00, -1.00, 472.8, 198.0)">u</text><text xml:space="preserve" font-family="OpenSans" font-size="21.0" fill="#000000" transform="matrix(1.00, 0.00, -0.00, -1.00, 485.7, 198.0)">m</text><text xml:space="preserve" font-family="OpenSans" font-size="21.0" fill="#000000" transform="matrix(1.00, 0.00, -0.00, -1.00, 505.3, 198.0)">a</text><text xml:space="preserve" font-family="OpenSans" font-size="21.0" fill="#000000" transform="matrix(1.00, 0.00, -0.00, -1.00, 516.9, 198.0)">r</text><text xml:space="preserve" font-family="OpenSans" font-size="21.0" fill="#000000" transform="matrix(1.00, 0.00, -0.00, -1.00, 525.5, 198.0)"> </text><text xml:space="preserve" font-family="OpenSans" font-size="21.0" fill="#000000" transform="matrix(1.00, 0.00, -0.00, -1.00, 531.0, 198.0)">N</text><text xml:space="preserve" font-family="OpenSans" font-size="21.0" fill="#000000" transform="matrix(1.00, 0.00, -0.00, -1.00, 546.8, 198.0)">a</text><text xml:space="preserve" font-family="OpenSans" font-size="21.0" fill="#000000" transform="matrix(1.00, 0.00, -0.00, -1.00, 558.5, 198.0)">t</text><text xml:space="preserve" font-family="OpenSans" font-size="21.0" fill="#000000" transform="matrix(1.00, 0.00, -0.00, -1.00, 565.9, 198.0)">e</text><text xml:space="preserve" font-family="OpenSans" font-size="21.0" fill="#000000" transform="matrix(1.00, 0.00, -0.00, -1.00, 577.7, 198.0)">s</text><text xml:space="preserve" font-family="OpenSans" font-size="21.0" fill="#000000" transform="matrix(1.00, 0.00, -0.00, -1.00, 587.7, 198.0)">a</text><text xml:space="preserve" font-family="OpenSans" font-size="21.0" fill="#000000" transform="matrix(1.00, 0.00, -0.00, -1.00, 599.4, 198.0)">n</text></g></svg>